<?xml version="1.0" encoding="UTF-8"?>
<svg version="1.1" xmlns="http://www.w3.org/2000/svg" width="1280" height="1025">
<path d="M0 0 C3.37721787 3.0905836 5.56848201 6.32376066 7.87890625 10.265625 C8.24333832 10.88328735 8.60777039 11.50094971 8.98324585 12.1373291 C10.18191117 14.17166117 11.37210818 16.21081762 12.5625 18.25 C13.4043847 19.68169435 14.24692489 21.11300342 15.09008789 22.54394531 C16.84680532 25.5264948 18.60066845 28.51069498 20.35253906 31.49609375 C24.12292487 37.91651029 27.92625784 44.31732625 31.73025513 50.71786499 C32.93508389 52.745933 34.13849146 54.77483817 35.34155273 56.80395508 C39.24095036 63.37800205 43.16345915 69.93634104 47.13037109 76.4699707 C68.49224375 111.73694995 82.15138984 148.55467003 72.51220703 190.10253906 C65.6493099 217.09264555 49.22761867 240.20417446 30.484375 260.3046875 C28.51140123 262.44517791 26.59998608 264.61295697 24.69921875 266.81640625 C20.98783096 271.07285099 17.06611815 275.08204646 13.0625 279.0625 C12.39798828 279.73087891 11.73347656 280.39925781 11.04882812 281.08789062 C7.14804633 284.98110543 3.13852066 288.68288453 -1.03344727 292.28295898 C-4.26642803 295.10574653 -7.37714952 298.05662368 -10.5 301 C-15.58358712 305.76743116 -20.69479521 310.47851865 -26 315 C-26.6703125 315.57621094 -27.340625 316.15242188 -28.03125 316.74609375 C-29.68505062 318.16691849 -31.34214134 319.5839124 -33 321 C0.06307548 339.23081475 56.31996556 336.14024292 93.3125 338.125 C94.02865479 338.16370209 94.74480957 338.20240417 95.48266602 338.24227905 C122.80237784 339.68993969 150.09060995 340.14962051 177.4422214 340.10139394 C181.70350898 340.09500093 185.96479785 340.09454434 190.22608948 340.09336853 C198.23969726 340.09030099 206.25329086 340.08215159 214.26689249 340.07201904 C223.41374735 340.06071283 232.560603 340.05531149 241.70746315 340.05032361 C260.47165004 340.03996328 279.23582387 340.02245585 298 340 C296.75530754 343.18950757 295.50286234 345.98661681 293.57104492 348.81665039 C293.08302902 349.5369191 292.59501312 350.25718781 292.09220886 350.99928284 C291.56033463 351.77424606 291.02846039 352.54920929 290.48046875 353.34765625 C289.91890579 354.17470566 289.35734283 355.00175507 288.77876282 355.85386658 C287.55966172 357.64891374 286.33856883 359.44260943 285.11572266 361.23510742 C281.79906259 366.09839436 278.49886725 370.97281729 275.19921875 375.84765625 C274.51644867 376.85599518 273.83367859 377.86433411 273.13021851 378.90322876 C266.16267841 389.209354 259.32448898 399.59883999 252.5 410 C242.34320679 425.47104089 232.06274428 440.85195935 221.6875 456.17724609 C212.52310903 469.71891755 203.4749265 483.33209604 194.5 497 C184.34435933 512.46601204 174.06859332 527.84419578 163.69555664 543.16516113 C153.7372643 557.87875719 143.92557074 572.68391945 134.17160034 587.53359985 C124.99799452 601.49655762 115.72714018 615.38746932 106.31478882 629.19064331 C105.20623948 630.81902566 104.10324103 632.45118268 103.00048828 634.08349609 C101.72254821 635.94659984 100.41602523 637.79062339 99.07373047 639.60791016 C98.51186035 640.38312012 97.94999023 641.15833008 97.37109375 641.95703125 C96.88439209 642.60260986 96.39769043 643.24818848 95.89624023 643.91333008 C94.26584336 647.70929904 95.64402635 651.03356576 97.015625 654.75732422 C97.42296875 655.6804541 97.8303125 656.60358398 98.25 657.5546875 C98.6934375 658.58207031 99.136875 659.60945312 99.59375 660.66796875 C100.5283776 662.79943891 101.46586161 664.92965893 102.40625 667.05859375 C108.28358366 680.70972629 108.28358366 680.70972629 106.10205078 686.30175781 C104.70281331 689.01307935 103.16518273 691.5912588 101.5625 694.1875 C100.35193353 696.23305507 99.14370939 698.27999765 97.9375 700.328125 C97.29425781 701.40900391 96.65101563 702.48988281 95.98828125 703.60351562 C92.90405092 708.87215664 89.99161257 714.23172408 87.06994629 719.59164429 C81.25142393 730.25241386 75.26656934 740.8017415 69.10913086 751.27124023 C62.93753306 761.77106413 56.96062522 772.37935859 51 783 C64.90993513 783.89686069 78.75142574 784.12505712 92.6875 784.0625 C94.67252489 784.0574664 96.65755104 784.05290684 98.64257812 784.04882812 C103.42841751 784.03798953 108.21419411 784.02083154 113 784 C113.34144043 783.36723145 113.68288086 782.73446289 114.03466797 782.08251953 C125.48119372 760.88056279 125.48119372 760.88056279 130.9375 751.125 C135.61543444 742.75365522 140.15768571 734.31113465 144.69384766 725.86230469 C148.83594749 718.15019974 153.02058038 710.46278609 157.23193359 702.78833008 C160.3332014 697.11499128 163.3745488 691.41235982 166.38671875 685.69140625 C166.95795219 684.60835205 166.95795219 684.60835205 167.54072571 683.50341797 C169.43838127 679.90522102 171.33079011 676.30445107 173.21411133 672.69873047 C173.91334096 671.37064539 174.61279375 670.04267778 175.3125 668.71484375 C175.62559616 668.11056046 175.93869232 667.50627716 176.26127625 666.88368225 C178.18001332 663.25881773 180.3439079 660.12259392 183 657 C183.99 657.33 184.98 657.66 186 658 C191.54208668 655.0258926 196.69248197 651.43935879 201.93212891 647.96630859 C204.62008861 646.24349883 207.3443621 644.6165487 210.10899353 643.0206604 C228.8162023 632.1568148 238.55120309 620.71910169 248.19433594 601.50634766 C250.86707475 596.31626183 253.91215075 591.38794482 257 586.4375 C258.14335299 584.5711853 259.28526548 582.70398739 260.42578125 580.8359375 C261.00408691 579.89202148 261.58239258 578.94810547 262.17822266 577.97558594 C265.52423959 572.51039505 268.85817965 567.03787232 272.1875 561.5625 C272.53789337 560.98648041 272.88828674 560.41046082 273.2492981 559.81698608 C279.63765979 549.30865623 285.91614616 538.7367413 292.17831421 528.15286255 C296.72451648 520.47203476 301.29877285 512.8194143 306.08911133 505.28759766 C310.58834486 498.16008013 314.83608431 490.880066 319.125 483.625 C324.99611569 473.69385078 330.92171917 463.80621099 337 454 C342.94950737 444.39962453 348.75411592 434.72309523 354.5 425 C360.86104278 414.23594284 367.31950175 403.54525504 373.91064453 392.91992188 C380.38696006 382.44702724 386.64750891 371.84820159 392.8828125 361.23046875 C393.65884376 359.91405637 394.43488493 358.59764982 395.2109375 357.28125 C395.56537933 356.67422241 395.91982117 356.06719482 396.28500366 355.44177246 C397.70993489 353.02837228 399.00859676 350.99140324 401 349 C403.66074226 348.79255465 406.21959531 348.70951528 408.88232422 348.71289062 C409.69951431 348.70605759 410.51670441 348.69922455 411.35865784 348.69218445 C413.14554961 348.67855011 414.93248093 348.66952671 416.71941757 348.66447449 C419.59661592 348.65612837 422.47350526 348.63554279 425.35061646 348.61193848 C431.5253636 348.56359052 437.70014532 348.53106222 443.875 348.5 C482.76443256 348.29908364 521.61227464 347.5991883 560.375 344.1875 C561.34998444 344.10385193 562.32496887 344.02020386 563.32949829 343.934021 C624.11114257 339.59086222 624.11114257 339.59086222 681 320 C679.58451013 315.30433268 677.61044802 311.09687403 675.296875 306.79296875 C674.55558487 305.38628091 673.81471384 303.97937215 673.07421875 302.57226562 C671.9229909 300.39618787 670.76851036 298.22205188 669.60595703 296.05200195 C651.57890348 262.32409154 643.65353622 223.12966348 654.4765625 185.71875 C657.90829514 174.5683889 662.38651302 164.20974557 668 154 C668.81210938 152.47052734 668.81210938 152.47052734 669.640625 150.91015625 C676.7301361 138.0905306 686.05068969 126.68918074 696 116 C697.08740366 114.73264774 698.17085594 113.46189262 699.25 112.1875 C706.81893158 103.507047 715.18510869 95.40256066 724 88 C724.91652344 87.2059375 725.83304688 86.411875 726.77734375 85.59375 C735.56230545 78.00952032 744.72046401 70.96518151 754 64 C754.73460449 63.44441406 755.46920898 62.88882813 756.22607422 62.31640625 C767.38974148 53.8821765 778.85342943 45.99830355 790.52734375 38.2890625 C797.55664403 33.64476143 804.53108557 28.92165854 811.5 24.1875 C812.69376147 23.37759708 813.88752769 22.56770116 815.08129883 21.7578125 C820.15619904 18.31205138 825.22293487 14.85571141 830.2578125 11.3515625 C831.38799805 10.56616089 831.38799805 10.56616089 832.54101562 9.76489258 C833.88391028 8.82898814 835.22398823 7.88902257 836.56054688 6.9440918 C840.78086879 4 840.78086879 4 843 4 C841.43501182 14.04998732 838.84843372 23.82051964 836.30859375 33.65625 C835.83943483 35.48473728 835.37061584 37.3133118 834.90211487 39.14196777 C833.66777664 43.95603767 832.42883967 48.76891225 831.18890381 53.58154297 C830.20392204 57.40721823 829.22177958 61.23361905 828.23995018 65.06010437 C827.51462196 67.88692223 826.78880815 70.71361505 826.06289673 73.5402832 C825.10336229 77.27683936 824.14501929 81.0136985 823.18734741 84.75073242 C821.14093198 92.72837096 819.08734931 100.70338351 816.96910381 108.66230011 C816.12100553 111.8506478 815.28060172 115.04100231 814.44059944 118.23149109 C814.05351736 119.69200677 813.66243309 121.15146927 813.26681328 122.60969543 C808.30616707 140.89649788 807.39028083 156.15369661 816.61328125 173.05078125 C820.29753012 179.38217442 824.96234332 184.71721717 830 190 C830.55526367 190.58555664 831.11052734 191.17111328 831.68261719 191.77441406 C839.00979062 199.43743334 846.61511812 206.49388833 855 213 C856.07737951 213.84434235 857.15417572 214.68942939 858.23046875 215.53515625 C859.96903411 216.90071038 861.70784284 218.26593409 863.44824219 219.62915039 C874.2345121 228.08796472 885.03108934 236.57865471 895 246 C895.95261719 246.88816406 896.90523437 247.77632812 897.88671875 248.69140625 C914.69704194 264.68111918 926.38201322 284.114176 931 307 C931.22300781 308.04285156 931.44601562 309.08570313 931.67578125 310.16015625 C939.93609601 356.40668038 924.29026348 409.83274563 898 448 C891.69236208 457.01919227 884.95111419 465.45330901 877.39453125 473.453125 C875.44879182 475.52265535 873.61317042 477.6186913 871.8125 479.8125 C868.56562598 483.63720753 864.82763813 486.77240415 861 490 C860.07445312 490.81339844 859.14890625 491.62679688 858.1953125 492.46484375 C793.83567058 548.7101995 704.25900665 570.87944068 593.9375 583.8125 C593.26771118 583.87602661 592.59792236 583.93955322 591.90783691 584.00500488 C583.24966895 584.81322962 574.69480962 585.15655601 566 585 C565.59950439 586.0681897 565.59950439 586.0681897 565.19091797 587.15795898 C563.9652069 590.08303125 562.5335641 592.72830303 560.9453125 595.47265625 C560.3366333 596.52702881 559.7279541 597.58140137 559.10083008 598.66772461 C558.44880615 599.78800049 557.79678223 600.90827637 557.125 602.0625 C556.44483923 603.23506893 555.76474557 604.40767678 555.0847168 605.58032227 C549.15941972 615.78235542 543.15874842 625.93697079 537 636 C536.51466797 636.7945459 536.02933594 637.5890918 535.52929688 638.40771484 C525.22535229 655.20423058 514.10256518 671.25782159 501 686 C500.55446777 686.50724609 500.10893555 687.01449219 499.64990234 687.53710938 C483.24167262 706.17128462 464.32985932 720.49889836 442.609375 732.4765625 C441.81789063 732.91983887 441.02640625 733.36311523 440.2109375 733.81982422 C438 735 438 735 434.359375 736.546875 C428.87179519 739.72801129 426.40051336 746.23334005 423.5 751.625 C422.80210965 752.88911566 422.10220446 754.15212086 421.40039062 755.4140625 C419.95914402 758.00825716 418.52580432 760.60658143 417.09765625 763.20800781 C413.9863665 768.85589276 410.73980794 774.42518759 407.5 780 C403.60105856 786.74139219 399.71497074 793.48986816 395.85546875 800.25390625 C395.50952164 800.85934769 395.16357452 801.46478912 394.80714417 802.08857727 C393.08402912 805.105971 391.36816124 808.12707951 389.66625977 811.15649414 C386.84083139 816.15976172 384.0201836 821.08769956 380.734375 825.8046875 C373.46548405 836.39535069 373.48621907 843.92687752 374.81347656 856.51220703 C375.99880228 872.32172157 370.09617174 887.08758573 360 899 C352.83208943 907.04052577 344.59263936 913.57741324 336 920 C335.33500488 920.49870605 334.67000977 920.99741211 333.98486328 921.51123047 C300.07329742 946.80324087 262.92431445 967.82175747 226.1171875 988.546875 C219.02105336 992.54595756 211.94733075 996.58402839 204.875 1000.625 C204.26523315 1000.9731073 203.65546631 1001.3212146 203.02722168 1001.67987061 C201.28602672 1002.67398805 199.54534774 1003.66900908 197.8046875 1004.6640625 C196.80421387 1005.23592285 195.80374023 1005.8077832 194.77294922 1006.39697266 C192.03719622 1007.93117807 192.03719622 1007.93117807 189.69585133 1009.57964706 C186.54930517 1011.23745587 184.63262058 1011.35933834 181.09342957 1011.32867432 C179.88980711 1011.32603828 178.68618465 1011.32340225 177.44608879 1011.32068634 C176.09971944 1011.30270012 174.75335067 1011.28467004 173.40698242 1011.26660156 C171.95253768 1011.25891754 170.49808409 1011.25278383 169.04362679 1011.24803925 C165.82388612 1011.23501481 162.60436953 1011.21306475 159.38472939 1011.18450165 C151.05562917 1011.11143181 142.72631771 1011.08136973 134.39696586 1011.05196619 C132.31868986 1011.04458433 130.24041576 1011.03665035 128.16214383 1011.02819967 C109.20859555 1010.95449702 90.25939865 1011.09416638 71.30712891 1011.28710938 C53.22324069 1011.47089705 35.14027071 1011.63258996 17.0553894 1011.66687012 C16.2882901 1011.66832497 15.5211908 1011.66977983 14.73084606 1011.67127877 C6.91232618 1011.68517101 -0.90618141 1011.69215889 -8.72471338 1011.69176522 C-12.67381706 1011.69173907 -16.62291865 1011.6932817 -20.57202148 1011.69580078 C-21.35634753 1011.69627291 -22.14067358 1011.69674504 -22.94876708 1011.69723147 C-35.81675308 1011.70874971 -48.68053937 1011.84906502 -61.54709437 1012.03208444 C-74.96193636 1012.21999701 -88.37232064 1012.26997002 -101.78828651 1012.19428468 C-109.24477576 1012.15604865 -116.68992895 1012.17811058 -124.14453697 1012.36186981 C-170.10635155 1013.44884169 -170.10635155 1013.44884169 -180.79013443 1004.43251038 C-188.79918463 996.41080687 -193.83775074 986.48355327 -198.19140053 976.13687897 C-200.39364589 970.92246177 -203.39413541 966.37736059 -206.625 961.75 C-264.29860524 870.38602023 -264.29860524 870.38602023 -254.24609375 825.64453125 C-249.92979359 811.39532277 -240.36654011 802.5930428 -229.078125 793.49609375 C-225.5583493 790.6418594 -222.0816739 787.74262452 -218.625 784.8125 C-218.04218262 784.32555664 -217.45936523 783.83861328 -216.85888672 783.33691406 C-210.35557028 777.80225639 -205.89951905 771.5254043 -201.4375 764.3125 C-200.37381496 762.61060393 -199.3100095 760.90878311 -198.24609375 759.20703125 C-197.70710449 758.34158691 -197.16811523 757.47614258 -196.61279297 756.58447266 C-194.0923294 752.54547367 -191.54554225 748.52322094 -189 744.5 C-187.99985898 742.91675574 -186.99985933 741.33342217 -186 739.75 C-168 711.25 -168 711.25 -166.49731445 708.87109375 C-165.50584911 707.30104461 -164.51479515 705.7307356 -163.52416992 704.16015625 C-160.89705152 699.99625803 -158.26118029 695.83821978 -155.61328125 691.6875 C-155.06091797 690.81931641 -154.50855469 689.95113281 -153.93945312 689.05664062 C-152.87695948 687.38700776 -151.81196365 685.71896384 -150.74414062 684.05273438 C-150.26783203 683.30314453 -149.79152344 682.55355469 -149.30078125 681.78125 C-148.87966064 681.12189453 -148.45854004 680.46253906 -148.0246582 679.78320312 C-146.84580837 677.86820675 -146.84580837 677.86820675 -146 675 C-146.71045995 672.72087109 -146.71045995 672.72087109 -147.9140625 670.2734375 C-148.34340088 669.33169678 -148.77273926 668.38995605 -149.21508789 667.41967773 C-149.68035889 666.41493408 -150.14562988 665.41019043 -150.625 664.375 C-160.02533283 643.47462618 -165.90774759 623.4388972 -158 601 C-153.40986723 589.61558906 -146.65697065 579.25828264 -140 569 C-141.15757812 568.89816406 -142.31515625 568.79632812 -143.5078125 568.69140625 C-150.7060819 567.88458268 -157.78575092 566.39345037 -164.875 564.9375 C-165.6213269 564.78449432 -166.36765381 564.63148865 -167.13659668 564.47384644 C-181.6855275 561.4646112 -195.88197469 557.64617988 -210 553 C-210.95229492 552.68981934 -211.90458984 552.37963867 -212.88574219 552.06005859 C-254.75668389 538.22259778 -298.5191684 513.92955979 -319.3125 473.1875 C-337.09707149 436.50905779 -334.67850384 396.27761908 -322.10498047 358.29638672 C-309.6342474 322.50994285 -291.15025414 287.96382664 -263 262 C-262.44828125 261.48953125 -261.8965625 260.9790625 -261.328125 260.453125 C-259.25346599 258.59125153 -257.13482201 256.7927031 -255 255 C-254.01 254.15953125 -253.02 253.3190625 -252 252.453125 C-235.67647825 238.8580373 -217.53368391 227.33782237 -199 217 C-198.18950195 216.54737793 -197.37900391 216.09475586 -196.54394531 215.62841797 C-184.91554058 209.16309485 -173.15149844 202.9735098 -161.33374023 196.86279297 C-151.65233853 191.84614166 -142.07237885 186.65640254 -132.52539062 181.38916016 C-130.12084914 180.06647637 -127.70996538 178.75622438 -125.296875 177.44921875 C-78.33939706 151.90009341 -47.96932183 122.13652753 -28.6875 72 C-27.91227876 70.00012026 -27.13630421 68.00053239 -26.35961914 66.0012207 C-24.73733772 61.82311773 -23.11832746 57.64377062 -21.50195312 53.46337891 C-17.73458292 43.72447171 -13.94051582 33.99599656 -10.14053345 24.26977539 C-8.94939287 21.21797056 -7.76199447 18.16472858 -6.57495117 15.11132812 C-5.85089439 13.25515149 -5.12669955 11.39902871 -4.40234375 9.54296875 C-4.0709137 8.68793259 -3.73948364 7.83289642 -3.39801025 6.95195007 C-1.11380936 1.11380936 -1.11380936 1.11380936 0 0 Z " fill="#006747" transform="translate(337,6)"/>
<path d="M0 0 C3.37721787 3.0905836 5.56848201 6.32376066 7.87890625 10.265625 C8.24333832 10.88328735 8.60777039 11.50094971 8.98324585 12.1373291 C10.18191117 14.17166117 11.37210818 16.21081762 12.5625 18.25 C13.4043847 19.68169435 14.24692489 21.11300342 15.09008789 22.54394531 C16.84680532 25.5264948 18.60066845 28.51069498 20.35253906 31.49609375 C24.12292487 37.91651029 27.92625784 44.31732625 31.73025513 50.71786499 C32.93508389 52.745933 34.13849146 54.77483817 35.34155273 56.80395508 C39.24095036 63.37800205 43.16345915 69.93634104 47.13037109 76.4699707 C68.49224375 111.73694995 82.15138984 148.55467003 72.51220703 190.10253906 C65.6493099 217.09264555 49.22761867 240.20417446 30.484375 260.3046875 C28.51140123 262.44517791 26.59998608 264.61295697 24.69921875 266.81640625 C20.98783096 271.07285099 17.06611815 275.08204646 13.0625 279.0625 C12.39798828 279.73087891 11.73347656 280.39925781 11.04882812 281.08789062 C7.14804633 284.98110543 3.13852066 288.68288453 -1.03344727 292.28295898 C-4.26642803 295.10574653 -7.37714952 298.05662368 -10.5 301 C-15.58358712 305.76743116 -20.69479521 310.47851865 -26 315 C-26.6703125 315.57621094 -27.340625 316.15242188 -28.03125 316.74609375 C-29.68505062 318.16691849 -31.34214134 319.5839124 -33 321 C0.06307548 339.23081475 56.31996556 336.14024292 93.3125 338.125 C94.02865479 338.16370209 94.74480957 338.20240417 95.48266602 338.24227905 C122.80237784 339.68993969 150.09060995 340.14962051 177.4422214 340.10139394 C181.70350898 340.09500093 185.96479785 340.09454434 190.22608948 340.09336853 C198.23969726 340.09030099 206.25329086 340.08215159 214.26689249 340.07201904 C223.41374735 340.06071283 232.560603 340.05531149 241.70746315 340.05032361 C260.47165004 340.03996328 279.23582387 340.02245585 298 340 C296.75530754 343.18950757 295.50286234 345.98661681 293.57104492 348.81665039 C293.08302902 349.5369191 292.59501312 350.25718781 292.09220886 350.99928284 C291.56033463 351.77424606 291.02846039 352.54920929 290.48046875 353.34765625 C289.91890579 354.17470566 289.35734283 355.00175507 288.77876282 355.85386658 C287.55966172 357.64891374 286.33856883 359.44260943 285.11572266 361.23510742 C281.79906259 366.09839436 278.49886725 370.97281729 275.19921875 375.84765625 C274.51644867 376.85599518 273.83367859 377.86433411 273.13021851 378.90322876 C266.16267841 389.209354 259.32448898 399.59883999 252.5 410 C242.34320679 425.47104089 232.06274428 440.85195935 221.6875 456.17724609 C212.52310903 469.71891755 203.4749265 483.33209604 194.5 497 C184.34435933 512.46601204 174.06859332 527.84419578 163.69555664 543.16516113 C153.7372643 557.87875719 143.92557074 572.68391945 134.17160034 587.53359985 C124.99799452 601.49655762 115.72714018 615.38746932 106.31478882 629.19064331 C105.20623948 630.81902566 104.10324103 632.45118268 103.00048828 634.08349609 C101.72254821 635.94659984 100.41602523 637.79062339 99.07373047 639.60791016 C98.51186035 640.38312012 97.94999023 641.15833008 97.37109375 641.95703125 C96.88439209 642.60260986 96.39769043 643.24818848 95.89624023 643.91333008 C94.26584336 647.70929904 95.64402635 651.03356576 97.015625 654.75732422 C97.42296875 655.6804541 97.8303125 656.60358398 98.25 657.5546875 C98.6934375 658.58207031 99.136875 659.60945312 99.59375 660.66796875 C100.5283776 662.79943891 101.46586161 664.92965893 102.40625 667.05859375 C108.28358366 680.70972629 108.28358366 680.70972629 106.10205078 686.30175781 C104.70281331 689.01307935 103.16518273 691.5912588 101.5625 694.1875 C100.35193353 696.23305507 99.14370939 698.27999765 97.9375 700.328125 C97.29425781 701.40900391 96.65101563 702.48988281 95.98828125 703.60351562 C92.90405092 708.87215664 89.99161257 714.23172408 87.06994629 719.59164429 C81.25142393 730.25241386 75.26656934 740.8017415 69.10913086 751.27124023 C62.93753306 761.77106413 56.96062522 772.37935859 51 783 C64.90993513 783.89686069 78.75142574 784.12505712 92.6875 784.0625 C94.67252489 784.0574664 96.65755104 784.05290684 98.64257812 784.04882812 C103.42841751 784.03798953 108.21419411 784.02083154 113 784 C113.34144043 783.36723145 113.68288086 782.73446289 114.03466797 782.08251953 C125.48119372 760.88056279 125.48119372 760.88056279 130.9375 751.125 C135.61543444 742.75365522 140.15768571 734.31113465 144.69384766 725.86230469 C148.83594749 718.15019974 153.02058038 710.46278609 157.23193359 702.78833008 C160.3332014 697.11499128 163.3745488 691.41235982 166.38671875 685.69140625 C166.95795219 684.60835205 166.95795219 684.60835205 167.54072571 683.50341797 C169.43838127 679.90522102 171.33079011 676.30445107 173.21411133 672.69873047 C173.91334096 671.37064539 174.61279375 670.04267778 175.3125 668.71484375 C175.62559616 668.11056046 175.93869232 667.50627716 176.26127625 666.88368225 C178.18001332 663.25881773 180.3439079 660.12259392 183 657 C183.99 657.33 184.98 657.66 186 658 C191.54208668 655.0258926 196.69248197 651.43935879 201.93212891 647.96630859 C204.62008861 646.24349883 207.3443621 644.6165487 210.10899353 643.0206604 C228.8162023 632.1568148 238.55120309 620.71910169 248.19433594 601.50634766 C250.86707475 596.31626183 253.91215075 591.38794482 257 586.4375 C258.14335299 584.5711853 259.28526548 582.70398739 260.42578125 580.8359375 C261.00408691 579.89202148 261.58239258 578.94810547 262.17822266 577.97558594 C265.52423959 572.51039505 268.85817965 567.03787232 272.1875 561.5625 C272.53789337 560.98648041 272.88828674 560.41046082 273.2492981 559.81698608 C279.63765979 549.30865623 285.91614616 538.7367413 292.17831421 528.15286255 C296.72451648 520.47203476 301.29877285 512.8194143 306.08911133 505.28759766 C310.58834486 498.16008013 314.83608431 490.880066 319.125 483.625 C324.99611569 473.69385078 330.92171917 463.80621099 337 454 C342.94950737 444.39962453 348.75411592 434.72309523 354.5 425 C360.86104278 414.23594284 367.31950175 403.54525504 373.91064453 392.91992188 C380.38696006 382.44702724 386.64750891 371.84820159 392.8828125 361.23046875 C393.65884376 359.91405637 394.43488493 358.59764982 395.2109375 357.28125 C395.56537933 356.67422241 395.91982117 356.06719482 396.28500366 355.44177246 C397.70993489 353.02837228 399.00859676 350.99140324 401 349 C403.66074226 348.79255465 406.21959531 348.70951528 408.88232422 348.71289062 C409.69951431 348.70605759 410.51670441 348.69922455 411.35865784 348.69218445 C413.14554961 348.67855011 414.93248093 348.66952671 416.71941757 348.66447449 C419.59661592 348.65612837 422.47350526 348.63554279 425.35061646 348.61193848 C431.5253636 348.56359052 437.70014532 348.53106222 443.875 348.5 C482.76443256 348.29908364 521.61227464 347.5991883 560.375 344.1875 C561.34998444 344.10385193 562.32496887 344.02020386 563.32949829 343.934021 C624.11114257 339.59086222 624.11114257 339.59086222 681 320 C679.58451013 315.30433268 677.61044802 311.09687403 675.296875 306.79296875 C674.55558487 305.38628091 673.81471384 303.97937215 673.07421875 302.57226562 C671.9229909 300.39618787 670.76851036 298.22205188 669.60595703 296.05200195 C651.57890348 262.32409154 643.65353622 223.12966348 654.4765625 185.71875 C657.90829514 174.5683889 662.38651302 164.20974557 668 154 C668.81210938 152.47052734 668.81210938 152.47052734 669.640625 150.91015625 C676.7301361 138.0905306 686.05068969 126.68918074 696 116 C697.08740366 114.73264774 698.17085594 113.46189262 699.25 112.1875 C706.81893158 103.507047 715.18510869 95.40256066 724 88 C724.91652344 87.2059375 725.83304688 86.411875 726.77734375 85.59375 C735.56230545 78.00952032 744.72046401 70.96518151 754 64 C754.73460449 63.44441406 755.46920898 62.88882813 756.22607422 62.31640625 C767.38974148 53.8821765 778.85342943 45.99830355 790.52734375 38.2890625 C797.55664403 33.64476143 804.53108557 28.92165854 811.5 24.1875 C812.69376147 23.37759708 813.88752769 22.56770116 815.08129883 21.7578125 C820.15619904 18.31205138 825.22293487 14.85571141 830.2578125 11.3515625 C831.38799805 10.56616089 831.38799805 10.56616089 832.54101562 9.76489258 C833.88391028 8.82898814 835.22398823 7.88902257 836.56054688 6.9440918 C840.78086879 4 840.78086879 4 843 4 C841.43501182 14.04998732 838.84843372 23.82051964 836.30859375 33.65625 C835.83943483 35.48473728 835.37061584 37.3133118 834.90211487 39.14196777 C833.66777664 43.95603767 832.42883967 48.76891225 831.18890381 53.58154297 C830.20392204 57.40721823 829.22177958 61.23361905 828.23995018 65.06010437 C827.51462196 67.88692223 826.78880815 70.71361505 826.06289673 73.5402832 C825.10336229 77.27683936 824.14501929 81.0136985 823.18734741 84.75073242 C821.14093198 92.72837096 819.08734931 100.70338351 816.96910381 108.66230011 C816.12100553 111.8506478 815.28060172 115.04100231 814.44059944 118.23149109 C814.05351736 119.69200677 813.66243309 121.15146927 813.26681328 122.60969543 C808.30616707 140.89649788 807.39028083 156.15369661 816.61328125 173.05078125 C820.29753012 179.38217442 824.96234332 184.71721717 830 190 C830.55526367 190.58555664 831.11052734 191.17111328 831.68261719 191.77441406 C839.00979062 199.43743334 846.61511812 206.49388833 855 213 C856.07737951 213.84434235 857.15417572 214.68942939 858.23046875 215.53515625 C859.96903411 216.90071038 861.70784284 218.26593409 863.44824219 219.62915039 C874.2345121 228.08796472 885.03108934 236.57865471 895 246 C895.95261719 246.88816406 896.90523437 247.77632812 897.88671875 248.69140625 C914.69704194 264.68111918 926.38201322 284.114176 931 307 C931.22300781 308.04285156 931.44601562 309.08570313 931.67578125 310.16015625 C939.93609601 356.40668038 924.29026348 409.83274563 898 448 C891.69236208 457.01919227 884.95111419 465.45330901 877.39453125 473.453125 C875.44879182 475.52265535 873.61317042 477.6186913 871.8125 479.8125 C868.56562598 483.63720753 864.82763813 486.77240415 861 490 C860.07445312 490.81339844 859.14890625 491.62679688 858.1953125 492.46484375 C793.83567058 548.7101995 704.25900665 570.87944068 593.9375 583.8125 C593.26771118 583.87602661 592.59792236 583.93955322 591.90783691 584.00500488 C583.24966895 584.81322962 574.69480962 585.15655601 566 585 C565.59950439 586.0681897 565.59950439 586.0681897 565.19091797 587.15795898 C563.9652069 590.08303125 562.5335641 592.72830303 560.9453125 595.47265625 C560.3366333 596.52702881 559.7279541 597.58140137 559.10083008 598.66772461 C558.44880615 599.78800049 557.79678223 600.90827637 557.125 602.0625 C556.44483923 603.23506893 555.76474557 604.40767678 555.0847168 605.58032227 C549.15941972 615.78235542 543.15874842 625.93697079 537 636 C536.51466797 636.7945459 536.02933594 637.5890918 535.52929688 638.40771484 C525.22535229 655.20423058 514.10256518 671.25782159 501 686 C500.55446777 686.50724609 500.10893555 687.01449219 499.64990234 687.53710938 C483.24167262 706.17128462 464.32985932 720.49889836 442.609375 732.4765625 C441.81789063 732.91983887 441.02640625 733.36311523 440.2109375 733.81982422 C438 735 438 735 434.359375 736.546875 C428.87179519 739.72801129 426.40051336 746.23334005 423.5 751.625 C422.80210965 752.88911566 422.10220446 754.15212086 421.40039062 755.4140625 C419.95914402 758.00825716 418.52580432 760.60658143 417.09765625 763.20800781 C413.9863665 768.85589276 410.73980794 774.42518759 407.5 780 C403.60105856 786.74139219 399.71497074 793.48986816 395.85546875 800.25390625 C395.50952164 800.85934769 395.16357452 801.46478912 394.80714417 802.08857727 C393.08402912 805.105971 391.36816124 808.12707951 389.66625977 811.15649414 C386.84083139 816.15976172 384.0201836 821.08769956 380.734375 825.8046875 C373.46548405 836.39535069 373.48621907 843.92687752 374.81347656 856.51220703 C375.99880228 872.32172157 370.09617174 887.08758573 360 899 C352.83208943 907.04052577 344.59263936 913.57741324 336 920 C335.33500488 920.49870605 334.67000977 920.99741211 333.98486328 921.51123047 C300.07329742 946.80324087 262.92431445 967.82175747 226.1171875 988.546875 C219.02105336 992.54595756 211.94733075 996.58402839 204.875 1000.625 C204.26523315 1000.9731073 203.65546631 1001.3212146 203.02722168 1001.67987061 C201.28602672 1002.67398805 199.54534774 1003.66900908 197.8046875 1004.6640625 C196.80421387 1005.23592285 195.80374023 1005.8077832 194.77294922 1006.39697266 C192.03719622 1007.93117807 192.03719622 1007.93117807 189.69585133 1009.57964706 C186.54930517 1011.23745587 184.63262058 1011.35933834 181.09342957 1011.32867432 C179.88980711 1011.32603828 178.68618465 1011.32340225 177.44608879 1011.32068634 C176.09971944 1011.30270012 174.75335067 1011.28467004 173.40698242 1011.26660156 C171.95253768 1011.25891754 170.49808409 1011.25278383 169.04362679 1011.24803925 C165.82388612 1011.23501481 162.60436953 1011.21306475 159.38472939 1011.18450165 C151.05562917 1011.11143181 142.72631771 1011.08136973 134.39696586 1011.05196619 C132.31868986 1011.04458433 130.24041576 1011.03665035 128.16214383 1011.02819967 C109.20859555 1010.95449702 90.25939865 1011.09416638 71.30712891 1011.28710938 C53.22324069 1011.47089705 35.14027071 1011.63258996 17.0553894 1011.66687012 C16.2882901 1011.66832497 15.5211908 1011.66977983 14.73084606 1011.67127877 C6.91232618 1011.68517101 -0.90618141 1011.69215889 -8.72471338 1011.69176522 C-12.67381706 1011.69173907 -16.62291865 1011.6932817 -20.57202148 1011.69580078 C-21.35634753 1011.69627291 -22.14067358 1011.69674504 -22.94876708 1011.69723147 C-35.81675308 1011.70874971 -48.68053937 1011.84906502 -61.54709437 1012.03208444 C-74.96193636 1012.21999701 -88.37232064 1012.26997002 -101.78828651 1012.19428468 C-109.24477576 1012.15604865 -116.68992895 1012.17811058 -124.14453697 1012.36186981 C-170.10635155 1013.44884169 -170.10635155 1013.44884169 -180.79013443 1004.43251038 C-188.79918463 996.41080687 -193.83775074 986.48355327 -198.19140053 976.13687897 C-200.39364589 970.92246177 -203.39413541 966.37736059 -206.625 961.75 C-264.29860524 870.38602023 -264.29860524 870.38602023 -254.24609375 825.64453125 C-249.92979359 811.39532277 -240.36654011 802.5930428 -229.078125 793.49609375 C-225.5583493 790.6418594 -222.0816739 787.74262452 -218.625 784.8125 C-218.04218262 784.32555664 -217.45936523 783.83861328 -216.85888672 783.33691406 C-210.35557028 777.80225639 -205.89951905 771.5254043 -201.4375 764.3125 C-200.37381496 762.61060393 -199.3100095 760.90878311 -198.24609375 759.20703125 C-197.70710449 758.34158691 -197.16811523 757.47614258 -196.61279297 756.58447266 C-194.0923294 752.54547367 -191.54554225 748.52322094 -189 744.5 C-187.99985898 742.91675574 -186.99985933 741.33342217 -186 739.75 C-168 711.25 -168 711.25 -166.49731445 708.87109375 C-165.50584911 707.30104461 -164.51479515 705.7307356 -163.52416992 704.16015625 C-160.89705152 699.99625803 -158.26118029 695.83821978 -155.61328125 691.6875 C-155.06091797 690.81931641 -154.50855469 689.95113281 -153.93945312 689.05664062 C-152.87695948 687.38700776 -151.81196365 685.71896384 -150.74414062 684.05273438 C-150.26783203 683.30314453 -149.79152344 682.55355469 -149.30078125 681.78125 C-148.87966064 681.12189453 -148.45854004 680.46253906 -148.0246582 679.78320312 C-146.84580837 677.86820675 -146.84580837 677.86820675 -146 675 C-146.71045995 672.72087109 -146.71045995 672.72087109 -147.9140625 670.2734375 C-148.34340088 669.33169678 -148.77273926 668.38995605 -149.21508789 667.41967773 C-149.68035889 666.41493408 -150.14562988 665.41019043 -150.625 664.375 C-160.02533283 643.47462618 -165.90774759 623.4388972 -158 601 C-153.40986723 589.61558906 -146.65697065 579.25828264 -140 569 C-141.15757812 568.89816406 -142.31515625 568.79632812 -143.5078125 568.69140625 C-150.7060819 567.88458268 -157.78575092 566.39345037 -164.875 564.9375 C-165.6213269 564.78449432 -166.36765381 564.63148865 -167.13659668 564.47384644 C-181.6855275 561.4646112 -195.88197469 557.64617988 -210 553 C-210.95229492 552.68981934 -211.90458984 552.37963867 -212.88574219 552.06005859 C-254.75668389 538.22259778 -298.5191684 513.92955979 -319.3125 473.1875 C-337.09707149 436.50905779 -334.67850384 396.27761908 -322.10498047 358.29638672 C-309.6342474 322.50994285 -291.15025414 287.96382664 -263 262 C-262.44828125 261.48953125 -261.8965625 260.9790625 -261.328125 260.453125 C-259.25346599 258.59125153 -257.13482201 256.7927031 -255 255 C-254.01 254.15953125 -253.02 253.3190625 -252 252.453125 C-235.67647825 238.8580373 -217.53368391 227.33782237 -199 217 C-198.18950195 216.54737793 -197.37900391 216.09475586 -196.54394531 215.62841797 C-184.91554058 209.16309485 -173.15149844 202.9735098 -161.33374023 196.86279297 C-151.65233853 191.84614166 -142.07237885 186.65640254 -132.52539062 181.38916016 C-130.12084914 180.06647637 -127.70996538 178.75622438 -125.296875 177.44921875 C-78.33939706 151.90009341 -47.96932183 122.13652753 -28.6875 72 C-27.91227876 70.00012026 -27.13630421 68.00053239 -26.35961914 66.0012207 C-24.73733772 61.82311773 -23.11832746 57.64377062 -21.50195312 53.46337891 C-17.73458292 43.72447171 -13.94051582 33.99599656 -10.14053345 24.26977539 C-8.94939287 21.21797056 -7.76199447 18.16472858 -6.57495117 15.11132812 C-5.85089439 13.25515149 -5.12669955 11.39902871 -4.40234375 9.54296875 C-4.0709137 8.68793259 -3.73948364 7.83289642 -3.39801025 6.95195007 C-1.11380936 1.11380936 -1.11380936 1.11380936 0 0 Z M9 111 C8.75467529 111.54712646 8.50935059 112.09425293 8.2565918 112.65795898 C0.67209371 129.42931391 -7.89477444 145.02683382 -20 159 C-20.69480469 159.804375 -21.38960938 160.60875 -22.10546875 161.4375 C-31.89219268 172.52334658 -42.15866688 182.20131632 -54 191 C-54.62583984 191.47018555 -55.25167969 191.94037109 -55.89648438 192.42480469 C-74.43478556 206.26761098 -94.81875175 217.12056088 -115.36572266 227.64453125 C-119.26037993 229.64852914 -123.12973858 231.69940599 -127 233.75 C-132.80301538 236.82072791 -138.63021859 239.84094395 -144.4765625 242.828125 C-172.96928875 257.39608894 -200.93775419 272.73259942 -224.51171875 294.703125 C-226.66563226 296.69135285 -228.8687324 298.56840258 -231.125 300.4375 C-236.06652324 304.7449785 -239.98800118 309.8407344 -244 315 C-244.7321875 315.91652344 -245.464375 316.83304688 -246.21875 317.77734375 C-260.57990091 336.209173 -271.08788418 357.73414041 -278 380 C-278.21027832 380.63454102 -278.42055664 381.26908203 -278.63720703 381.92285156 C-284.82284461 400.95482911 -285.33061265 426.46036738 -276.9375 444.875 C-276.47851318 445.89170776 -276.47851318 445.89170776 -276.01025391 446.92895508 C-267.78612639 464.49531256 -254.37389729 477.91263463 -238 488 C-237.43039551 488.36013184 -236.86079102 488.72026367 -236.27392578 489.09130859 C-217.89074923 500.59790931 -196.95631107 507.80504078 -176 513 C-174.52950195 513.3705249 -174.52950195 513.3705249 -173.02929688 513.74853516 C-159.15180312 517.1917411 -145.20776103 519.73525326 -131.0625 521.75 C-130.35671814 521.85095978 -129.65093628 521.95191956 -128.92376709 522.05593872 C-110.0820201 524.72040876 -91.25694493 526.29031609 -72.25 527.125 C-70.36586282 527.21175024 -68.48174803 527.29898797 -66.59765625 527.38671875 C-62.06534075 527.59673005 -57.53277972 527.80026998 -53 528 C-56.06012035 532.60575182 -59.12309528 537.20959772 -62.1875 541.8125 C-62.66431213 542.5288562 -63.14112427 543.2452124 -63.63238525 543.98327637 C-69.93425282 553.44740218 -76.26686812 562.89007677 -82.63671875 572.30859375 C-83.27951279 573.25946365 -83.92230682 574.21033356 -84.58457947 575.1900177 C-87.75222918 579.87499452 -90.92301984 584.55780058 -94.09838867 589.23754883 C-97.42221524 594.14298103 -100.72555955 599.06145603 -104 604 C-104.44510925 604.67098724 -104.89021851 605.34197449 -105.34881592 606.03329468 C-106.51304639 607.80352818 -107.65911605 609.58376566 -108.796875 611.37109375 C-109.4062793 612.32169678 -110.01568359 613.2722998 -110.64355469 614.25170898 C-114.16840598 621.39340283 -112.70437965 628.52100243 -110.24291992 635.79614258 C-106.40221151 646.22020133 -101.19943695 656.12784687 -95.8984375 665.87109375 C-95.56835693 666.49290527 -95.23827637 667.1147168 -94.89819336 667.75537109 C-93.99725908 669.45008915 -93.07551129 671.13369606 -92.15234375 672.81640625 C-90.65624908 676.94968475 -90.76257697 678.75428353 -92 683 C-94.02190417 686.85985981 -96.36733047 690.47967929 -98.75 694.125 C-100.13075839 696.28350241 -101.51095712 698.44236291 -102.890625 700.6015625 C-103.93186523 702.21853027 -103.93186523 702.21853027 -104.99414062 703.86816406 C-107.8833403 708.37919782 -110.69354862 712.93721074 -113.5 717.5 C-121.25440325 730.05230609 -129.08871835 742.55460348 -136.91601562 755.06152344 C-138.81941246 758.10326434 -140.72231441 761.14531415 -142.625 764.1875 C-143.24366943 765.1762915 -143.86233887 766.16508301 -144.49975586 767.18383789 C-148.10814222 772.95602178 -151.69659131 778.73988944 -155.26342773 784.5378418 C-156.89141046 787.17533051 -158.53459042 789.8028512 -160.1796875 792.4296875 C-161.8317279 795.07446282 -163.38588749 797.70612607 -164.8828125 800.4453125 C-169.99749556 809.36627132 -177.78336405 814.41810538 -185.9765625 820.3046875 C-190.41061069 823.51012438 -194.55144853 826.90643935 -198.5625 830.625 C-199.33823364 831.33366211 -199.33823364 831.33366211 -200.12963867 832.05664062 C-203.50387446 835.24453374 -206.49962395 838.4000068 -207.3984375 843.0703125 C-207.2872996 852.81340189 -203.96464231 861.83571887 -200.125 870.6875 C-199.73844238 871.57977295 -199.35188477 872.4720459 -198.95361328 873.39135742 C-190.5888142 892.2521666 -179.89388787 909.81917372 -168.8046875 927.17529297 C-166.51641672 930.75690727 -164.24443581 934.34866189 -161.97485352 937.94213867 C-160.99562004 939.49177525 -160.01453599 941.04024508 -159.03100586 942.5871582 C-158.58635986 943.28800537 -158.14171387 943.98885254 -157.68359375 944.7109375 C-157.04943542 945.67731895 -157.04943542 945.67731895 -156.40246582 946.66322327 C-155 949 -155 949 -153.90333557 951.56790161 C-152.54226551 954.50053841 -151.24313668 956.66097495 -149 959 C-144.53233737 960.50056513 -140.06208429 960.22482115 -135.40625 960.09375 C-133.8953908 960.08973073 -132.38451123 960.09091392 -130.87365723 960.09655762 C-127.33074285 960.10266831 -123.78929068 960.07947372 -120.24658203 960.04150391 C-113.20900935 959.9786469 -106.17400598 960.04855752 -99.13671875 960.12109375 C-96.40241903 960.14840694 -93.66811435 960.17519131 -90.93380737 960.20176697 C-90.23552885 960.20859055 -89.53725033 960.21541412 -88.81781185 960.22244447 C-80.67310414 960.30018347 -72.52824072 960.34710525 -64.38330078 960.39282227 C-62.83440206 960.40161726 -61.28550336 960.41041684 -59.73660469 960.41922092 C-57.38078732 960.43257633 -55.02496977 960.44589705 -52.66915166 960.45912284 C-38.07956719 960.54130565 -23.49005772 960.63640223 -8.9005456 960.73042035 C-6.46070454 960.74609525 -4.02086257 960.76162019 -1.58102036 960.77711296 C19.28755363 960.90996947 40.15552685 961.06911451 61.0234375 961.28515625 C62.15671227 961.2968774 63.28998703 961.30859856 64.45760345 961.3206749 C73.88007489 961.41886172 83.30250178 961.52078576 92.72485352 961.62988281 C93.66453035 961.64075361 94.60420719 961.65162441 95.57235909 961.66282463 C97.4310981 961.6843559 99.28983606 961.70597778 101.14857292 961.72769356 C105.57509732 961.77846641 110.00156688 961.82425992 114.42825317 961.85836792 C115.70031522 961.868203 115.70031522 961.868203 116.99807549 961.87823677 C118.70394159 961.89135707 120.40980938 961.90426036 122.11567879 961.9169445 C127.66421365 961.96370809 133.21006526 962.06165103 138.75741005 962.18469715 C142.67216848 962.26614359 146.58706034 962.32139831 150.50232315 962.37223625 C152.35141027 962.4021617 154.2003593 962.44319087 156.04891586 962.49664497 C172.19175427 962.95548628 182.16779302 959.52262482 195.36767578 949.87207031 C199.48971321 946.94053785 203.88812922 944.56399505 208.3125 942.125 C210.01747456 941.15167024 211.72056138 940.17502727 213.421875 939.1953125 C217.55193326 936.82646991 221.68864389 934.46951125 225.828125 932.1171875 C280.74467514 904.51615676 280.74467514 904.51615676 325 864 C325.28245097 860.74519457 325.28245097 860.74519457 325.1875 857.0625 C325.18105469 856.39516846 325.17460938 855.72783691 325.16796875 855.0402832 C325.09143013 850.024014 324.75538704 845.06047127 324.21875 840.07421875 C324.1465625 839.05972656 324.074375 838.04523437 324 837 C323.91282715 836.29520508 323.8256543 835.59041016 323.73583984 834.86425781 C323.1277502 826.70503886 326.54538089 821.22969441 330.625 814.375 C331.31381486 813.18264594 332.00071336 811.98918296 332.68579102 810.79467773 C334.43389103 807.75830319 336.2063634 804.73702581 337.98724365 801.7197876 C339.52065796 799.11585732 341.03522137 796.50107027 342.55078125 793.88671875 C344.82724724 789.96672024 347.11505092 786.05364282 349.41015625 782.14453125 C353.2796004 775.54032409 357.0825386 768.89858349 360.875 762.25 C361.3726889 761.37773773 361.3726889 761.37773773 361.88043213 760.487854 C363.56962014 757.5269875 365.25798894 754.56565507 366.94580078 751.60400391 C370.05832139 746.14257219 373.17448948 740.68322464 376.29205322 735.22467041 C377.30051071 733.45849756 378.30823335 731.69190686 379.31591797 729.92529297 C382.33765547 724.63328729 385.37136608 719.34944279 388.44921875 714.08984375 C389.22881958 712.75578491 389.22881958 712.75578491 390.02416992 711.39477539 C390.98004495 709.76275121 391.93961234 708.13288175 392.90356445 706.50561523 C395.1886653 702.98956475 395.1886653 702.98956475 396 699 C396.52464844 698.88785156 397.04929687 698.77570312 397.58984375 698.66015625 C421.02095978 692.69516332 443.83806889 674.41687721 461 658 C462.0041394 657.08202637 462.0041394 657.08202637 463.02856445 656.14550781 C469.15577519 650.34718268 473.42109601 644.11882318 477.6875 636.875 C478.37737463 635.72619527 479.06856283 634.57817845 479.76098633 633.4309082 C481.17009489 631.0923733 482.5723828 628.74997302 483.96875 626.40380859 C487.00788594 621.31106422 490.09888501 616.25032607 493.1875 611.1875 C493.76089111 610.24414795 494.33428223 609.3007959 494.92504883 608.32885742 C499.23260718 601.24215024 503.58590857 594.18474312 507.95678711 587.13696289 C512.39933324 579.97336566 516.82880979 572.8017926 521.25 565.625 C521.88728027 564.59205811 522.52456055 563.55911621 523.18115234 562.49487305 C524.12015381 560.96987183 524.12015381 560.96987183 525.078125 559.4140625 C525.73272705 558.39578369 526.3873291 557.37750488 527.06176758 556.32836914 C528.52735236 553.81163941 529.5870452 551.62667977 530.6315918 548.95092773 C532.43985891 544.68017573 534.24855626 540.87142487 538 538 C544.61477045 535.57055066 551.88416657 535.82233278 558.84350586 535.81600952 C562.36308922 535.81244882 565.87105037 535.72312299 569.38867188 535.60864258 C572.93525352 535.49366942 576.48113942 535.3829822 580.02859497 535.2986908 C589.7542724 535.06615655 599.34340126 534.33949984 609 533.1875 C609.70803772 533.10512085 610.41607544 533.0227417 611.14556885 532.93786621 C628.19322618 530.93203025 645.11663031 528.07467043 662 525 C663.20317871 524.7819873 664.40635742 524.56397461 665.64599609 524.33935547 C729.51705861 512.59706871 802.1271335 487.39247458 845 436 C845.74765625 435.16339844 846.4953125 434.32679688 847.265625 433.46484375 C863.55908384 414.84008813 873.74072472 392.75783317 880 369 C880.51240234 367.1746875 880.51240234 367.1746875 881.03515625 365.3125 C883.03161558 357.14094555 883.27112218 349.1980117 883.3125 340.8125 C883.31813965 339.73145996 883.3237793 338.65041992 883.32958984 337.53662109 C883.06591247 308.20586518 868.3985111 286.92323927 848.140625 266.984375 C838.54855623 258.09245724 827.82432969 250.28698755 817.48828125 242.27734375 C791.56087875 222.13737264 765.13304652 199.59669564 760.3515625 165.11328125 C759.00730398 151.61899377 759.09282194 137.90156704 762.44140625 124.73046875 C763.25252311 121.92431492 763.25252311 121.92431492 762 119 C761.5875 119.38744385 761.175 119.7748877 760.75 120.17407227 C758.8346294 121.97160268 756.91757842 123.76732501 755 125.5625 C754.3088208 126.21001221 753.6176416 126.85752441 752.90551758 127.5246582 C749.55610917 130.65242908 746.19640213 133.73798806 742.6875 136.6875 C721.46709004 155.06629998 701.7849017 184.56649743 699 213 C697.52153036 237.63924307 704.67758185 258.47004577 716 280 C718.41518268 284.60978647 720.82046271 289.2246642 723.22027588 293.84246826 C724.29174577 295.89769061 725.37178617 297.94823438 726.45263672 299.99853516 C737.60202282 321.28940022 737.60202282 321.28940022 734 332.9375 C725.99692099 351.52529642 704.5571222 361.28294834 686.87329102 368.42675781 C663.21576464 377.57892519 638.28464786 382.58097943 613.28955078 386.44091797 C610.59946698 386.89811642 607.94882443 387.42624246 605.27954102 387.98681641 C599.98710652 389.05568208 594.70120845 389.68093612 589.33203125 390.21875 C588.33531906 390.32215698 587.33860687 390.42556396 586.31169128 390.53210449 C584.20843127 390.74939143 582.10493515 390.96440387 580.0012207 391.17724609 C576.86550749 391.49463472 573.73057139 391.81891407 570.59570312 392.14453125 C551.6473684 394.09933607 532.68104652 395.9759244 513.652771 396.94247437 C511.24822626 397.06918026 508.84532396 397.21629487 506.44189453 397.36254883 C496.7455603 397.90405175 487.14454949 398.01368163 477.43734741 397.67512512 C472.63821474 397.50796622 467.83817293 397.41669101 463.03689003 397.33619213 C459.63268991 397.27248592 456.24188469 397.16386511 452.84344482 396.95217896 C438.33573708 395.64922574 438.33573708 395.64922574 425.53146362 401.13021851 C421.06139034 406.61605911 418.08259075 412.74591718 415.2578125 419.19943237 C413.64676546 422.78649021 411.70842895 425.94038077 409.58203125 429.24609375 C402.14557016 441.45325973 394.78238843 453.70028418 387.5 466 C381.51065518 476.11556383 375.48435286 486.20640374 369.375 496.25 C369.02725525 496.8217395 368.6795105 497.393479 368.32122803 497.98254395 C365.5364429 502.55961348 362.74745795 507.13411982 359.95825195 511.70849609 C357.51182882 515.72111141 355.06714645 519.73478024 352.625 523.75 C352.27741638 524.32141724 351.92983276 524.89283447 351.57171631 525.48156738 C345.81637066 534.9495781 340.14509936 544.46592738 334.5 554 C328.51061507 564.11554044 322.48435319 574.20640321 316.375 584.25 C316.02725525 584.8217395 315.6795105 585.393479 315.32122803 585.98254395 C312.5364429 590.55961348 309.74745795 595.13411982 306.95825195 599.70849609 C304.51182868 603.72111164 302.0676077 607.73506075 299.625 611.75 C299.11010513 612.59566025 299.11010513 612.59566025 298.58480835 613.45840454 C294.29261115 620.51149799 290.04667622 627.59022514 285.84765625 634.69921875 C285.41628357 635.4289389 284.98491089 636.15865906 284.54046631 636.91049194 C282.43560385 640.47255546 280.33544707 644.0372647 278.24267578 647.60644531 C277.47830793 648.90306426 276.71382786 650.19961706 275.94921875 651.49609375 C275.28237061 652.63232178 274.61552246 653.7685498 273.9284668 654.93920898 C270.93555873 659.68944173 268.19054856 663.19684065 263.39453125 666.1640625 C262.50185547 666.72327393 261.60917969 667.28248535 260.68945312 667.85864258 C259.74005859 668.44154053 258.79066406 669.02443848 257.8125 669.625 C255.81864312 670.87050597 253.82515732 672.11660615 251.83203125 673.36328125 C250.84412598 673.97768066 249.8562207 674.59208008 248.83837891 675.22509766 C244.16795478 678.14561919 239.54963303 681.14507203 234.93969727 684.15991211 C231.66343621 686.29770713 228.37403565 688.39166306 225.015625 690.3984375 C224.38011719 690.78539795 223.74460937 691.1723584 223.08984375 691.57104492 C221.3851559 692.60548462 219.6695674 693.62190268 217.953125 694.63671875 C214.18736752 697.65032096 212.29502983 700.81000339 210 705 C209.51853516 705.86246338 209.03707031 706.72492676 208.54101562 707.61352539 C206.87898887 710.62607856 205.24862832 713.65408485 203.625 716.6875 C202.71741943 718.37697754 202.71741943 718.37697754 201.79150391 720.10058594 C196.90384762 729.22114506 192.14930794 738.40856656 187.41821289 747.61105347 C182.97271528 756.25452434 178.40251928 764.81624943 173.703125 773.32421875 C168.70741159 782.42545196 163.99571787 791.66973151 159.26913452 800.9125061 C154.581205 810.07571115 149.82826329 819.18009912 144.69091797 828.10253906 C142.67189875 831.3423276 142.67189875 831.3423276 142 835 C141.31589554 834.97716446 140.63179108 834.95432892 139.92695618 834.93080139 C81.27538701 832.9791243 22.68583036 831.798431 -36 832 C-35.05096802 830.4850293 -35.05096802 830.4850293 -34.08276367 828.93945312 C-28.78861389 820.48228278 -23.5284579 812.00569069 -18.3125 803.5 C-13.07767669 794.97727058 -7.81118392 786.47539819 -2.5 778 C3.38861492 768.60302662 9.21325373 759.16825825 15.01513672 749.7175293 C19.51585628 742.39305413 24.05763111 735.09556963 28.625 727.8125 C34.27224233 718.80554365 39.83703548 709.7514847 45.34619141 700.65942383 C45.88421387 699.77150146 46.42223633 698.8835791 46.9765625 697.96875 C47.73694824 696.7003125 47.73694824 696.7003125 48.51269531 695.40625 C49.48165254 693.83861336 50.49024785 692.29458954 51.54199219 690.78125 C52.01024414 690.100625 52.47849609 689.42 52.9609375 688.71875 C53.37907715 688.14060547 53.7972168 687.56246094 54.22802734 686.96679688 C55.71532358 683.17753106 54.32071934 679.78904981 52.84838867 676.16674805 C52.3763501 675.20808838 51.90431152 674.24942871 51.41796875 673.26171875 C50.63776367 671.65973633 50.63776367 671.65973633 49.84179688 670.02539062 C49.29587891 668.92388672 48.74996094 667.82238281 48.1875 666.6875 C46.60100904 663.45136464 45.01783769 660.21387176 43.44677734 656.97021484 C42.53407564 655.09645027 41.60430824 653.23081417 40.65087891 651.37744141 C40.26722168 650.59933105 39.88356445 649.8212207 39.48828125 649.01953125 C39.14966064 648.35671143 38.81104004 647.6938916 38.4621582 647.01098633 C37.65086384 643.48080585 39.30837667 641.14772262 41.1111908 638.15602112 C42.55106537 635.88290965 44.02980658 633.63919484 45.51953125 631.3984375 C46.08109421 630.54645782 46.64265717 629.69447815 47.22123718 628.81668091 C49.08027128 625.99963612 50.9461884 623.1872277 52.8125 620.375 C54.12516655 618.39008409 55.4376639 616.40505627 56.75 614.41992188 C66.18141993 600.17133504 75.71861929 585.99532662 85.29702759 571.84527588 C94.6355397 558.04771784 103.85234072 544.17475352 113 530.25 C123.15384157 514.79715583 133.41677375 499.42837014 143.82261658 484.14439392 C154.94310623 467.80458393 165.97063854 451.40139114 177 435 C177.66040283 434.01829834 178.32080566 433.03659668 179.0012207 432.02514648 C182.9818513 426.10667188 186.9567701 420.18442682 190.92404175 414.25698853 C192.17843203 412.38417032 193.43438251 410.51239613 194.69192505 408.64169312 C196.43055434 406.05442466 198.16331332 403.46332506 199.89453125 400.87109375 C200.41488953 400.09928772 200.9352478 399.32748169 201.47137451 398.5322876 C201.93948547 397.82868103 202.40759644 397.12507446 202.88989258 396.40014648 C203.29983963 395.78815903 203.70978668 395.17617157 204.13215637 394.54563904 C205.1631949 393.00478339 205.1631949 393.00478339 205 391 C204.1517717 390.98786972 204.1517717 390.98786972 203.28640747 390.97549438 C39.63463701 388.60065709 39.63463701 388.60065709 -26 373 C-27.55074219 372.63285889 -27.55074219 372.63285889 -29.1328125 372.25830078 C-85.80859516 358.63494095 -85.80859516 358.63494095 -99.0625 337.75 C-101.05155631 329.79377476 -101.50417084 322.60050658 -97.1875 315.375 C-90.71542514 306.415669 -82.47962009 299.17035221 -73.8828125 292.3125 C-70.70554088 289.76379431 -67.60011304 287.14141121 -64.5 284.5 C-60.55394517 281.14501479 -56.5835626 277.82776817 -52.5625 274.5625 C-34.44238697 259.77271165 -16.53672415 244.40339489 -2 226 C-1.25492187 225.071875 -0.50984375 224.14375 0.2578125 223.1875 C9.24142974 211.66843677 16.59878596 198.98032695 21 185 C21.31839844 183.99710937 21.63679688 182.99421875 21.96484375 181.9609375 C27.99783021 159.10787357 23.91310412 135.60566371 13 115 C10.93506628 112.61272553 10.93506628 112.61272553 9 111 Z " fill="#CFC493" transform="translate(337,6)"/>
<path d="M0 0 C3.13191454 2.8960185 5.22144898 5.77496408 7.3203125 9.48046875 C7.93326172 10.55369385 8.54621094 11.62691895 9.17773438 12.73266602 C9.82033203 13.87276123 10.46292969 15.01285645 11.125 16.1875 C12.46920411 18.55591214 13.8167663 20.92240837 15.1640625 23.2890625 C15.66072418 24.16393059 15.66072418 24.16393059 16.16741943 25.05647278 C18.46516398 29.09452068 20.84526655 33.07370309 23.26855469 37.03710938 C38.39288508 61.91249497 45.83915534 91.4291647 39.02734375 120.27734375 C38.68832031 121.50582031 38.34929687 122.73429687 38 124 C37.81195801 124.68594238 37.62391602 125.37188477 37.43017578 126.07861328 C30.0985414 152.06304539 14.82023254 173.95216454 -4 193 C-4.74008301 193.7537793 -5.48016602 194.50755859 -6.24267578 195.28417969 C-14.27603575 203.45049456 -22.27499609 211.56750332 -31 219 C-31.53367187 219.46067871 -32.06734375 219.92135742 -32.6171875 220.39599609 C-38.68845291 225.63207132 -44.85338956 230.71114018 -51.1875 235.625 C-56.23300772 239.54281874 -61.05711685 243.61800274 -65.76171875 247.9453125 C-67.87039527 249.88102603 -70.01786328 251.75819976 -72.1875 253.625 C-73.45932539 254.74887835 -74.73016632 255.87387178 -76 257 C-76.68835938 257.58652344 -77.37671875 258.17304688 -78.0859375 258.77734375 C-78.73820313 259.36644531 -79.39046875 259.95554687 -80.0625 260.5625 C-80.65160156 261.07941406 -81.24070312 261.59632813 -81.84765625 262.12890625 C-83.26776708 264.05849726 -83.26776708 264.05849726 -82.94921875 266.9921875 C-81.24714109 272.38560231 -76.75309858 274.35938968 -72 277 C-67.75689766 278.97861972 -63.44282346 280.5304507 -59 282 C-57.24042969 282.59748047 -57.24042969 282.59748047 -55.4453125 283.20703125 C-31.78909023 290.87560524 -6.60770987 294.12441146 18 297 C19.19399414 297.14034668 20.38798828 297.28069336 21.61816406 297.42529297 C25.16100644 297.83586807 28.70492585 298.23418671 32.25 298.625 C33.2517627 298.73610107 34.25352539 298.84720215 35.28564453 298.96166992 C55.21190223 301.06271659 75.23036137 302.26981589 95.23217773 303.37768555 C98.5658033 303.56268331 101.89911363 303.75273817 105.23242188 303.94335938 C111.82057449 304.31658543 118.40990866 304.66295036 125 305 C125.93413727 305.04959869 126.86827454 305.09919739 127.83071899 305.15029907 C149.83446247 306.29305393 171.87318957 306.32468631 193.90075684 306.53222656 C199.2248814 306.58320463 204.5489613 306.63848496 209.87304688 306.69335938 C220.24865944 306.79968691 230.62431141 306.90138946 241 307 C237.87363672 312.81049193 234.54658766 318.37167885 230.81640625 323.8125 C230.32891403 324.53051788 229.84142181 325.24853577 229.3391571 325.98831177 C228.29423817 327.52668555 227.24767215 329.06394167 226.19958496 330.60015869 C223.3712402 334.74629574 220.55561409 338.90106361 217.73828125 343.0546875 C217.16572601 343.89812714 216.59317078 344.74156677 216.00326538 345.61056519 C210.7065327 353.41853273 205.47107926 361.26632889 200.25 369.125 C194.26497204 378.12979291 188.25594425 387.1174514 182.19921875 396.07421875 C181.61046967 396.9448999 181.02172058 397.81558105 180.41513062 398.71264648 C179.20349206 400.50430714 177.99183206 402.29595329 176.78015137 404.08758545 C165.63454764 420.56971458 154.61075917 437.12570614 143.68942261 453.75723267 C134.13710947 468.2993465 124.45632544 482.74912974 114.70159912 497.15609741 C103.9867034 512.98663388 93.43605575 528.92099087 82.95654297 544.90820312 C77.98012039 552.49344832 73.00603053 560.07274104 67.8125 567.51171875 C67.08595215 568.55481201 66.3594043 569.59790527 65.61083984 570.67260742 C64.34183917 572.47938107 63.06192837 574.27857275 61.76806641 576.06762695 C61.23874512 576.81874756 60.70942383 577.56986816 60.1640625 578.34375 C59.71498535 578.96443359 59.2659082 579.58511719 58.80322266 580.22460938 C57.83940958 581.96060786 57.83940958 581.96060786 58.18530273 583.85961914 C59.24406156 586.64120099 60.52255907 589.24838955 61.87109375 591.90234375 C62.73250977 593.60874023 62.73250977 593.60874023 63.61132812 595.34960938 C64.21976589 596.54571854 64.82849251 597.74168082 65.4375 598.9375 C66.62635406 601.27862309 67.81177955 603.62141353 68.99609375 605.96484375 C69.52388428 607.0024585 70.0516748 608.04007324 70.59545898 609.10913086 C74 616.11646098 74 616.11646098 74 620 C73.34 620.33 72.68 620.66 72 621 C72.33 621.99 72.66 622.98 73 624 C71.79101563 626.51416016 71.79101563 626.51416016 69.90625 629.5390625 C69.56851562 630.08795135 69.23078125 630.63684021 68.8828125 631.20236206 C67.76439026 633.0157703 66.63210539 634.82010865 65.5 636.625 C64.71434103 637.89446897 63.92984949 639.16466113 63.14648438 640.43554688 C61.54124053 643.03895785 59.93198394 645.63982184 58.3203125 648.23925781 C54.9888858 653.62472156 51.74475278 659.06202655 48.5 664.5 C41.47655811 676.23219189 34.38447795 687.92206658 27.27961731 699.60502625 C24.65893054 703.91471083 22.04162021 708.22643399 19.42578125 712.5390625 C18.66651009 713.79061248 17.90723281 715.04215874 17.14794922 716.29370117 C15.72607826 718.63741938 14.30457864 720.98136138 12.88330078 723.32543945 C11.90272705 724.94131958 11.90272705 724.94131958 10.90234375 726.58984375 C10.2666748 727.63769043 9.63100586 728.68553711 8.97607422 729.76513672 C7.5807891 732.04923948 6.17769588 734.32666518 4.76220703 736.59814453 C4.3949501 737.18906387 4.02769318 737.77998322 3.64930725 738.3888092 C2.62489229 740.03492593 1.5968565 741.67878774 0.56860352 743.32250977 C-1.10286648 745.96410351 -1.10286648 745.96410351 -2 749 C-1.11296387 748.99476318 -0.22592773 748.98952637 0.68798828 748.98413086 C26.42106419 748.85629078 52.13970332 749.17049808 77.86767578 749.64428711 C93.24721629 749.92277869 108.6178972 750.07066982 124 750 C124.37584229 749.29842773 124.75168457 748.59685547 125.13891602 747.87402344 C125.67186279 746.87918945 126.20480957 745.88435547 126.75390625 744.859375 C127.35340088 743.74030762 127.95289551 742.62124023 128.57055664 741.46826172 C129.9173516 738.95423888 131.26420045 736.44024492 132.61108398 733.92626953 C136.02283786 727.55808003 139.43408016 721.18961813 142.84375 714.8203125 C148.88315209 703.54001547 154.93023163 692.26399062 161 681 C170.14735534 664.02337076 179.2851215 647.04080548 188.3125 630 C188.66739502 629.33025146 189.02229004 628.66050293 189.38793945 627.97045898 C191.21729191 624.54323654 191.21729191 624.54323654 192.81030273 621.00341797 C194.36580466 618.38399486 196.07232283 617.39640736 198.671875 615.8203125 C199.63601318 615.22790771 200.60015137 614.63550293 201.59350586 614.02514648 C202.63514893 613.39809814 203.67679199 612.7710498 204.75 612.125 C206.93413985 610.78604665 209.11772089 609.4461814 211.30078125 608.10546875 C212.41404785 607.42532715 213.52731445 606.74518555 214.67431641 606.04443359 C219.79630747 602.8957364 224.86874037 599.67095865 229.9375 596.4375 C230.81696289 595.87885254 231.69642578 595.32020508 232.60253906 594.74462891 C234.27951185 593.67685133 235.95040123 592.59944825 237.61450195 591.51171875 C240 590 240 590 242.32885742 588.75390625 C249.97153651 584.41903187 253.35799095 577.56809167 257.4375 570.125 C258.18850123 568.79331193 258.94194138 567.46299648 259.69775391 566.1340332 C261.16743964 563.5486758 262.62959901 560.95932085 264.08642578 558.36669922 C266.24580013 554.5675448 268.50996412 550.86067316 270.875 547.1875 C275.78385276 539.48281973 280.41173058 531.61176962 285.0625 523.75 C291.19671467 513.38379165 297.36388353 503.04012473 303.625 492.75 C304.14566544 491.89402222 304.14566544 491.89402222 304.67684937 491.02075195 C307.46227778 486.44258514 310.25187996 481.86696603 313.04174805 477.29150391 C315.48817118 473.27888859 317.93285355 469.26521976 320.375 465.25 C320.72258362 464.67858276 321.07016724 464.10716553 321.42828369 463.51843262 C327.59166378 453.37917213 333.65609186 443.18273822 339.70040894 432.97216797 C346.76629109 421.03853409 353.93932167 409.17323847 361.15234375 397.328125 C364.45768577 391.89890423 367.73702389 386.45476184 371 381 C374.29104591 375.50129597 377.59543288 370.01099643 380.91796875 364.53125 C381.26042633 363.9621138 381.60288391 363.3929776 381.95571899 362.80659485 C383.75189952 359.8288013 385.57923368 356.88011422 387.4765625 353.96557617 C391.0172657 348.45434094 394.07933136 343.32485162 395.97877502 337.0211792 C398.41660539 328.93228107 401.37160645 320.91105631 408.67993164 316.06121826 C423.81858673 309.13667348 446.81987351 312.8421666 463.20133972 313.54095459 C476.77434267 314.11502845 490.2415571 313.79455897 503.8125 313.1875 C505.98125847 313.10128012 508.15004103 313.01566407 510.31884766 312.93066406 C530.4387718 312.10255685 550.45726044 310.39347336 570.47808838 308.26751709 C572.99986278 308.00001456 575.52209092 307.73718229 578.04443359 307.47509766 C582.80221467 306.9782097 587.55771433 306.46220449 592.3125 305.9375 C593.01240051 305.86154602 593.71230103 305.78559204 594.43341064 305.70733643 C602.86411936 304.78238593 611.11948136 303.4783813 619.42114258 301.74291992 C622.75670247 301.05050511 626.09574945 300.42293217 629.44921875 299.82421875 C654.82319156 295.23786216 687.12865842 289.13940041 706 270 C708.51412884 266.22880674 708.38859523 264.48272356 708 260 C707.022547 257.32925343 706.01675015 254.95942903 704.75 252.4375 C704.399375 251.71353027 704.04875 250.98956055 703.6875 250.24365234 C700.66055654 244.09258188 697.32876308 238.11614438 694 232.125 C681.71541177 209.95351981 672.56545644 186.88089202 672.6875 161.25 C672.69595947 159.39121216 672.69595947 159.39121216 672.70458984 157.49487305 C672.8223795 148.61574848 673.42224426 140.54369802 676 132 C676.19335938 131.34596191 676.38671875 130.69192383 676.5859375 130.01806641 C691.12171793 81.95802076 731.24709725 48.1889316 771.21020508 20.9777832 C774.51693674 18.7231745 777.79678979 16.4403586 781.0390625 14.09375 C781.68456055 13.62670654 782.33005859 13.15966309 782.99511719 12.6784668 C784.22018782 11.78830183 785.44235282 10.89411995 786.66113281 9.99536133 C790.78227985 7 790.78227985 7 793 7 C790.79777306 18.5037381 788.05912088 29.82096732 785 41.125 C777.20877171 69.94695555 770.46211002 95.83795319 785.4921875 123.7734375 C791.803268 134.31203605 800.48417108 143.29519695 810 151 C810.52577637 151.42748535 811.05155273 151.8549707 811.59326172 152.29541016 C818.23851539 157.68863306 824.95081419 162.98980916 831.75 168.1875 C840.34507821 174.76419516 848.6625293 181.58084162 856.65625 188.87890625 C858.79924312 190.81831503 860.98344638 192.69329299 863.1875 194.5625 C883.93144997 212.73420017 898.01644491 239.48721764 900 267 C900.76631158 285.26064425 899.05654524 302.41308901 894 320 C893.79922852 320.69963867 893.59845703 321.39927734 893.39160156 322.12011719 C885.23525821 349.83157649 870.69716889 373.05544045 851 394 C850.4755127 394.55848633 849.95102539 395.11697266 849.41064453 395.69238281 C806.47626698 441.0289394 744.66015693 465.01328271 685 479 C683.5358238 479.37513622 682.07231931 479.7529006 680.609375 480.1328125 C637.15117044 491.23181853 589.8354009 497.09354636 545 496 C544.72542969 496.72727295 544.45085938 497.4545459 544.16796875 498.20385742 C543.05273684 500.87374685 541.78656646 503.25180374 540.3125 505.73828125 C539.78422607 506.63192383 539.25595215 507.52556641 538.71166992 508.44628906 C538.14681885 509.39213867 537.58196777 510.33798828 537 511.3125 C536.41259033 512.30088867 535.82518066 513.28927734 535.2199707 514.30761719 C531.15589832 521.1229156 527.00084594 527.87370811 522.76953125 534.5859375 C519.26281795 540.1564228 515.82208483 545.76749975 512.375 551.375 C511.69856445 552.47424805 511.02212891 553.57349609 510.32519531 554.70605469 C507.12417049 559.90978738 503.92715052 565.11586309 500.74267578 570.32974243 C499.66816696 572.08845093 498.59234519 573.8463494 497.51611328 575.60400391 C496.17200386 577.79998253 494.83036174 579.99747407 493.49169922 582.19677734 C478.8479626 606.09844402 460.12596943 623.18946118 436.875 638.5 C436.18543213 638.95737549 435.49586426 639.41475098 434.78540039 639.88598633 C430.81492028 642.44052481 426.85105046 644.57482418 422.52734375 646.4765625 C406.82469549 653.59136214 400.93033888 662.37062426 393.62109375 677.71289062 C391.02637201 682.97423603 388.01038944 687.96882428 385 693 C380.22832796 701.10971464 375.57561164 709.27820781 371 717.5 C366.89980861 724.86745046 362.75112235 732.20060426 358.49243164 739.4777832 C357.2998175 741.51601933 356.11269544 743.55748006 354.93139648 745.60229492 C352.41832655 749.94285579 349.88687487 754.2289005 347.0859375 758.390625 C340.70258902 768.1236867 340.31843867 775.25760476 341.73046875 786.68798828 C343.23692629 799.61022822 341.93958721 809.21109077 333.8671875 819.796875 C322.77940011 832.75092363 308.52612971 841.45658677 294.06494141 850.15332031 C290.7687637 852.13932383 287.48307854 854.14217176 284.19921875 856.1484375 C270.75004944 864.35805738 257.2384642 872.45648232 243.65332031 880.43945312 C239.09777623 883.11879043 234.54935554 885.81017344 230 888.5 C228.164082 889.58466842 226.32814453 890.66930389 224.4921875 891.75390625 C219.94374908 894.44147308 215.39649363 897.13101534 210.85327148 899.82739258 C209.03222734 900.9020938 207.20616702 901.96833958 205.37524414 903.02612305 C199.64872262 906.34795982 194.17151823 909.87106507 188.7902832 913.72998047 C179.34742428 919.59523836 172.06132632 922.93044806 160.85253906 922.41186523 C158.95840604 922.36957536 157.0642679 922.32743537 155.17006516 922.28839272 C153.02931117 922.24043162 150.88920612 922.17871713 148.74882507 922.11640549 C143.54061127 921.97617126 138.33302725 921.93609772 133.12316895 921.90505981 C131.67184055 921.89632669 131.67184055 921.89632669 130.19119239 921.88741714 C128.16410447 921.87547051 126.13701556 921.86369223 124.10992575 921.85207093 C118.69899496 921.81793967 113.28820049 921.76899011 107.87738037 921.72071838 C105.58483635 921.70053324 103.29229231 921.68035163 100.99974823 921.66017342 C99.26008175 921.6447789 99.26008175 921.6447789 97.4852705 921.62907338 C92.64257967 921.58637718 87.79988192 921.54449656 82.95718408 921.50260442 C71.44556708 921.40301359 59.93396169 921.30215472 48.42236328 921.20043945 C38.0672311 921.10895864 27.71208836 921.01881876 17.35693359 920.92993164 C16.09485691 920.91904876 14.83278022 920.90816589 13.53245878 920.89695323 C7.19413356 920.84232121 0.85580414 920.7883162 -5.48253632 920.73547935 C-17.93577642 920.63052588 -30.38862307 920.51137628 -42.84143066 920.36343384 C-47.68008004 920.30752161 -52.51874387 920.25308236 -57.35742188 920.19970703 C-59.12306535 920.17997609 -59.12306535 920.17997609 -60.9243784 920.15984654 C-76.30866012 919.99498923 -91.67467872 920.03904813 -107.05744791 920.29782832 C-112.77467738 920.38511815 -118.49242173 920.4276503 -124.21015429 920.46788377 C-128.57580612 920.50347498 -132.93520554 920.57243144 -137.29846954 920.72447395 C-162.4329181 921.58526618 -162.4329181 921.58526618 -168.4187355 917.24700546 C-172.23929137 913.05145656 -174.41633774 908.44463413 -176.23396683 903.11350632 C-177.25996667 900.28274489 -178.77802886 897.90648953 -180.4609375 895.421875 C-188.17212415 883.06190039 -195.67333755 870.59167191 -203 858 C-203.54156738 857.07461426 -204.08313477 856.14922852 -204.64111328 855.19580078 C-237.22274739 799.37060114 -237.22274739 799.37060114 -235 776 C-231.24010231 761.86640868 -216.90379219 752.24801166 -206.12890625 743.53125 C-205.67298096 743.15589111 -205.21705566 742.78053223 -204.74731445 742.39379883 C-203.34890361 741.27831364 -201.91797612 740.20363964 -200.47729492 739.14331055 C-193.1579528 733.56261928 -188.72813812 727.75965475 -184.1875 719.8125 C-183.50638758 718.65824842 -182.82282477 717.50543968 -182.13696289 716.35400391 C-181.09175625 714.59839018 -180.04815948 712.84202763 -179.01231384 711.08087158 C-175.78447763 705.59331389 -172.3821869 700.22806403 -168.9375 694.875 C-163.3876723 686.20275179 -157.91332566 677.48557779 -152.46459961 668.74951172 C-149.13803594 663.41749921 -145.8035425 658.09095374 -142.44262695 652.78051758 C-141.48866617 651.27248785 -140.5366463 649.7632284 -139.58666992 648.25268555 C-136.72163591 643.69976964 -133.81771731 639.17484704 -130.88671875 634.6640625 C-129.48677706 632.4845048 -128.08703525 630.3048187 -126.6875 628.125 C-126.01009766 627.09568359 -125.33269531 626.06636719 -124.63476562 625.00585938 C-123.70760742 623.55276367 -123.70760742 623.55276367 -122.76171875 622.0703125 C-122.20444092 621.21195801 -121.64716309 620.35360352 -121.07299805 619.46923828 C-119.74362291 616.41001186 -119.97788471 615.14025219 -121 612 C-121.70173378 610.28814871 -122.45873498 608.59832174 -123.2578125 606.9296875 C-123.94460083 605.475625 -123.94460083 605.475625 -124.64526367 603.9921875 C-125.13357666 602.96351563 -125.62188965 601.93484375 -126.125 600.875 C-143.08332339 564.24303061 -143.08332339 564.24303061 -136.95996094 546.36965942 C-135.42414733 542.57851018 -133.26368026 539.340482 -130.94921875 535.984375 C-130.4579953 535.25392975 -129.96677185 534.5234845 -129.46066284 533.77090454 C-127.87921872 531.42393923 -126.28355192 529.08704927 -124.6875 526.75 C-123.59717908 525.13693756 -122.50790916 523.52316423 -121.41967773 521.90869141 C-119.27337014 518.72706354 -117.12206524 515.54892464 -114.96582031 512.37402344 C-111.13356403 506.72837349 -107.34450577 501.05442754 -103.5625 495.375 C-102.99684326 494.5303418 -102.43118652 493.68568359 -101.84838867 492.81542969 C-101.34283447 492.05907227 -100.83728027 491.30271484 -100.31640625 490.5234375 C-99.88787354 489.88325684 -99.45934082 489.24307617 -99.01782227 488.58349609 C-97.93879675 486.96711005 -97.93879675 486.96711005 -97 485 C-98.26585937 485.02707031 -99.53171875 485.05414062 -100.8359375 485.08203125 C-106.1771574 485.07890529 -111.3432924 484.43303475 -116.625 483.6875 C-118.66919977 483.40703368 -120.71347278 483.12710068 -122.7578125 482.84765625 C-123.79454102 482.70473145 -124.83126953 482.56180664 -125.89941406 482.41455078 C-128.86523109 482.01801871 -131.83277784 481.65617665 -134.8046875 481.30859375 C-147.54682098 479.79707398 -159.94685611 477.50978515 -172.43994141 474.58789062 C-174.67779217 474.07399165 -176.91779781 473.5967184 -179.16796875 473.140625 C-212.34882862 466.08511618 -245.82061128 452.89427139 -272 431 C-272.51401367 430.57106445 -273.02802734 430.14212891 -273.55761719 429.70019531 C-291.66985355 414.40062934 -306.20371161 392.39054557 -308.83007812 368.35522461 C-309.97615097 352.46993047 -309.75389033 336.50519918 -306 321 C-305.74476563 319.81664062 -305.48953125 318.63328125 -305.2265625 317.4140625 C-294.97460778 274.05487787 -267.25622707 233.00941158 -232 206 C-231.36449219 205.5045166 -230.72898437 205.0090332 -230.07421875 204.49853516 C-217.65879352 194.85584984 -204.57974402 186.63930457 -190.99780273 178.74316406 C-188.94384531 177.54882772 -186.89406658 176.34728428 -184.84790039 175.13964844 C-179.41739401 171.9403857 -173.98833948 168.86484908 -168.3125 166.125 C-162.65461245 163.34539827 -157.05974038 160.47100415 -151.5 157.5 C-146.07935686 154.60697743 -140.63104745 151.78943522 -135.125 149.0625 C-108.57736086 135.86092784 -82.46254826 121.58105519 -60 102 C-59.47954102 101.54657227 -58.95908203 101.09314453 -58.42285156 100.62597656 C-50.84086821 93.96895071 -44.08830973 87.08501346 -38 79 C-37.5968457 78.47712402 -37.19369141 77.95424805 -36.77832031 77.41552734 C-19.37212168 54.75803512 -10.41734621 26.31911881 0 0 Z M4 49 C3.75467529 49.54712646 3.50935059 50.09425293 3.2565918 50.65795898 C-4.32790629 67.42931391 -12.89477444 83.02683382 -25 97 C-25.69480469 97.804375 -26.38960938 98.60875 -27.10546875 99.4375 C-36.89219268 110.52334658 -47.15866688 120.20131632 -59 129 C-59.62583984 129.47018555 -60.25167969 129.94037109 -60.89648438 130.42480469 C-79.43478556 144.26761098 -99.81875175 155.12056088 -120.36572266 165.64453125 C-124.26037993 167.64852914 -128.12973858 169.69940599 -132 171.75 C-137.80301538 174.82072791 -143.63021859 177.84094395 -149.4765625 180.828125 C-177.96928875 195.39608894 -205.93775419 210.73259942 -229.51171875 232.703125 C-231.66563226 234.69135285 -233.8687324 236.56840258 -236.125 238.4375 C-241.06652324 242.7449785 -244.98800118 247.8407344 -249 253 C-249.7321875 253.91652344 -250.464375 254.83304688 -251.21875 255.77734375 C-265.57990091 274.209173 -276.08788418 295.73414041 -283 318 C-283.21027832 318.63454102 -283.42055664 319.26908203 -283.63720703 319.92285156 C-289.82284461 338.95482911 -290.33061265 364.46036738 -281.9375 382.875 C-281.47851318 383.89170776 -281.47851318 383.89170776 -281.01025391 384.92895508 C-272.78612639 402.49531256 -259.37389729 415.91263463 -243 426 C-242.43039551 426.36013184 -241.86079102 426.72026367 -241.27392578 427.09130859 C-222.89074923 438.59790931 -201.95631107 445.80504078 -181 451 C-179.52950195 451.3705249 -179.52950195 451.3705249 -178.02929688 451.74853516 C-164.15180312 455.1917411 -150.20776103 457.73525326 -136.0625 459.75 C-135.35671814 459.85095978 -134.65093628 459.95191956 -133.92376709 460.05593872 C-115.0820201 462.72040876 -96.25694493 464.29031609 -77.25 465.125 C-75.36586282 465.21175024 -73.48174803 465.29898797 -71.59765625 465.38671875 C-67.06534075 465.59673005 -62.53277972 465.80026998 -58 466 C-61.06012035 470.60575182 -64.12309528 475.20959772 -67.1875 479.8125 C-67.66431213 480.5288562 -68.14112427 481.2452124 -68.63238525 481.98327637 C-74.93425282 491.44740218 -81.26686812 500.89007677 -87.63671875 510.30859375 C-88.27951279 511.25946365 -88.92230682 512.21033356 -89.58457947 513.1900177 C-92.75222918 517.87499452 -95.92301984 522.55780058 -99.09838867 527.23754883 C-102.42221524 532.14298103 -105.72555955 537.06145603 -109 542 C-109.44510925 542.67098724 -109.89021851 543.34197449 -110.34881592 544.03329468 C-111.51304639 545.80352818 -112.65911605 547.58376566 -113.796875 549.37109375 C-114.4062793 550.32169678 -115.01568359 551.2722998 -115.64355469 552.25170898 C-119.16840598 559.39340283 -117.70437965 566.52100243 -115.24291992 573.79614258 C-111.40221151 584.22020133 -106.19943695 594.12784687 -100.8984375 603.87109375 C-100.56835693 604.49290527 -100.23827637 605.1147168 -99.89819336 605.75537109 C-98.99725908 607.45008915 -98.07551129 609.13369606 -97.15234375 610.81640625 C-95.65624908 614.94968475 -95.76257697 616.75428353 -97 621 C-99.02190417 624.85985981 -101.36733047 628.47967929 -103.75 632.125 C-105.13075839 634.28350241 -106.51095712 636.44236291 -107.890625 638.6015625 C-108.93186523 640.21853027 -108.93186523 640.21853027 -109.99414062 641.86816406 C-112.8833403 646.37919782 -115.69354862 650.93721074 -118.5 655.5 C-126.25440325 668.05230609 -134.08871835 680.55460348 -141.91601562 693.06152344 C-143.81941246 696.10326434 -145.72231441 699.14531415 -147.625 702.1875 C-148.24366943 703.1762915 -148.86233887 704.16508301 -149.49975586 705.18383789 C-153.10814222 710.95602178 -156.69659131 716.73988944 -160.26342773 722.5378418 C-161.89141046 725.17533051 -163.53459042 727.8028512 -165.1796875 730.4296875 C-166.8317279 733.07446282 -168.38588749 735.70612607 -169.8828125 738.4453125 C-174.99749556 747.36627132 -182.78336405 752.41810538 -190.9765625 758.3046875 C-195.41061069 761.51012438 -199.55144853 764.90643935 -203.5625 768.625 C-204.33823364 769.33366211 -204.33823364 769.33366211 -205.12963867 770.05664062 C-208.50387446 773.24453374 -211.49962395 776.4000068 -212.3984375 781.0703125 C-212.2872996 790.81340189 -208.96464231 799.83571887 -205.125 808.6875 C-204.73844238 809.57977295 -204.35188477 810.4720459 -203.95361328 811.39135742 C-195.5888142 830.2521666 -184.89388787 847.81917372 -173.8046875 865.17529297 C-171.51641672 868.75690727 -169.24443581 872.34866189 -166.97485352 875.94213867 C-165.99562004 877.49177525 -165.01453599 879.04024508 -164.03100586 880.5871582 C-163.58635986 881.28800537 -163.14171387 881.98885254 -162.68359375 882.7109375 C-162.04943542 883.67731895 -162.04943542 883.67731895 -161.40246582 884.66322327 C-160 887 -160 887 -158.90333557 889.56790161 C-157.54226551 892.50053841 -156.24313668 894.66097495 -154 897 C-149.53233737 898.50056513 -145.06208429 898.22482115 -140.40625 898.09375 C-138.8953908 898.08973073 -137.38451123 898.09091392 -135.87365723 898.09655762 C-132.33074285 898.10266831 -128.78929068 898.07947372 -125.24658203 898.04150391 C-118.20900935 897.9786469 -111.17400598 898.04855752 -104.13671875 898.12109375 C-101.40241903 898.14840694 -98.66811435 898.17519131 -95.93380737 898.20176697 C-95.23552885 898.20859055 -94.53725033 898.21541412 -93.81781185 898.22244447 C-85.67310414 898.30018347 -77.52824072 898.34710525 -69.38330078 898.39282227 C-67.83440206 898.40161726 -66.28550336 898.41041684 -64.73660469 898.41922092 C-62.38078732 898.43257633 -60.02496977 898.44589705 -57.66915166 898.45912284 C-43.07956719 898.54130565 -28.49005772 898.63640223 -13.9005456 898.73042035 C-11.46070454 898.74609525 -9.02086257 898.76162019 -6.58102036 898.77711296 C14.28755363 898.90996947 35.15552685 899.06911451 56.0234375 899.28515625 C57.15671227 899.2968774 58.28998703 899.30859856 59.45760345 899.3206749 C68.88007489 899.41886172 78.30250178 899.52078576 87.72485352 899.62988281 C88.66453035 899.64075361 89.60420719 899.65162441 90.57235909 899.66282463 C92.4310981 899.6843559 94.28983606 899.70597778 96.14857292 899.72769356 C100.57509732 899.77846641 105.00156688 899.82425992 109.42825317 899.85836792 C110.70031522 899.868203 110.70031522 899.868203 111.99807549 899.87823677 C113.70394159 899.89135707 115.40980938 899.90426036 117.11567879 899.9169445 C122.66421365 899.96370809 128.21006526 900.06165103 133.75741005 900.18469715 C137.67216848 900.26614359 141.58706034 900.32139831 145.50232315 900.37223625 C147.35141027 900.4021617 149.2003593 900.44319087 151.04891586 900.49664497 C167.19175427 900.95548628 177.16779302 897.52262482 190.36767578 887.87207031 C194.48971321 884.94053785 198.88812922 882.56399505 203.3125 880.125 C205.01747456 879.15167024 206.72056138 878.17502727 208.421875 877.1953125 C212.55193326 874.82646991 216.68864389 872.46951125 220.828125 870.1171875 C275.74467514 842.51615676 275.74467514 842.51615676 320 802 C320.28245097 798.74519457 320.28245097 798.74519457 320.1875 795.0625 C320.18105469 794.39516846 320.17460938 793.72783691 320.16796875 793.0402832 C320.09143013 788.024014 319.75538704 783.06047127 319.21875 778.07421875 C319.1465625 777.05972656 319.074375 776.04523437 319 775 C318.91282715 774.29520508 318.8256543 773.59041016 318.73583984 772.86425781 C318.1277502 764.70503886 321.54538089 759.22969441 325.625 752.375 C326.31381486 751.18264594 327.00071336 749.98918296 327.68579102 748.79467773 C329.43389103 745.75830319 331.2063634 742.73702581 332.98724365 739.7197876 C334.52065796 737.11585732 336.03522137 734.50107027 337.55078125 731.88671875 C339.82724724 727.96672024 342.11505092 724.05364282 344.41015625 720.14453125 C348.2796004 713.54032409 352.0825386 706.89858349 355.875 700.25 C356.3726889 699.37773773 356.3726889 699.37773773 356.88043213 698.487854 C358.56962014 695.5269875 360.25798894 692.56565507 361.94580078 689.60400391 C365.05832139 684.14257219 368.17448948 678.68322464 371.29205322 673.22467041 C372.30051071 671.45849756 373.30823335 669.69190686 374.31591797 667.92529297 C377.33765547 662.63328729 380.37136608 657.34944279 383.44921875 652.08984375 C384.22881958 650.75578491 384.22881958 650.75578491 385.02416992 649.39477539 C385.98004495 647.76275121 386.93961234 646.13288175 387.90356445 644.50561523 C390.1886653 640.98956475 390.1886653 640.98956475 391 637 C391.52464844 636.88785156 392.04929687 636.77570312 392.58984375 636.66015625 C416.02095978 630.69516332 438.83806889 612.41687721 456 596 C457.0041394 595.08202637 457.0041394 595.08202637 458.02856445 594.14550781 C464.15577519 588.34718268 468.42109601 582.11882318 472.6875 574.875 C473.37737463 573.72619527 474.06856283 572.57817845 474.76098633 571.4309082 C476.17009489 569.0923733 477.5723828 566.74997302 478.96875 564.40380859 C482.00788594 559.31106422 485.09888501 554.25032607 488.1875 549.1875 C488.76089111 548.24414795 489.33428223 547.3007959 489.92504883 546.32885742 C494.23260718 539.24215024 498.58590857 532.18474312 502.95678711 525.13696289 C507.39933324 517.97336566 511.82880979 510.8017926 516.25 503.625 C516.88728027 502.59205811 517.52456055 501.55911621 518.18115234 500.49487305 C519.12015381 498.96987183 519.12015381 498.96987183 520.078125 497.4140625 C520.73272705 496.39578369 521.3873291 495.37750488 522.06176758 494.32836914 C523.52735236 491.81163941 524.5870452 489.62667977 525.6315918 486.95092773 C527.43985891 482.68017573 529.24855626 478.87142487 533 476 C539.61477045 473.57055066 546.88416657 473.82233278 553.84350586 473.81600952 C557.36308922 473.81244882 560.87105037 473.72312299 564.38867188 473.60864258 C567.93525352 473.49366942 571.48113942 473.3829822 575.02859497 473.2986908 C584.7542724 473.06615655 594.34340126 472.33949984 604 471.1875 C604.70803772 471.10512085 605.41607544 471.0227417 606.14556885 470.93786621 C623.19322618 468.93203025 640.11663031 466.07467043 657 463 C658.20317871 462.7819873 659.40635742 462.56397461 660.64599609 462.33935547 C724.51705861 450.59706871 797.1271335 425.39247458 840 374 C840.74765625 373.16339844 841.4953125 372.32679688 842.265625 371.46484375 C858.55908384 352.84008813 868.74072472 330.75783317 875 307 C875.51240234 305.1746875 875.51240234 305.1746875 876.03515625 303.3125 C878.03161558 295.14094555 878.27112218 287.1980117 878.3125 278.8125 C878.31813965 277.73145996 878.3237793 276.65041992 878.32958984 275.53662109 C878.06591247 246.20586518 863.3985111 224.92323927 843.140625 204.984375 C833.54855623 196.09245724 822.82432969 188.28698755 812.48828125 180.27734375 C786.56087875 160.13737264 760.13304652 137.59669564 755.3515625 103.11328125 C754.00730398 89.61899377 754.09282194 75.90156704 757.44140625 62.73046875 C758.25252311 59.92431492 758.25252311 59.92431492 757 57 C756.5875 57.38744385 756.175 57.7748877 755.75 58.17407227 C753.8346294 59.97160268 751.91757842 61.76732501 750 63.5625 C749.3088208 64.21001221 748.6176416 64.85752441 747.90551758 65.5246582 C744.55610917 68.65242908 741.19640213 71.73798806 737.6875 74.6875 C716.46709004 93.06629998 696.7849017 122.56649743 694 151 C692.52153036 175.63924307 699.67758185 196.47004577 711 218 C713.41518268 222.60978647 715.82046271 227.2246642 718.22027588 231.84246826 C719.29174577 233.89769061 720.37178617 235.94823438 721.45263672 237.99853516 C732.60202282 259.28940022 732.60202282 259.28940022 729 270.9375 C720.99692099 289.52529642 699.5571222 299.28294834 681.87329102 306.42675781 C658.21576464 315.57892519 633.28464786 320.58097943 608.28955078 324.44091797 C605.59946698 324.89811642 602.94882443 325.42624246 600.27954102 325.98681641 C594.98710652 327.05568208 589.70120845 327.68093612 584.33203125 328.21875 C583.33531906 328.32215698 582.33860687 328.42556396 581.31169128 328.53210449 C579.20843127 328.74939143 577.10493515 328.96440387 575.0012207 329.17724609 C571.86550749 329.49463472 568.73057139 329.81891407 565.59570312 330.14453125 C546.6473684 332.09933607 527.68104652 333.9759244 508.652771 334.94247437 C506.24822626 335.06918026 503.84532396 335.21629487 501.44189453 335.36254883 C491.7455603 335.90405175 482.14454949 336.01368163 472.43734741 335.67512512 C467.63821474 335.50796622 462.83817293 335.41669101 458.03689003 335.33619213 C454.63268991 335.27248592 451.24188469 335.16386511 447.84344482 334.95217896 C433.33573708 333.64922574 433.33573708 333.64922574 420.53146362 339.13021851 C416.06139034 344.61605911 413.08259075 350.74591718 410.2578125 357.19943237 C408.64676546 360.78649021 406.70842895 363.94038077 404.58203125 367.24609375 C397.14557016 379.45325973 389.78238843 391.70028418 382.5 404 C376.51065518 414.11556383 370.48435286 424.20640374 364.375 434.25 C364.02725525 434.8217395 363.6795105 435.393479 363.32122803 435.98254395 C360.5364429 440.55961348 357.74745795 445.13411982 354.95825195 449.70849609 C352.51182882 453.72111141 350.06714645 457.73478024 347.625 461.75 C347.27741638 462.32141724 346.92983276 462.89283447 346.57171631 463.48156738 C340.81637066 472.9495781 335.14509936 482.46592738 329.5 492 C323.51061507 502.11554044 317.48435319 512.20640321 311.375 522.25 C311.02725525 522.8217395 310.6795105 523.393479 310.32122803 523.98254395 C307.5364429 528.55961348 304.74745795 533.13411982 301.95825195 537.70849609 C299.51182868 541.72111164 297.0676077 545.73506075 294.625 549.75 C294.11010513 550.59566025 294.11010513 550.59566025 293.58480835 551.45840454 C289.29261115 558.51149799 285.04667622 565.59022514 280.84765625 572.69921875 C280.41628357 573.4289389 279.98491089 574.15865906 279.54046631 574.91049194 C277.43560385 578.47255546 275.33544707 582.0372647 273.24267578 585.60644531 C272.47830793 586.90306426 271.71382786 588.19961706 270.94921875 589.49609375 C270.28237061 590.63232178 269.61552246 591.7685498 268.9284668 592.93920898 C265.93555873 597.68944173 263.19054856 601.19684065 258.39453125 604.1640625 C257.50185547 604.72327393 256.60917969 605.28248535 255.68945312 605.85864258 C254.74005859 606.44154053 253.79066406 607.02443848 252.8125 607.625 C250.81864312 608.87050597 248.82515732 610.11660615 246.83203125 611.36328125 C245.84412598 611.97768066 244.8562207 612.59208008 243.83837891 613.22509766 C239.16795478 616.14561919 234.54963303 619.14507203 229.93969727 622.15991211 C226.66343621 624.29770713 223.37403565 626.39166306 220.015625 628.3984375 C219.38011719 628.78539795 218.74460937 629.1723584 218.08984375 629.57104492 C216.3851559 630.60548462 214.6695674 631.62190268 212.953125 632.63671875 C209.18736752 635.65032096 207.29502983 638.81000339 205 643 C204.51853516 643.86246338 204.03707031 644.72492676 203.54101562 645.61352539 C201.87898887 648.62607856 200.24862832 651.65408485 198.625 654.6875 C197.71741943 656.37697754 197.71741943 656.37697754 196.79150391 658.10058594 C191.90384762 667.22114506 187.14930794 676.40856656 182.41821289 685.61105347 C177.97271528 694.25452434 173.40251928 702.81624943 168.703125 711.32421875 C163.70741159 720.42545196 158.99571787 729.66973151 154.26913452 738.9125061 C149.581205 748.07571115 144.82826329 757.18009912 139.69091797 766.10253906 C137.67189875 769.3423276 137.67189875 769.3423276 137 773 C136.31589554 772.97716446 135.63179108 772.95432892 134.92695618 772.93080139 C76.27538701 770.9791243 17.68583036 769.798431 -41 770 C-40.05096802 768.4850293 -40.05096802 768.4850293 -39.08276367 766.93945312 C-33.78861389 758.48228278 -28.5284579 750.00569069 -23.3125 741.5 C-18.07767669 732.97727058 -12.81118392 724.47539819 -7.5 716 C-1.61138508 706.60302662 4.21325373 697.16825825 10.01513672 687.7175293 C14.51585628 680.39305413 19.05763111 673.09556963 23.625 665.8125 C29.27224233 656.80554365 34.83703548 647.7514847 40.34619141 638.65942383 C40.88421387 637.77150146 41.42223633 636.8835791 41.9765625 635.96875 C42.73694824 634.7003125 42.73694824 634.7003125 43.51269531 633.40625 C44.48165254 631.83861336 45.49024785 630.29458954 46.54199219 628.78125 C47.01024414 628.100625 47.47849609 627.42 47.9609375 626.71875 C48.37907715 626.14060547 48.7972168 625.56246094 49.22802734 624.96679688 C50.71532358 621.17753106 49.32071934 617.78904981 47.84838867 614.16674805 C47.3763501 613.20808838 46.90431152 612.24942871 46.41796875 611.26171875 C45.63776367 609.65973633 45.63776367 609.65973633 44.84179688 608.02539062 C44.29587891 606.92388672 43.74996094 605.82238281 43.1875 604.6875 C41.60100904 601.45136464 40.01783769 598.21387176 38.44677734 594.97021484 C37.53407564 593.09645027 36.60430824 591.23081417 35.65087891 589.37744141 C35.26722168 588.59933105 34.88356445 587.8212207 34.48828125 587.01953125 C34.14966064 586.35671143 33.81104004 585.6938916 33.4621582 585.01098633 C32.65086384 581.48080585 34.30837667 579.14772262 36.1111908 576.15602112 C37.55106537 573.88290965 39.02980658 571.63919484 40.51953125 569.3984375 C41.08109421 568.54645782 41.64265717 567.69447815 42.22123718 566.81668091 C44.08027128 563.99963612 45.9461884 561.1872277 47.8125 558.375 C49.12516655 556.39008409 50.4376639 554.40505627 51.75 552.41992188 C61.18141993 538.17133504 70.71861929 523.99532662 80.29702759 509.84527588 C89.6355397 496.04771784 98.85234072 482.17475352 108 468.25 C118.15384157 452.79715583 128.41677375 437.42837014 138.82261658 422.14439392 C149.94310623 405.80458393 160.97063854 389.40139114 172 373 C172.66040283 372.01829834 173.32080566 371.03659668 174.0012207 370.02514648 C177.9818513 364.10667188 181.9567701 358.18442682 185.92404175 352.25698853 C187.17843203 350.38417032 188.43438251 348.51239613 189.69192505 346.64169312 C191.43055434 344.05442466 193.16331332 341.46332506 194.89453125 338.87109375 C195.41488953 338.09928772 195.9352478 337.32748169 196.47137451 336.5322876 C196.93948547 335.82868103 197.40759644 335.12507446 197.88989258 334.40014648 C198.29983963 333.78815903 198.70978668 333.17617157 199.13215637 332.54563904 C200.1631949 331.00478339 200.1631949 331.00478339 200 329 C199.1517717 328.98786972 199.1517717 328.98786972 198.28640747 328.97549438 C34.63463701 326.60065709 34.63463701 326.60065709 -31 311 C-32.55074219 310.63285889 -32.55074219 310.63285889 -34.1328125 310.25830078 C-90.80859516 296.63494095 -90.80859516 296.63494095 -104.0625 275.75 C-106.05155631 267.79377476 -106.50417084 260.60050658 -102.1875 253.375 C-95.71542514 244.415669 -87.47962009 237.17035221 -78.8828125 230.3125 C-75.70554088 227.76379431 -72.60011304 225.14141121 -69.5 222.5 C-65.55394517 219.14501479 -61.5835626 215.82776817 -57.5625 212.5625 C-39.44238697 197.77271165 -21.53672415 182.40339489 -7 164 C-6.25492187 163.071875 -5.50984375 162.14375 -4.7421875 161.1875 C4.24142974 149.66843677 11.59878596 136.98032695 16 123 C16.31839844 121.99710937 16.63679688 120.99421875 16.96484375 119.9609375 C22.99783021 97.10787357 18.91310412 73.60566371 8 53 C5.93506628 50.61272553 5.93506628 50.61272553 4 49 Z " fill="#FDFDFD" transform="translate(342,68)"/>
</svg>
