<svg xmlns="http://www.w3.org/2000/svg" viewBox="0 0 720 720" aria-hidden="true">
  <rect fill="#006949" width="720" height="720"/>
  <g>
    <g>
      <path fill="#0a7351" d="m589.53,391.64c.84,2.71,1.18,5.53,1.2,8.36.02,2.27,3.55,2.28,3.53,0-.21-22.27-21.53-34.12-38.96-43.04-10.24-5.24-20.76-10.05-30.43-16.33-8.35-5.42-16.37-12.47-19.41-22.27-.84-2.71-1.18-5.53-1.2-8.36-.02-2.27-3.55-2.28-3.53,0,.21,22.27,21.53,34.12,38.96,43.04,10.24,5.24,20.76,10.05,30.43,16.33,8.35,5.42,16.37,12.47,19.41,22.27Z"/>
      <path fill="#0a7351" d="m604.53,381.64c.84,2.71,1.18,5.53,1.2,8.36.02,2.27,3.55,2.28,3.53,0-.21-22.27-21.53-34.12-38.96-43.04-10.24-5.24-20.76-10.05-30.43-16.33-8.35-5.42-16.37-12.47-19.41-22.27-.84-2.71-1.18-5.53-1.2-8.36-.02-2.27-3.55-2.28-3.53,0,.21,22.27,21.53,34.12,38.96,43.04,10.24,5.24,20.76,10.05,30.43,16.33,8.35,5.42,16.37,12.47,19.41,22.27Z"/>
      <path fill="#0a7351" d="m619.53,371.64c.84,2.71,1.18,5.53,1.2,8.36.02,2.27,3.55,2.28,3.53,0-.21-22.27-21.53-34.12-38.96-43.04-10.24-5.24-20.76-10.05-30.43-16.33-8.35-5.42-16.37-12.47-19.41-22.27-.84-2.71-1.18-5.53-1.2-8.36-.02-2.27-3.55-2.28-3.53,0,.21,22.27,21.53,34.12,38.96,43.04,10.24,5.24,20.76,10.05,30.43,16.33,8.35,5.42,16.37,12.47,19.41,22.27Z"/>
      <path fill="#0a7351" d="m549.26,250c-.21-22.27-21.53-34.12-38.96-43.04-10.24-5.24-20.76-10.05-30.43-16.33-8.35-5.42-16.37-12.47-19.41-22.27-.84-2.71-1.18-5.53-1.2-8.36-.02-2.27-3.55-2.28-3.53,0,.21,22.27,21.53,34.12,38.96,43.04,10.24,5.24,20.76,10.05,30.43,16.33,8.35,5.42,16.37,12.47,19.41,22.27.84,2.71,1.18,5.53,1.2,8.36.02,2.27,3.55,2.28,3.53,0Z"/>
      <path fill="#0a7351" d="m619.53,551.64c.84,2.71,1.18,5.53,1.2,8.36.02,2.27,3.55,2.28,3.53,0-.21-22.27-21.53-34.12-38.96-43.04-10.24-5.24-20.76-10.05-30.43-16.33-8.35-5.42-16.37-12.47-19.41-22.27-.84-2.71-1.18-5.53-1.2-8.36-.02-2.27-3.55-2.28-3.53,0,.21,22.27,21.53,34.12,38.96,43.04,10.24,5.24,20.76,10.05,30.43,16.33,8.35,5.42,16.37,12.47,19.41,22.27Z"/>
      <path fill="#0a7351" d="m574.53,401.64c.84,2.71,1.18,5.53,1.2,8.36.02,2.27,3.55,2.28,3.53,0-.21-22.27-21.53-34.12-38.96-43.04-10.24-5.24-20.76-10.05-30.43-16.33-8.35-5.42-16.37-12.47-19.41-22.27-.84-2.71-1.18-5.53-1.2-8.36-.02-2.27-3.55-2.28-3.53,0,.21,22.27,21.53,34.12,38.96,43.04,10.24,5.24,20.76,10.05,30.43,16.33,8.35,5.42,16.37,12.47,19.41,22.27Z"/>
      <path fill="#0a7351" d="m559.53,411.64c.84,2.71,1.18,5.53,1.2,8.36.02,2.27,3.55,2.28,3.53,0-.21-22.27-21.53-34.12-38.96-43.04-10.24-5.24-20.76-10.05-30.43-16.33-8.35-5.42-16.37-12.47-19.41-22.27-.84-2.71-1.18-5.53-1.2-8.36-.02-2.27-3.55-2.28-3.53,0,.21,22.27,21.53,34.12,38.96,43.04,10.24,5.24,20.76,10.05,30.43,16.33,8.35,5.42,16.37,12.47,19.41,22.27Z"/>
      <path fill="#0a7351" d="m549.26,430c-.21-22.27-21.53-34.12-38.96-43.04-10.24-5.24-20.76-10.05-30.43-16.33-8.35-5.42-16.37-12.47-19.41-22.27-.84-2.71-1.18-5.53-1.2-8.36-.02-2.27-3.55-2.28-3.53,0,.21,22.27,21.53,34.12,38.96,43.04,10.24,5.24,20.76,10.05,30.43,16.33,8.35,5.42,16.37,12.47,19.41,22.27.84,2.71,1.18,5.53,1.2,8.36.02,2.27,3.55,2.28,3.53,0Z"/>
      <path fill="#0a7351" d="m604.53,201.64c.84,2.71,1.18,5.53,1.2,8.36.02,2.27,3.55,2.28,3.53,0-.21-22.27-21.53-34.12-38.96-43.04-10.24-5.24-20.76-10.05-30.43-16.33-8.35-5.42-16.37-12.47-19.41-22.27-.84-2.71-1.18-5.53-1.2-8.36-.02-2.27-3.55-2.28-3.53,0,.21,22.27,21.53,34.12,38.96,43.04,10.24,5.24,20.76,10.05,30.43,16.33,8.35,5.42,16.37,12.47,19.41,22.27Z"/>
      <path fill="#0a7351" d="m530.74,70c-.21,22.73-24.86,33.82-42.23,42.53-17.4,8.72-41.18,18.51-46.75,39.28-.71,2.66-.99,5.45-1.02,8.19-.02,2.28,3.51,2.27,3.53,0,.21-22.73,24.86-33.82,42.23-42.53,17.4-8.72,41.18-18.5,46.75-39.28.71-2.66.99-5.45,1.02-8.19.02-2.28-3.51-2.27-3.53,0Z"/>
      <path fill="#0a7351" d="m559.53,231.64c.84,2.71,1.18,5.53,1.2,8.36.02,2.27,3.55,2.28,3.53,0-.21-22.27-21.53-34.12-38.96-43.04-10.24-5.24-20.76-10.05-30.43-16.33-8.35-5.42-16.37-12.47-19.41-22.27-.84-2.71-1.18-5.53-1.2-8.36-.02-2.27-3.55-2.28-3.53,0,.21,22.27,21.53,34.12,38.96,43.04,10.24,5.24,20.76,10.05,30.43,16.33,8.35,5.42,16.37,12.47,19.41,22.27Z"/>
      <path fill="#0a7351" d="m515.74,60c-.21,22.73-24.86,33.82-42.23,42.53-17.4,8.72-41.18,18.5-46.75,39.28-.71,2.66-.99,5.45-1.02,8.19-.02,2.28,3.51,2.27,3.53,0,.21-22.73,24.86-33.82,42.23-42.53,17.4-8.72,41.18-18.51,46.75-39.28.71-2.66.99-5.45,1.02-8.19.02-2.28-3.51-2.27-3.53,0Z"/>
      <path fill="#0a7351" d="m574.53,221.64c.84,2.71,1.18,5.53,1.2,8.36.02,2.27,3.55,2.28,3.53,0-.21-22.27-21.53-34.12-38.96-43.04-10.24-5.24-20.76-10.05-30.43-16.33-8.35-5.42-16.37-12.47-19.41-22.27-.84-2.71-1.18-5.53-1.2-8.36-.02-2.27-3.55-2.28-3.53,0,.21,22.27,21.53,34.12,38.96,43.04,10.24,5.24,20.76,10.05,30.43,16.33,8.35,5.42,16.37,12.47,19.41,22.27Z"/>
      <path fill="#0a7351" d="m589.53,211.64c.84,2.71,1.18,5.53,1.2,8.36.02,2.27,3.55,2.28,3.53,0-.21-22.27-21.53-34.12-38.96-43.04-10.24-5.24-20.76-10.05-30.43-16.33-8.35-5.42-16.37-12.47-19.41-22.27-.84-2.71-1.18-5.53-1.2-8.36-.02-2.27-3.55-2.28-3.53,0,.21,22.27,21.53,34.12,38.96,43.04,10.24,5.24,20.76,10.05,30.43,16.33,8.35,5.42,16.37,12.47,19.41,22.27Z"/>
      <path fill="#0a7351" d="m394.53,581.64c.84,2.71,1.18,5.53,1.2,8.36.02,2.27,3.55,2.28,3.53,0-.21-22.27-21.53-34.12-38.96-43.04-10.24-5.24-20.76-10.05-30.43-16.33-8.35-5.42-16.37-12.47-19.41-22.27-.84-2.71-1.18-5.53-1.2-8.36-.02-2.27-3.55-2.28-3.53,0,.21,22.27,21.53,34.12,38.96,43.04,10.24,5.24,20.76,10.05,30.43,16.33,8.35,5.42,16.37,12.47,19.41,22.27Z"/>
      <path fill="#0a7351" d="m306.5,477.47c17.4-8.72,41.18-18.5,46.75-39.28.71-2.66.99-5.45,1.02-8.19.02-2.28-3.51-2.27-3.53,0-.21,22.73-24.86,33.82-42.23,42.53-17.4,8.72-41.18,18.51-46.75,39.28-.71,2.66-.99,5.45-1.02,8.19-.02,2.28,3.51,2.27,3.53,0,.21-22.73,24.86-33.82,42.23-42.53Z"/>
      <path fill="#0a7351" d="m329.69,553.04c10.24,5.24,20.76,10.05,30.43,16.33,8.35,5.42,16.37,12.47,19.41,22.27.84,2.71,1.18,5.53,1.2,8.36.02,2.27,3.55,2.28,3.53,0-.21-22.27-21.53-34.12-38.96-43.04-10.24-5.24-20.76-10.05-30.43-16.33-8.35-5.42-16.37-12.47-19.41-22.27-.84-2.71-1.18-5.53-1.2-8.36-.02-2.27-3.55-2.28-3.53,0,.21,22.27,21.53,34.12,38.96,43.04Z"/>
      <path fill="#0a7351" d="m500.74,50c-.21,22.73-24.86,33.82-42.23,42.53-17.4,8.72-41.18,18.51-46.75,39.28-.71,2.66-.99,5.45-1.02,8.19-.02,2.28,3.51,2.27,3.53,0,.21-22.73,24.86-33.82,42.23-42.53,17.4-8.72,41.18-18.5,46.75-39.28.71-2.66.99-5.45,1.02-8.19.02-2.28-3.51-2.27-3.53,0Z"/>
      <path fill="#0a7351" d="m409.53,571.64c.84,2.71,1.18,5.53,1.2,8.36.02,2.27,3.55,2.28,3.53,0-.21-22.27-21.53-34.12-38.96-43.04-10.24-5.24-20.76-10.05-30.43-16.33-8.35-5.42-16.37-12.47-19.41-22.27-.84-2.71-1.18-5.53-1.2-8.36-.02-2.27-3.55-2.28-3.53,0,.21,22.27,21.53,34.12,38.96,43.04,10.24,5.24,20.76,10.05,30.43,16.33,8.35,5.42,16.37,12.47,19.41,22.27Z"/>
      <path fill="#0a7351" d="m130.47,328.36c-.84-2.71-1.18-5.53-1.2-8.36-.02-2.27-3.55-2.28-3.53,0,.21,22.27,21.53,34.12,38.96,43.04,10.24,5.24,20.76,10.05,30.43,16.33,8.35,5.42,16.37,12.47,19.41,22.27.84,2.71,1.18,5.53,1.2,8.36.02,2.27,3.55,2.28,3.53,0-.21-22.27-21.53-34.12-38.96-43.04-10.24-5.24-20.76-10.05-30.43-16.33-8.35-5.42-16.37-12.47-19.41-22.27Z"/>
      <path fill="#0a7351" d="m604.53,561.64c.84,2.71,1.18,5.53,1.2,8.36.02,2.27,3.55,2.28,3.53,0-.21-22.27-21.53-34.12-38.96-43.04-10.24-5.24-20.76-10.05-30.43-16.33-8.35-5.42-16.37-12.47-19.41-22.27-.84-2.71-1.18-5.53-1.2-8.36-.02-2.27-3.55-2.28-3.53,0,.21,22.27,21.53,34.12,38.96,43.04,10.24,5.24,20.76,10.05,30.43,16.33,8.35,5.42,16.37,12.47,19.41,22.27Z"/>
      <path fill="#0a7351" d="m100.47,348.36c-.84-2.71-1.18-5.53-1.2-8.36-.02-2.27-3.55-2.28-3.53,0,.21,22.27,21.53,34.12,38.96,43.04,10.24,5.24,20.76,10.05,30.43,16.33,8.35,5.42,16.37,12.47,19.41,22.27.84,2.71,1.18,5.53,1.2,8.36.02,2.27,3.55,2.28,3.53,0-.21-22.27-21.53-34.12-38.96-43.04-10.24-5.24-20.76-10.05-30.43-16.33-8.35-5.42-16.37-12.47-19.41-22.27Z"/>
      <path fill="#0a7351" d="m115.47,338.36c-.84-2.71-1.18-5.53-1.2-8.36-.02-2.27-3.55-2.28-3.53,0,.21,22.27,21.53,34.12,38.96,43.04,10.24,5.24,20.76,10.05,30.43,16.33,8.35,5.42,16.37,12.47,19.41,22.27.84,2.71,1.18,5.53,1.2,8.36.02,2.27,3.55,2.28,3.53,0-.21-22.27-21.53-34.12-38.96-43.04-10.24-5.24-20.76-10.05-30.43-16.33-8.35-5.42-16.37-12.47-19.41-22.27Z"/>
      <path fill="#0a7351" d="m574.53,581.64c.84,2.71,1.18,5.53,1.2,8.36.02,2.27,3.55,2.28,3.53,0-.21-22.27-21.53-34.12-38.96-43.04-10.24-5.24-20.76-10.05-30.43-16.33-8.35-5.42-16.37-12.47-19.41-22.27-.84-2.71-1.18-5.53-1.2-8.36-.02-2.27-3.55-2.28-3.53,0,.21,22.27,21.53,34.12,38.96,43.04,10.24,5.24,20.76,10.05,30.43,16.33,8.35,5.42,16.37,12.47,19.41,22.27Z"/>
      <path fill="#0a7351" d="m589.53,571.64c.84,2.71,1.18,5.53,1.2,8.36.02,2.27,3.55,2.28,3.53,0-.21-22.27-21.53-34.12-38.96-43.04-10.24-5.24-20.76-10.05-30.43-16.33-8.35-5.42-16.37-12.47-19.41-22.27-.84-2.71-1.18-5.53-1.2-8.36-.02-2.27-3.55-2.28-3.53,0,.21,22.27,21.53,34.12,38.96,43.04,10.24,5.24,20.76,10.05,30.43,16.33,8.35,5.42,16.37,12.47,19.41,22.27Z"/>
      <path fill="#0a7351" d="m424.53,561.64c.84,2.71,1.18,5.53,1.2,8.36.02,2.27,3.55,2.28,3.53,0-.21-22.27-21.53-34.12-38.96-43.04-10.24-5.24-20.76-10.05-30.43-16.33-8.35-5.42-16.37-12.47-19.41-22.27-.84-2.71-1.18-5.53-1.2-8.36-.02-2.27-3.55-2.28-3.53,0,.21,22.27,21.53,34.12,38.96,43.04,10.24,5.24,20.76,10.05,30.43,16.33,8.35,5.42,16.37,12.47,19.41,22.27Z"/>
      <path fill="#0a7351" d="m509.69,553.04c10.24,5.24,20.76,10.05,30.43,16.33,8.35,5.42,16.37,12.47,19.41,22.27.84,2.71,1.18,5.53,1.2,8.36.02,2.27,3.55,2.28,3.53,0-.21-22.27-21.53-34.12-38.96-43.04-10.24-5.24-20.76-10.05-30.43-16.33-8.35-5.42-16.37-12.47-19.41-22.27-.84-2.71-1.18-5.53-1.2-8.36-.02-2.27-3.55-2.28-3.53,0,.21,22.27,21.53,34.12,38.96,43.04Z"/>
      <path fill="#0a7351" d="m439.53,551.64c.84,2.71,1.18,5.53,1.2,8.36.02,2.27,3.55,2.28,3.53,0-.21-22.27-21.53-34.12-38.96-43.04-10.24-5.24-20.76-10.05-30.43-16.33-8.35-5.42-16.37-12.47-19.41-22.27-.84-2.71-1.18-5.53-1.2-8.36-.02-2.27-3.55-2.28-3.53,0,.21,22.27,21.53,34.12,38.96,43.04,10.24,5.24,20.76,10.05,30.43,16.33,8.35,5.42,16.37,12.47,19.41,22.27Z"/>
      <path fill="#0a7351" d="m486.5,477.47c17.4-8.72,41.18-18.5,46.75-39.28.71-2.66.99-5.45,1.02-8.19.02-2.28-3.51-2.27-3.53,0-.21,22.73-24.86,33.82-42.23,42.53-17.4,8.72-41.18,18.51-46.75,39.28-.71,2.66-.99,5.45-1.02,8.19-.02,2.28,3.51,2.27,3.53,0,.21-22.73,24.86-33.82,42.23-42.53Z"/>
      <path fill="#0a7351" d="m6.76,281.81c-.71,2.66-.99,5.45-1.02,8.19-.02,2.28,3.51,2.27,3.53,0,.21-22.73,24.86-33.82,42.23-42.53,17.4-8.72,41.18-18.51,46.75-39.28.71-2.66.99-5.45,1.02-8.19.02-2.28-3.51-2.27-3.53,0-.21,22.73-24.86,33.82-42.23,42.53-17.4,8.72-41.18,18.5-46.75,39.28Z"/>
      <path fill="#0a7351" d="m69.26,330c.21-22.73,24.86-33.82,42.23-42.53,17.4-8.72,41.18-18.5,46.75-39.28.71-2.66.99-5.45,1.02-8.19.02-2.28-3.51-2.27-3.53,0-.21,22.73-24.86,33.82-42.23,42.53-17.4,8.72-41.18,18.51-46.75,39.28-.71,2.66-.99,5.45-1.02,8.19-.02,2.28,3.51,2.27,3.53,0Z"/>
      <path fill="#0a7351" d="m84.26,520c.21-22.73,24.86-33.82,42.23-42.53,17.4-8.72,41.18-18.5,46.75-39.28.71-2.66.99-5.45,1.02-8.19.02-2.28-3.51-2.27-3.53,0-.21,22.73-24.86,33.82-42.23,42.53-17.4,8.72-41.18,18.51-46.75,39.28-.71,2.66-.99,5.45-1.02,8.19-.02,2.28,3.51,2.27,3.53,0Z"/>
      <path fill="#0a7351" d="m69.26,510c.21-22.73,24.86-33.82,42.23-42.53,17.4-8.72,41.18-18.5,46.75-39.28.71-2.66.99-5.45,1.02-8.19.02-2.28-3.51-2.27-3.53,0-.21,22.73-24.86,33.82-42.23,42.53-17.4,8.72-41.18,18.5-46.75,39.28-.71,2.66-.99,5.45-1.02,8.19-.02,2.28,3.51,2.27,3.53,0Z"/>
      <path fill="#0a7351" d="m54.26,500c.21-22.73,24.86-33.82,42.23-42.53,17.4-8.72,41.18-18.5,46.75-39.28.71-2.66.99-5.45,1.02-8.19.02-2.28-3.51-2.27-3.53,0-.21,22.73-24.86,33.82-42.23,42.53-17.4,8.72-41.18,18.51-46.75,39.28-.71,2.66-.99,5.45-1.02,8.19-.02,2.28,3.51,2.27,3.53,0Z"/>
      <path fill="#0a7351" d="m84.26,340c.21-22.73,24.86-33.82,42.23-42.53,17.4-8.72,41.18-18.51,46.75-39.28.71-2.66.99-5.45,1.02-8.19.02-2.28-3.51-2.27-3.53,0-.21,22.73-24.86,33.82-42.23,42.53-17.4,8.72-41.18,18.5-46.75,39.28-.71,2.66-.99,5.45-1.02,8.19-.02,2.28,3.51,2.27,3.53,0Z"/>
      <path fill="#0a7351" d="m24.26,480c.21-22.73,24.86-33.82,42.23-42.53,17.4-8.72,41.18-18.51,46.75-39.28.71-2.66.99-5.45,1.02-8.19.02-2.28-3.51-2.27-3.53,0-.21,22.73-24.86,33.82-42.23,42.53-17.4,8.72-41.18,18.5-46.75,39.28-.71,2.66-.99,5.45-1.02,8.19-.02,2.28,3.51,2.27,3.53,0Z"/>
      <path fill="#0a7351" d="m6.76,461.81c-.71,2.66-.99,5.45-1.02,8.19-.02,2.28,3.51,2.27,3.53,0,.21-22.73,24.86-33.82,42.23-42.53,17.4-8.72,41.18-18.5,46.75-39.28.71-2.66.99-5.45,1.02-8.19.02-2.28-3.51-2.27-3.53,0-.21,22.73-24.86,33.82-42.23,42.53-17.4,8.72-41.18,18.51-46.75,39.28Z"/>
      <path fill="#0a7351" d="m39.26,490c.21-22.73,24.86-33.82,42.23-42.53,17.4-8.72,41.18-18.5,46.75-39.28.71-2.66.99-5.45,1.02-8.19.02-2.28-3.51-2.27-3.53,0-.21,22.73-24.86,33.82-42.23,42.53-17.4,8.72-41.18,18.51-46.75,39.28-.71,2.66-.99,5.45-1.02,8.19-.02,2.28,3.51,2.27,3.53,0Z"/>
      <path fill="#0a7351" d="m69.26,690c.21-22.73,24.86-33.82,42.23-42.53,17.4-8.72,41.18-18.51,46.75-39.28.71-2.66.99-5.45,1.02-8.19.02-2.28-3.51-2.27-3.53,0-.21,22.73-24.86,33.82-42.23,42.53-17.4,8.72-41.18,18.5-46.75,39.28-.71,2.66-.99,5.45-1.02,8.19-.02,2.28,3.51,2.27,3.53,0Z"/>
      <path fill="#0a7351" d="m54.26,680c.21-22.73,24.86-33.82,42.23-42.53,17.4-8.72,41.18-18.5,46.75-39.28.71-2.66.99-5.45,1.02-8.19.02-2.28-3.51-2.27-3.53,0-.21,22.73-24.86,33.82-42.23,42.53-17.4,8.72-41.18,18.51-46.75,39.28-.71,2.66-.99,5.45-1.02,8.19-.02,2.28,3.51,2.27,3.53,0Z"/>
      <path fill="#0a7351" d="m6.76,641.81c-.71,2.66-.99,5.45-1.02,8.19-.02,2.28,3.51,2.27,3.53,0,.21-22.73,24.86-33.82,42.23-42.53,17.4-8.72,41.18-18.5,46.75-39.28.71-2.66.99-5.45,1.02-8.19.02-2.28-3.51-2.27-3.53,0-.21,22.73-24.86,33.82-42.23,42.53-17.4,8.72-41.18,18.5-46.75,39.28Z"/>
      <path fill="#0a7351" d="m173.24,618.19c.71-2.66.99-5.45,1.02-8.19.02-2.28-3.51-2.27-3.53,0-.21,22.73-24.86,33.82-42.23,42.53-17.4,8.72-41.18,18.5-46.75,39.28-.71,2.66-.99,5.45-1.02,8.19-.02,2.28,3.51,2.27,3.53,0,.21-22.73,24.86-33.82,42.23-42.53,17.4-8.72,41.18-18.51,46.75-39.28Z"/>
      <path fill="#0a7351" d="m24.26,660c.21-22.73,24.86-33.82,42.23-42.53,17.4-8.72,41.18-18.5,46.75-39.28.71-2.66.99-5.45,1.02-8.19.02-2.28-3.51-2.27-3.53,0-.21,22.73-24.86,33.82-42.23,42.53-17.4,8.72-41.18,18.51-46.75,39.28-.71,2.66-.99,5.45-1.02,8.19-.02,2.28,3.51,2.27,3.53,0Z"/>
      <path fill="#0a7351" d="m39.26,670c.21-22.73,24.86-33.82,42.23-42.53,17.4-8.72,41.18-18.51,46.75-39.28.71-2.66.99-5.45,1.02-8.19.02-2.28-3.51-2.27-3.53,0-.21,22.73-24.86,33.82-42.23,42.53-17.4,8.72-41.18,18.5-46.75,39.28-.71,2.66-.99,5.45-1.02,8.19-.02,2.28,3.51,2.27,3.53,0Z"/>
      <path fill="#0a7351" d="m290.74,30c-.21,22.73-24.86,33.82-42.23,42.53-17.4,8.72-41.18,18.5-46.75,39.28-.71,2.66-.99,5.45-1.02,8.19-.02,2.28,3.51,2.27,3.53,0,.21-22.73,24.86-33.82,42.23-42.53,17.4-8.72,41.18-18.51,46.75-39.28.71-2.66.99-5.45,1.02-8.19.02-2.28-3.51-2.27-3.53,0Z"/>
      <path fill="#0a7351" d="m305.74,40c-.21,22.73-24.86,33.82-42.23,42.53-17.4,8.72-41.18,18.5-46.75,39.28-.71,2.66-.99,5.45-1.02,8.19-.02,2.28,3.51,2.27,3.53,0,.21-22.73,24.86-33.82,42.23-42.53,17.4-8.72,41.18-18.51,46.75-39.28.71-2.66.99-5.45,1.02-8.19.02-2.28-3.51-2.27-3.53,0Z"/>
      <path fill="#0a7351" d="m335.74,60c-.21,22.73-24.86,33.82-42.23,42.53-17.4,8.72-41.18,18.5-46.75,39.28-.71,2.66-.99,5.45-1.02,8.19-.02,2.28,3.51,2.27,3.53,0,.21-22.73,24.86-33.82,42.23-42.53,17.4-8.72,41.18-18.51,46.75-39.28.71-2.66.99-5.45,1.02-8.19.02-2.28-3.51-2.27-3.53,0Z"/>
      <path fill="#0a7351" d="m320.74,50c-.21,22.73-24.86,33.82-42.23,42.53-17.4,8.72-41.18,18.51-46.75,39.28-.71,2.66-.99,5.45-1.02,8.19-.02,2.28,3.51,2.27,3.53,0,.21-22.73,24.86-33.82,42.23-42.53,17.4-8.72,41.18-18.5,46.75-39.28.71-2.66.99-5.45,1.02-8.19.02-2.28-3.51-2.27-3.53,0Z"/>
      <path fill="#0a7351" d="m54.26,320c.21-22.73,24.86-33.82,42.23-42.53,17.4-8.72,41.18-18.5,46.75-39.28.71-2.66.99-5.45,1.02-8.19.02-2.28-3.51-2.27-3.53,0-.21,22.73-24.86,33.82-42.23,42.53-17.4,8.72-41.18,18.5-46.75,39.28-.71,2.66-.99,5.45-1.02,8.19-.02,2.28,3.51,2.27,3.53,0Z"/>
      <path fill="#0a7351" d="m470.74,30c-.21,22.73-24.86,33.82-42.23,42.53-17.4,8.72-41.18,18.5-46.75,39.28-.71,2.66-.99,5.45-1.02,8.19-.02,2.28,3.51,2.27,3.53,0,.21-22.73,24.86-33.82,42.23-42.53,17.4-8.72,41.18-18.51,46.75-39.28.71-2.66.99-5.45,1.02-8.19.02-2.28-3.51-2.27-3.53,0Z"/>
      <path fill="#0a7351" d="m355.47,118.36c-.84-2.71-1.18-5.53-1.2-8.36-.02-2.27-3.55-2.28-3.53,0,.21,22.27,21.53,34.12,38.96,43.04,10.24,5.24,20.76,10.05,30.43,16.33,8.35,5.42,16.37,12.47,19.41,22.27.84,2.71,1.18,5.53,1.2,8.36.02,2.27,3.55,2.28,3.53,0-.21-22.27-21.53-34.12-38.96-43.04-10.24-5.24-20.76-10.05-30.43-16.33-8.35-5.42-16.37-12.47-19.41-22.27Z"/>
      <path fill="#0a7351" d="m366.76,101.81c-.71,2.66-.99,5.45-1.02,8.19-.02,2.28,3.51,2.27,3.53,0,.21-22.73,24.86-33.82,42.23-42.53,17.4-8.72,41.18-18.5,46.75-39.28.71-2.66.99-5.45,1.02-8.19.02-2.28-3.51-2.27-3.53,0-.21,22.73-24.86,33.82-42.23,42.53-17.4,8.72-41.18,18.5-46.75,39.28Z"/>
      <path fill="#0a7351" d="m350.74,70c-.21,22.73-24.86,33.82-42.23,42.53-17.4,8.72-41.18,18.51-46.75,39.28-.71,2.66-.99,5.45-1.02,8.19-.02,2.28,3.51,2.27,3.53,0,.21-22.73,24.86-33.82,42.23-42.53,17.4-8.72,41.18-18.5,46.75-39.28.71-2.66.99-5.45,1.02-8.19.02-2.28-3.51-2.27-3.53,0Z"/>
      <path fill="#0a7351" d="m145.46,318.36c-.84-2.71-1.18-5.53-1.2-8.36-.02-2.27-3.55-2.28-3.53,0,.21,22.27,21.53,34.12,38.96,43.04,10.24,5.24,20.76,10.05,30.43,16.33,8.35,5.42,16.37,12.47,19.41,22.27.84,2.71,1.18,5.53,1.2,8.36.02,2.27,3.55,2.28,3.53,0-.21-22.27-21.53-34.12-38.96-43.04-10.24-5.24-20.76-10.05-30.43-16.33-8.35-5.42-16.37-12.47-19.41-22.27Z"/>
      <path fill="#0a7351" d="m24.26,300c.21-22.73,24.86-33.82,42.23-42.53,17.4-8.72,41.18-18.5,46.75-39.28.71-2.66.99-5.45,1.02-8.19.02-2.28-3.51-2.27-3.53,0-.21,22.73-24.86,33.82-42.23,42.53-17.4,8.72-41.18,18.5-46.75,39.28-.71,2.66-.99,5.45-1.02,8.19-.02,2.28,3.51,2.27,3.53,0Z"/>
      <path fill="#0a7351" d="m485.74,40c-.21,22.73-24.86,33.82-42.23,42.53-17.4,8.72-41.18,18.5-46.75,39.28-.71,2.66-.99,5.45-1.02,8.19-.02,2.28,3.51,2.27,3.53,0,.21-22.73,24.86-33.82,42.23-42.53,17.4-8.72,41.18-18.51,46.75-39.28.71-2.66.99-5.45,1.02-8.19.02-2.28-3.51-2.27-3.53,0Z"/>
      <path fill="#0a7351" d="m39.26,310c.21-22.73,24.86-33.82,42.23-42.53,17.4-8.72,41.18-18.5,46.75-39.28.71-2.66.99-5.45,1.02-8.19.02-2.28-3.51-2.27-3.53,0-.21,22.73-24.86,33.82-42.23,42.53-17.4,8.72-41.18,18.51-46.75,39.28-.71,2.66-.99,5.45-1.02,8.19-.02,2.28,3.51,2.27,3.53,0Z"/>
      <path fill="#0a7351" d="m186.76,101.81c-.71,2.66-.99,5.45-1.02,8.19-.02,2.28,3.51,2.27,3.53,0,.21-22.73,24.86-33.82,42.23-42.53,17.4-8.72,41.18-18.5,46.75-39.28.71-2.66.99-5.45,1.02-8.19.02-2.28-3.51-2.27-3.53,0-.21,22.73-24.86,33.82-42.23,42.53-17.4,8.72-41.18,18.5-46.75,39.28Z"/>
      <path fill="#0a7351" d="m175.46,118.36c-.84-2.71-1.18-5.53-1.2-8.36-.02-2.27-3.55-2.28-3.53,0,.21,22.27,21.53,34.12,38.96,43.04,10.24,5.24,20.76,10.05,30.43,16.33,8.35,5.42,16.37,12.47,19.41,22.27.84,2.71,1.18,5.53,1.2,8.36.02,2.27,3.55,2.28,3.53,0-.21-22.27-21.53-34.12-38.96-43.04-10.24-5.24-20.76-10.05-30.43-16.33-8.35-5.42-16.37-12.47-19.41-22.27Z"/>
      <path fill="#0a7351" d="m500.74,410c-.21,22.73-24.86,33.82-42.23,42.53-17.4,8.72-41.18,18.51-46.75,39.28-.71,2.66-.99,5.45-1.02,8.19-.02,2.28,3.51,2.27,3.53,0,.21-22.73,24.86-33.82,42.23-42.53,17.4-8.72,41.18-18.5,46.75-39.28.71-2.66.99-5.45,1.02-8.19.02-2.28-3.51-2.27-3.53,0Z"/>
      <path fill="#0a7351" d="m259.53,551.64c.84,2.71,1.18,5.53,1.2,8.36.02,2.27,3.55,2.28,3.53,0-.21-22.27-21.53-34.12-38.96-43.04-10.24-5.24-20.76-10.05-30.43-16.33-8.35-5.42-16.37-12.47-19.41-22.27-.84-2.71-1.18-5.53-1.2-8.36-.02-2.27-3.55-2.28-3.53,0,.21,22.27,21.53,34.12,38.96,43.04,10.24,5.24,20.76,10.05,30.43,16.33,8.35,5.42,16.37,12.47,19.41,22.27Z"/>
      <path fill="#0a7351" d="m184.53,601.64c.84,2.71,1.18,5.53,1.2,8.36.02,2.27,3.55,2.28,3.53,0-.21-22.27-21.53-34.12-38.96-43.04-10.24-5.24-20.76-10.05-30.43-16.33-8.35-5.42-16.37-12.47-19.41-22.27-.84-2.71-1.18-5.53-1.2-8.36-.02-2.27-3.55-2.28-3.53,0,.21,22.27,21.53,34.12,38.96,43.04,10.24,5.24,20.76,10.05,30.43,16.33,8.35,5.42,16.37,12.47,19.41,22.27Z"/>
      <path fill="#0a7351" d="m485.74,400c-.21,22.73-24.86,33.82-42.23,42.53-17.4,8.72-41.18,18.51-46.75,39.28-.71,2.66-.99,5.45-1.02,8.19-.02,2.28,3.51,2.27,3.53,0,.21-22.73,24.86-33.82,42.23-42.53,17.4-8.72,41.18-18.5,46.75-39.28.71-2.66.99-5.45,1.02-8.19.02-2.28-3.51-2.27-3.53,0Z"/>
      <path fill="#0a7351" d="m426.75,501.81c-.71,2.66-.99,5.45-1.02,8.19-.02,2.28,3.51,2.27,3.53,0,.21-22.73,24.86-33.82,42.23-42.53,17.4-8.72,41.18-18.5,46.75-39.28.71-2.66.99-5.45,1.02-8.19.02-2.28-3.51-2.27-3.53,0-.21,22.73-24.86,33.82-42.23,42.53-17.4,8.72-41.18,18.5-46.75,39.28Z"/>
      <path fill="#0a7351" d="m264.26,340c.21-22.73,24.86-33.82,42.23-42.53,17.4-8.72,41.18-18.51,46.75-39.28.71-2.66.99-5.45,1.02-8.19.02-2.28-3.51-2.27-3.53,0-.21,22.73-24.86,33.82-42.23,42.53-17.4,8.72-41.18,18.5-46.75,39.28-.71,2.66-.99,5.45-1.02,8.19-.02,2.28,3.51,2.27,3.53,0Z"/>
      <path fill="#0a7351" d="m165.3,556.96c-10.24-5.24-20.76-10.05-30.43-16.33-8.35-5.42-16.37-12.47-19.41-22.27-.84-2.71-1.18-5.53-1.2-8.36-.02-2.27-3.55-2.28-3.53,0,.21,22.27,21.53,34.12,38.96,43.04,10.24,5.24,20.76,10.05,30.43,16.33,8.35,5.42,16.37,12.47,19.41,22.27.84,2.71,1.18,5.53,1.2,8.36.02,2.27,3.55,2.28,3.53,0-.21-22.27-21.53-34.12-38.96-43.04Z"/>
      <path fill="#0a7351" d="m229.53,571.64c.84,2.71,1.18,5.53,1.2,8.36.02,2.27,3.55,2.28,3.53,0-.21-22.27-21.53-34.12-38.96-43.04-10.24-5.24-20.76-10.05-30.43-16.33-8.35-5.42-16.37-12.47-19.41-22.27-.84-2.71-1.18-5.53-1.2-8.36-.02-2.27-3.55-2.28-3.53,0,.21,22.27,21.53,34.12,38.96,43.04,10.24,5.24,20.76,10.05,30.43,16.33,8.35,5.42,16.37,12.47,19.41,22.27Z"/>
      <path fill="#0a7351" d="m219.26,310c.21-22.73,24.86-33.82,42.23-42.53,17.4-8.72,41.18-18.5,46.75-39.28.71-2.66.99-5.45,1.02-8.19.02-2.28-3.51-2.27-3.53,0-.21,22.73-24.86,33.82-42.23,42.53-17.4,8.72-41.18,18.51-46.75,39.28-.71,2.66-.99,5.45-1.02,8.19-.02,2.28,3.51,2.27,3.53,0Z"/>
      <path fill="#0a7351" d="m234.26,320c.21-22.73,24.86-33.82,42.23-42.53,17.4-8.72,41.18-18.5,46.75-39.28.71-2.66.99-5.45,1.02-8.19.02-2.28-3.51-2.27-3.53,0-.21,22.73-24.86,33.82-42.23,42.53-17.4,8.72-41.18,18.5-46.75,39.28-.71,2.66-.99,5.45-1.02,8.19-.02,2.28,3.51,2.27,3.53,0Z"/>
      <path fill="#0a7351" d="m293.24,218.19c.71-2.66.99-5.45,1.02-8.19.02-2.28-3.51-2.27-3.53,0-.21,22.73-24.86,33.82-42.23,42.53-17.4,8.72-41.18,18.5-46.75,39.28-.71,2.66-.99,5.45-1.02,8.19-.02,2.28,3.51,2.27,3.53,0,.21-22.73,24.86-33.82,42.23-42.53,17.4-8.72,41.18-18.5,46.75-39.28Z"/>
      <path fill="#0a7351" d="m249.26,330c.21-22.73,24.86-33.82,42.23-42.53,17.4-8.72,41.18-18.5,46.75-39.28.71-2.66.99-5.45,1.02-8.19.02-2.28-3.51-2.27-3.53,0-.21,22.73-24.86,33.82-42.23,42.53-17.4,8.72-41.18,18.51-46.75,39.28-.71,2.66-.99,5.45-1.02,8.19-.02,2.28,3.51,2.27,3.53,0Z"/>
      <path fill="#0a7351" d="m470.74,390c-.21,22.73-24.86,33.82-42.23,42.53-17.4,8.72-41.18,18.5-46.75,39.28-.71,2.66-.99,5.45-1.02,8.19-.02,2.28,3.51,2.27,3.53,0,.21-22.73,24.86-33.82,42.23-42.53,17.4-8.72,41.18-18.51,46.75-39.28.71-2.66.99-5.45,1.02-8.19.02-2.28-3.51-2.27-3.53,0Z"/>
      <path fill="#0a7351" d="m214.53,581.64c.84,2.71,1.18,5.53,1.2,8.36.02,2.27,3.55,2.28,3.53,0-.21-22.27-21.53-34.12-38.96-43.04-10.24-5.24-20.76-10.05-30.43-16.33-8.35-5.42-16.37-12.47-19.41-22.27-.84-2.71-1.18-5.53-1.2-8.36-.02-2.27-3.55-2.28-3.53,0,.21,22.27,21.53,34.12,38.96,43.04,10.24,5.24,20.76,10.05,30.43,16.33,8.35,5.42,16.37,12.47,19.41,22.27Z"/>
      <path fill="#0a7351" d="m455.74,380c-.21,22.73-24.86,33.82-42.23,42.53-17.4,8.72-41.18,18.51-46.75,39.28-.71,2.66-.99,5.45-1.02,8.19-.02,2.28,3.51,2.27,3.53,0,.21-22.73,24.86-33.82,42.23-42.53,17.4-8.72,41.18-18.5,46.75-39.28.71-2.66.99-5.45,1.02-8.19.02-2.28-3.51-2.27-3.53,0Z"/>
      <path fill="#0a7351" d="m244.53,561.64c.84,2.71,1.18,5.53,1.2,8.36.02,2.27,3.55,2.28,3.53,0-.21-22.27-21.53-34.12-38.96-43.04-10.24-5.24-20.76-10.05-30.43-16.33-8.35-5.42-16.37-12.47-19.41-22.27-.84-2.71-1.18-5.53-1.2-8.36-.02-2.27-3.55-2.28-3.53,0,.21,22.27,21.53,34.12,38.96,43.04,10.24,5.24,20.76,10.05,30.43,16.33,8.35,5.42,16.37,12.47,19.41,22.27Z"/>
      <path fill="#0a7351" d="m680.74,590c-.21,22.73-24.86,33.82-42.23,42.53-17.4,8.72-41.18,18.51-46.75,39.28-.71,2.66-.99,5.45-1.02,8.19-.02,2.28,3.51,2.27,3.53,0,.21-22.73,24.86-33.82,42.23-42.53,17.4-8.72,41.18-18.5,46.75-39.28.71-2.66.99-5.45,1.02-8.19.02-2.28-3.51-2.27-3.53,0Z"/>
      <path fill="#0a7351" d="m650.74,570c-.21,22.73-24.86,33.82-42.23,42.53-17.4,8.72-41.18,18.51-46.75,39.28-.71,2.66-.99,5.45-1.02,8.19-.02,2.28,3.51,2.27,3.53,0,.21-22.73,24.86-33.82,42.23-42.53,17.4-8.72,41.18-18.5,46.75-39.28.71-2.66.99-5.45,1.02-8.19.02-2.28-3.51-2.27-3.53,0Z"/>
      <path fill="#0a7351" d="m160.46,308.36c-.84-2.71-1.18-5.53-1.2-8.36-.02-2.27-3.55-2.28-3.53,0,.21,22.27,21.53,34.12,38.96,43.04,10.24,5.24,20.76,10.05,30.43,16.33,8.35,5.42,16.37,12.47,19.41,22.27.84,2.71,1.18,5.53,1.2,8.36.02,2.27,3.55,2.28,3.53,0-.21-22.27-21.53-34.12-38.96-43.04-10.24-5.24-20.76-10.05-30.43-16.33-8.35-5.42-16.37-12.47-19.41-22.27Z"/>
      <path fill="#0a7351" d="m635.74,560c-.21,22.73-24.86,33.82-42.23,42.53-17.4,8.72-41.18,18.5-46.75,39.28-.71,2.66-.99,5.45-1.02,8.19-.02,2.28,3.51,2.27,3.53,0,.21-22.73,24.86-33.82,42.23-42.53,17.4-8.72,41.18-18.5,46.75-39.28.71-2.66.99-5.45,1.02-8.19.02-2.28-3.51-2.27-3.53,0Z"/>
      <path fill="#0a7351" d="m695.74,600c-.21,22.73-24.86,33.82-42.23,42.53-17.4,8.72-41.18,18.5-46.75,39.28-.71,2.66-.99,5.45-1.02,8.19-.02,2.28,3.51,2.27,3.53,0,.21-22.73,24.86-33.82,42.23-42.53,17.4-8.72,41.18-18.51,46.75-39.28.71-2.66.99-5.45,1.02-8.19.02-2.28-3.51-2.27-3.53,0Z"/>
      <path fill="#0a7351" d="m620.74,20c.02,2.27,3.55,2.28,3.53,0-.07-7.85-2.78-14.41-7.01-20h-4.41c2.95,3.39,5.33,7.24,6.7,11.64.84,2.71,1.18,5.53,1.2,8.36Z"/>
      <path fill="#0a7351" d="m713.24,618.19c.71-2.66.99-5.45,1.02-8.19.02-2.28-3.51-2.27-3.53,0-.21,22.73-24.86,33.82-42.23,42.53-17.4,8.72-41.18,18.5-46.75,39.28-.71,2.66-.99,5.45-1.02,8.19-.02,2.28,3.51,2.27,3.53,0,.21-22.73,24.86-33.82,42.23-42.53,17.4-8.72,41.18-18.51,46.75-39.28Z"/>
      <path fill="#0a7351" d="m39.26,130c.21-22.73,24.86-33.82,42.23-42.53,17.4-8.72,41.18-18.51,46.75-39.28.71-2.66.99-5.45,1.02-8.19.02-2.28-3.51-2.27-3.53,0-.21,22.73-24.86,33.82-42.23,42.53-17.4,8.72-41.18,18.5-46.75,39.28-.71,2.66-.99,5.45-1.02,8.19-.02,2.28,3.51,2.27,3.53,0Z"/>
      <path fill="#0a7351" d="m69.26,150c.21-22.73,24.86-33.82,42.23-42.53,17.4-8.72,41.18-18.51,46.75-39.28.71-2.66.99-5.45,1.02-8.19.02-2.28-3.51-2.27-3.53,0-.21,22.73-24.86,33.82-42.23,42.53-17.4,8.72-41.18,18.5-46.75,39.28-.71,2.66-.99,5.45-1.02,8.19-.02,2.28,3.51,2.27,3.53,0Z"/>
      <path fill="#0a7351" d="m24.26,120c.21-22.73,24.86-33.82,42.23-42.53,17.4-8.72,41.18-18.51,46.75-39.28.71-2.66.99-5.45,1.02-8.19.02-2.28-3.51-2.27-3.53,0-.21,22.73-24.86,33.82-42.23,42.53-17.4,8.72-41.18,18.5-46.75,39.28-.71,2.66-.99,5.45-1.02,8.19-.02,2.28,3.51,2.27,3.53,0Z"/>
      <path fill="#0a7351" d="m535.46,118.36c-.84-2.71-1.18-5.53-1.2-8.36-.02-2.27-3.55-2.28-3.53,0,.21,22.27,21.53,34.12,38.96,43.04,10.24,5.24,20.76,10.05,30.43,16.33,8.35,5.42,16.37,12.47,19.41,22.27.84,2.71,1.18,5.53,1.2,8.36.02,2.27,3.55,2.28,3.53,0-.21-22.27-21.53-34.12-38.96-43.04-10.24-5.24-20.76-10.05-30.43-16.33-8.35-5.42-16.37-12.47-19.41-22.27Z"/>
      <path fill="#0a7351" d="m84.26,160c.21-22.73,24.86-33.82,42.23-42.53,17.4-8.72,41.18-18.5,46.75-39.28.71-2.66.99-5.45,1.02-8.19.02-2.28-3.51-2.27-3.53,0-.21,22.73-24.86,33.82-42.23,42.53-17.4,8.72-41.18,18.51-46.75,39.28-.71,2.66-.99,5.45-1.02,8.19-.02,2.28,3.51,2.27,3.53,0Z"/>
      <path fill="#0a7351" d="m549.26,110c.21-22.73,24.86-33.82,42.23-42.53,17.4-8.72,41.18-18.5,46.75-39.28.71-2.66.99-5.45,1.02-8.19.02-2.28-3.51-2.27-3.53,0-.21,22.73-24.86,33.82-42.23,42.53-17.4,8.72-41.18,18.5-46.75,39.28-.71,2.66-.99,5.45-1.02,8.19-.02,2.28,3.51,2.27,3.53,0Z"/>
      <path fill="#0a7351" d="m54.26,140c.21-22.73,24.86-33.82,42.23-42.53,17.4-8.72,41.18-18.5,46.75-39.28.71-2.66.99-5.45,1.02-8.19.02-2.28-3.51-2.27-3.53,0-.21,22.73-24.86,33.82-42.23,42.53-17.4,8.72-41.18,18.51-46.75,39.28-.71,2.66-.99,5.45-1.02,8.19-.02,2.28,3.51,2.27,3.53,0Z"/>
      <path fill="#0a7351" d="m6.76,101.81c-.71,2.66-.99,5.45-1.02,8.19-.02,2.28,3.51,2.27,3.53,0,.21-22.73,24.86-33.82,42.23-42.53,17.4-8.72,41.18-18.5,46.75-39.28.71-2.66.99-5.45,1.02-8.19.02-2.28-3.51-2.27-3.53,0-.21,22.73-24.86,33.82-42.23,42.53-17.4,8.72-41.18,18.5-46.75,39.28Z"/>
      <path fill="#0a7351" d="m295.47,158.36c-.84-2.71-1.18-5.53-1.2-8.36-.02-2.27-3.55-2.28-3.53,0,.21,22.27,21.53,34.12,38.96,43.04,10.24,5.24,20.76,10.05,30.43,16.33,8.35,5.42,16.37,12.47,19.41,22.27.84,2.71,1.18,5.53,1.2,8.36.02,2.27,3.55,2.28,3.53,0-.21-22.27-21.53-34.12-38.96-43.04-10.24-5.24-20.76-10.05-30.43-16.33-8.35-5.42-16.37-12.47-19.41-22.27Z"/>
      <path fill="#0a7351" d="m310.47,148.36c-.84-2.71-1.18-5.53-1.2-8.36-.02-2.27-3.55-2.28-3.53,0,.21,22.27,21.53,34.12,38.96,43.04,10.24,5.24,20.76,10.05,30.43,16.33,8.35,5.42,16.37,12.47,19.41,22.27.84,2.71,1.18,5.53,1.2,8.36.02,2.27,3.55,2.28,3.53,0-.21-22.27-21.53-34.12-38.96-43.04-10.24-5.24-20.76-10.05-30.43-16.33-8.35-5.42-16.37-12.47-19.41-22.27Z"/>
      <path fill="#0a7351" d="m233.5,242.53c-17.4,8.72-41.18,18.5-46.75,39.28-.71,2.66-.99,5.45-1.02,8.19-.02,2.28,3.51,2.27,3.53,0,.21-22.73,24.86-33.82,42.23-42.53,17.4-8.72,41.18-18.51,46.75-39.28.71-2.66.99-5.45,1.02-8.19.02-2.28-3.51-2.27-3.53,0-.21,22.73-24.86,33.82-42.23,42.53Z"/>
      <path fill="#0a7351" d="m470.74,210c-.21,22.73-24.86,33.82-42.23,42.53-17.4,8.72-41.18,18.5-46.75,39.28-.71,2.66-.99,5.45-1.02,8.19-.02,2.28,3.51,2.27,3.53,0,.21-22.73,24.86-33.82,42.23-42.53,17.4-8.72,41.18-18.5,46.75-39.28.71-2.66.99-5.45,1.02-8.19.02-2.28-3.51-2.27-3.53,0Z"/>
      <path fill="#0a7351" d="m455.74,200c-.21,22.73-24.86,33.82-42.23,42.53-17.4,8.72-41.18,18.5-46.75,39.28-.71,2.66-.99,5.45-1.02,8.19-.02,2.28,3.51,2.27,3.53,0,.21-22.73,24.86-33.82,42.23-42.53,17.4-8.72,41.18-18.51,46.75-39.28.71-2.66.99-5.45,1.02-8.19.02-2.28-3.51-2.27-3.53,0Z"/>
      <path fill="#0a7351" d="m390.31,166.96c-10.24-5.24-20.76-10.05-30.43-16.33-8.35-5.42-16.37-12.47-19.41-22.27-.84-2.71-1.18-5.53-1.2-8.36-.02-2.27-3.55-2.28-3.53,0,.21,22.27,21.53,34.12,38.96,43.04,10.24,5.24,20.76,10.05,30.43,16.33,8.35,5.42,16.37,12.47,19.41,22.27.84,2.71,1.18,5.53,1.2,8.36.02,2.27,3.55,2.28,3.53,0-.21-22.27-21.53-34.12-38.96-43.04Z"/>
      <path fill="#0a7351" d="m325.47,138.36c-.84-2.71-1.18-5.53-1.2-8.36-.02-2.27-3.55-2.28-3.53,0,.21,22.27,21.53,34.12,38.96,43.04,10.24,5.24,20.76,10.05,30.43,16.33,8.35,5.42,16.37,12.47,19.41,22.27.84,2.71,1.18,5.53,1.2,8.36.02,2.27,3.55,2.28,3.53,0-.21-22.27-21.53-34.12-38.96-43.04-10.24-5.24-20.76-10.05-30.43-16.33-8.35-5.42-16.37-12.47-19.41-22.27Z"/>
      <path fill="#0a7351" d="m280.47,168.36c-.84-2.71-1.18-5.53-1.2-8.36-.02-2.27-3.55-2.28-3.53,0,.21,22.27,21.53,34.12,38.96,43.04,10.24,5.24,20.76,10.05,30.43,16.33,8.35,5.42,16.37,12.47,19.41,22.27.84,2.71,1.18,5.53,1.2,8.36.02,2.27,3.55,2.28,3.53,0-.21-22.27-21.53-34.12-38.96-43.04-10.24-5.24-20.76-10.05-30.43-16.33-8.35-5.42-16.37-12.47-19.41-22.27Z"/>
      <path fill="#0a7351" d="m100.47,168.36c-.84-2.71-1.18-5.53-1.2-8.36-.02-2.27-3.55-2.28-3.53,0,.21,22.27,21.53,34.12,38.96,43.04,10.24,5.24,20.76,10.05,30.43,16.33,8.35,5.42,16.37,12.47,19.41,22.27.84,2.71,1.18,5.53,1.2,8.36.02,2.27,3.55,2.28,3.53,0-.21-22.27-21.53-34.12-38.96-43.04-10.24-5.24-20.76-10.05-30.43-16.33-8.35-5.42-16.37-12.47-19.41-22.27Z"/>
      <path fill="#0a7351" d="m170.74,290c.21,22.27,21.53,34.12,38.96,43.04,10.24,5.24,20.76,10.05,30.43,16.33,8.35,5.42,16.37,12.47,19.41,22.27.84,2.71,1.18,5.53,1.2,8.36.02,2.27,3.55,2.28,3.53,0-.21-22.27-21.53-34.12-38.96-43.04-10.24-5.24-20.76-10.05-30.43-16.33-8.35-5.42-16.37-12.47-19.41-22.27-.84-2.71-1.18-5.53-1.2-8.36-.02-2.27-3.55-2.28-3.53,0Z"/>
      <path fill="#0a7351" d="m115.47,158.36c-.84-2.71-1.18-5.53-1.2-8.36-.02-2.27-3.55-2.28-3.53,0,.21,22.27,21.53,34.12,38.96,43.04,10.24,5.24,20.76,10.05,30.43,16.33,8.35,5.42,16.37,12.47,19.41,22.27.84,2.71,1.18,5.53,1.2,8.36.02,2.27,3.55,2.28,3.53,0-.21-22.27-21.53-34.12-38.96-43.04-10.24-5.24-20.76-10.05-30.43-16.33-8.35-5.42-16.37-12.47-19.41-22.27Z"/>
      <path fill="#0a7351" d="m210.3,166.96c-10.24-5.24-20.76-10.05-30.43-16.33-8.35-5.42-16.37-12.47-19.41-22.27-.84-2.71-1.18-5.53-1.2-8.36-.02-2.27-3.55-2.28-3.53,0,.21,22.27,21.53,34.12,38.96,43.04,10.24,5.24,20.76,10.05,30.43,16.33,8.35,5.42,16.37,12.47,19.41,22.27.84,2.71,1.18,5.53,1.2,8.36.02,2.27,3.55,2.28,3.53,0-.21-22.27-21.53-34.12-38.96-43.04Z"/>
      <path fill="#0a7351" d="m145.46,138.36c-.84-2.71-1.18-5.53-1.2-8.36-.02-2.27-3.55-2.28-3.53,0,.21,22.27,21.53,34.12,38.96,43.04,10.24,5.24,20.76,10.05,30.43,16.33,8.35,5.42,16.37,12.47,19.41,22.27.84,2.71,1.18,5.53,1.2,8.36.02,2.27,3.55,2.28,3.53,0-.21-22.27-21.53-34.12-38.96-43.04-10.24-5.24-20.76-10.05-30.43-16.33-8.35-5.42-16.37-12.47-19.41-22.27Z"/>
      <path fill="#0a7351" d="m130.47,148.36c-.84-2.71-1.18-5.53-1.2-8.36-.02-2.27-3.55-2.28-3.53,0,.21,22.27,21.53,34.12,38.96,43.04,10.24,5.24,20.76,10.05,30.43,16.33,8.35,5.42,16.37,12.47,19.41,22.27.84,2.71,1.18,5.53,1.2,8.36.02,2.27,3.55,2.28,3.53,0-.21-22.27-21.53-34.12-38.96-43.04-10.24-5.24-20.76-10.05-30.43-16.33-8.35-5.42-16.37-12.47-19.41-22.27Z"/>
      <path fill="#0a7351" d="m234.26,500c.21-22.73,24.86-33.82,42.23-42.53,17.4-8.72,41.18-18.5,46.75-39.28.71-2.66.99-5.45,1.02-8.19.02-2.28-3.51-2.27-3.53,0-.21,22.73-24.86,33.82-42.23,42.53-17.4,8.72-41.18,18.51-46.75,39.28-.71,2.66-.99,5.45-1.02,8.19-.02,2.28,3.51,2.27,3.53,0Z"/>
      <path fill="#0a7351" d="m219.26,490c.21-22.73,24.86-33.82,42.23-42.53,17.4-8.72,41.18-18.5,46.75-39.28.71-2.66.99-5.45,1.02-8.19.02-2.28-3.51-2.27-3.53,0-.21,22.73-24.86,33.82-42.23,42.53-17.4,8.72-41.18,18.51-46.75,39.28-.71,2.66-.99,5.45-1.02,8.19-.02,2.28,3.51,2.27,3.53,0Z"/>
      <path fill="#0a7351" d="m485.74,220c-.21,22.73-24.86,33.82-42.23,42.53-17.4,8.72-41.18,18.51-46.75,39.28-.71,2.66-.99,5.45-1.02,8.19-.02,2.28,3.51,2.27,3.53,0,.21-22.73,24.86-33.82,42.23-42.53,17.4-8.72,41.18-18.5,46.75-39.28.71-2.66.99-5.45,1.02-8.19.02-2.28-3.51-2.27-3.53,0Z"/>
      <path fill="#0a7351" d="m204.26,480c.21-22.73,24.86-33.82,42.23-42.53,17.4-8.72,41.18-18.51,46.75-39.28.71-2.66.99-5.45,1.02-8.19.02-2.28-3.51-2.27-3.53,0-.21,22.73-24.86,33.82-42.23,42.53-17.4,8.72-41.18,18.5-46.75,39.28-.71,2.66-.99,5.45-1.02,8.19-.02,2.28,3.51,2.27,3.53,0Z"/>
      <path fill="#0a7351" d="m186.76,461.81c-.71,2.66-.99,5.45-1.02,8.19-.02,2.28,3.51,2.27,3.53,0,.21-22.73,24.86-33.82,42.23-42.53,17.4-8.72,41.18-18.5,46.75-39.28.71-2.66.99-5.45,1.02-8.19.02-2.28-3.51-2.27-3.53,0-.21,22.73-24.86,33.82-42.23,42.53-17.4,8.72-41.18,18.51-46.75,39.28Z"/>
      <path fill="#0a7351" d="m345.31,376.96c-10.24-5.24-20.76-10.05-30.43-16.33-8.35-5.42-16.37-12.47-19.41-22.27-.84-2.71-1.18-5.53-1.2-8.36-.02-2.27-3.55-2.28-3.53,0,.21,22.27,21.53,34.12,38.96,43.04,10.24,5.24,20.76,10.05,30.43,16.33,8.35,5.42,16.37,12.47,19.41,22.27.84,2.71,1.18,5.53,1.2,8.36.02,2.27,3.55,2.28,3.53,0-.21-22.27-21.53-34.12-38.96-43.04Z"/>
      <path fill="#0a7351" d="m409.53,391.64c.84,2.71,1.18,5.53,1.2,8.36.02,2.27,3.55,2.28,3.53,0-.21-22.27-21.53-34.12-38.96-43.04-10.24-5.24-20.76-10.05-30.43-16.33-8.35-5.42-16.37-12.47-19.41-22.27-.84-2.71-1.18-5.53-1.2-8.36-.02-2.27-3.55-2.28-3.53,0,.21,22.27,21.53,34.12,38.96,43.04,10.24,5.24,20.76,10.05,30.43,16.33,8.35,5.42,16.37,12.47,19.41,22.27Z"/>
      <path fill="#0a7351" d="m424.53,381.64c.84,2.71,1.18,5.53,1.2,8.36.02,2.27,3.55,2.28,3.53,0-.21-22.27-21.53-34.12-38.96-43.04-10.24-5.24-20.76-10.05-30.43-16.33-8.35-5.42-16.37-12.47-19.41-22.27-.84-2.71-1.18-5.53-1.2-8.36-.02-2.27-3.55-2.28-3.53,0,.21,22.27,21.53,34.12,38.96,43.04,10.24,5.24,20.76,10.05,30.43,16.33,8.35,5.42,16.37,12.47,19.41,22.27Z"/>
      <path fill="#0a7351" d="m439.53,371.64c.84,2.71,1.18,5.53,1.2,8.36.02,2.27,3.55,2.28,3.53,0-.21-22.27-21.53-34.12-38.96-43.04-10.24-5.24-20.76-10.05-30.43-16.33-8.35-5.42-16.37-12.47-19.41-22.27-.84-2.71-1.18-5.53-1.2-8.36-.02-2.27-3.55-2.28-3.53,0,.21,22.27,21.53,34.12,38.96,43.04,10.24,5.24,20.76,10.05,30.43,16.33,8.35,5.42,16.37,12.47,19.41,22.27Z"/>
      <path fill="#0a7351" d="m394.53,401.64c.84,2.71,1.18,5.53,1.2,8.36.02,2.27,3.55,2.28,3.53,0-.21-22.27-21.53-34.12-38.96-43.04-10.24-5.24-20.76-10.05-30.43-16.33-8.35-5.42-16.37-12.47-19.41-22.27-.84-2.71-1.18-5.53-1.2-8.36-.02-2.27-3.55-2.28-3.53,0,.21,22.27,21.53,34.12,38.96,43.04,10.24,5.24,20.76,10.05,30.43,16.33,8.35,5.42,16.37,12.47,19.41,22.27Z"/>
      <path fill="#0a7351" d="m515.74,240c-.21,22.73-24.86,33.82-42.23,42.53-17.4,8.72-41.18,18.51-46.75,39.28-.71,2.66-.99,5.45-1.02,8.19-.02,2.28,3.51,2.27,3.53,0,.21-22.73,24.86-33.82,42.23-42.53,17.4-8.72,41.18-18.5,46.75-39.28.71-2.66.99-5.45,1.02-8.19.02-2.28-3.51-2.27-3.53,0Z"/>
      <path fill="#0a7351" d="m500.74,230c-.21,22.73-24.86,33.82-42.23,42.53-17.4,8.72-41.18,18.5-46.75,39.28-.71,2.66-.99,5.45-1.02,8.19-.02,2.28,3.51,2.27,3.53,0,.21-22.73,24.86-33.82,42.23-42.53,17.4-8.72,41.18-18.5,46.75-39.28.71-2.66.99-5.45,1.02-8.19.02-2.28-3.51-2.27-3.53,0Z"/>
      <path fill="#0a7351" d="m533.24,258.19c.71-2.66.99-5.45,1.02-8.19.02-2.28-3.51-2.27-3.53,0-.21,22.73-24.86,33.82-42.23,42.53-17.4,8.72-41.18,18.5-46.75,39.28-.71,2.66-.99,5.45-1.02,8.19-.02,2.28,3.51,2.27,3.53,0,.21-22.73,24.86-33.82,42.23-42.53,17.4-8.72,41.18-18.51,46.75-39.28Z"/>
      <path fill="#0a7351" d="m249.26,510c.21-22.73,24.86-33.82,42.23-42.53,17.4-8.72,41.18-18.5,46.75-39.28.71-2.66.99-5.45,1.02-8.19.02-2.28-3.51-2.27-3.53,0-.21,22.73-24.86,33.82-42.23,42.53-17.4,8.72-41.18,18.5-46.75,39.28-.71,2.66-.99,5.45-1.02,8.19-.02,2.28,3.51,2.27,3.53,0Z"/>
      <path fill="#0a7351" d="m364.53,421.64c.84,2.71,1.18,5.53,1.2,8.36.02,2.27,3.55,2.28,3.53,0-.21-22.27-21.53-34.12-38.96-43.04-10.24-5.24-20.76-10.05-30.43-16.33-8.35-5.42-16.37-12.47-19.41-22.27-.84-2.71-1.18-5.53-1.2-8.36-.02-2.27-3.55-2.28-3.53,0,.21,22.27,21.53,34.12,38.96,43.04,10.24,5.24,20.76,10.05,30.43,16.33,8.35,5.42,16.37,12.47,19.41,22.27Z"/>
      <path fill="#0a7351" d="m665.74,580c-.21,22.73-24.86,33.82-42.23,42.53-17.4,8.72-41.18,18.5-46.75,39.28-.71,2.66-.99,5.45-1.02,8.19-.02,2.28,3.51,2.27,3.53,0,.21-22.73,24.86-33.82,42.23-42.53,17.4-8.72,41.18-18.51,46.75-39.28.71-2.66.99-5.45,1.02-8.19.02-2.28-3.51-2.27-3.53,0Z"/>
      <path fill="#0a7351" d="m99.26,700c-.02-2.27-3.55-2.28-3.53,0,.07,7.85,2.78,14.41,7.01,20h4.41c-2.95-3.39-5.33-7.24-6.69-11.64-.84-2.71-1.18-5.53-1.2-8.36Z"/>
      <path fill="#0a7351" d="m279.26,700c-.02-2.27-3.55-2.28-3.53,0,.07,7.85,2.78,14.41,7.01,20h4.41c-2.95-3.39-5.33-7.24-6.69-11.64-.84-2.71-1.18-5.53-1.2-8.36Z"/>
      <path fill="#0a7351" d="m179.88,690.63c-8.35-5.42-16.37-12.47-19.41-22.27-.84-2.71-1.18-5.53-1.2-8.36-.02-2.27-3.55-2.28-3.53,0,.21,22.27,21.53,34.12,38.96,43.04,10.24,5.24,20.76,10.05,30.43,16.33.32.21.63.42.95.63h6c-6.75-5.19-14.59-9.37-21.77-13.04-10.24-5.24-20.76-10.05-30.43-16.33Z"/>
      <path fill="#0a7351" d="m295.47,698.36c-.84-2.71-1.18-5.53-1.2-8.36-.02-2.27-3.55-2.28-3.53,0,.12,13.09,7.55,22.59,17.19,30h6c-8-5.33-15.53-12.21-18.46-21.64Z"/>
      <path fill="#0a7351" d="m164.88,700.63c-8.35-5.42-16.37-12.47-19.41-22.27-.84-2.71-1.18-5.53-1.2-8.36-.02-2.27-3.55-2.28-3.53,0,.21,22.27,21.53,34.12,38.96,43.04,4.59,2.35,9.23,4.61,13.82,6.96h7.61c-1.96-1.05-3.92-2.07-5.82-3.04-10.24-5.24-20.76-10.05-30.43-16.33Z"/>
      <path fill="#0a7351" d="m115.47,698.36c-.84-2.71-1.18-5.53-1.2-8.36-.02-2.27-3.55-2.28-3.53,0,.12,13.09,7.55,22.59,17.19,30h6c-8-5.33-15.53-12.21-18.46-21.64Z"/>
      <path fill="#0a7351" d="m130.47,688.36c-.84-2.71-1.18-5.53-1.2-8.36-.02-2.27-3.55-2.28-3.53,0,.19,19.83,17.12,31.4,33.14,40h7.61c-5.67-2.89-11.26-5.9-16.6-9.37-8.35-5.42-16.37-12.47-19.41-22.27Z"/>
      <path fill="#0a7351" d="m225.3,696.96c-10.24-5.24-20.76-10.05-30.43-16.33-8.35-5.42-16.37-12.47-19.41-22.27-.84-2.71-1.18-5.53-1.2-8.36-.02-2.27-3.55-2.28-3.53,0,.21,22.27,21.53,34.12,38.96,43.04,10.24,5.24,20.76,10.05,30.43,16.33,4.6,2.98,9.09,6.47,12.72,10.63h4.41c-7.76-10.26-20.67-17.27-31.95-23.04Z"/>
      <path fill="#0a7351" d="m459.26,700c-.02-2.27-3.55-2.28-3.53,0,.07,7.85,2.78,14.41,7.01,20h4.41c-2.95-3.39-5.33-7.24-6.7-11.64-.84-2.71-1.18-5.53-1.2-8.36Z"/>
      <path fill="#0a7351" d="m475.47,698.36c-.84-2.71-1.18-5.53-1.2-8.36-.02-2.27-3.55-2.28-3.53,0,.12,13.09,7.55,22.59,17.19,30h6c-8-5.33-15.53-12.21-18.46-21.64Z"/>
      <path fill="#0a7351" d="m490.47,688.36c-.84-2.71-1.18-5.53-1.2-8.36-.02-2.27-3.55-2.28-3.53,0,.19,19.83,17.12,31.4,33.14,40h7.61c-5.67-2.89-11.26-5.9-16.6-9.37-8.35-5.42-16.37-12.47-19.41-22.27Z"/>
      <path fill="#0a7351" d="m310.47,688.36c-.84-2.71-1.18-5.53-1.2-8.36-.02-2.27-3.55-2.28-3.53,0,.19,19.83,17.12,31.4,33.14,40h7.61c-5.67-2.89-11.26-5.9-16.6-9.37-8.35-5.42-16.37-12.47-19.41-22.27Z"/>
      <path fill="#0a7351" d="m344.88,700.63c-8.35-5.42-16.37-12.47-19.41-22.27-.84-2.71-1.18-5.53-1.2-8.36-.02-2.27-3.55-2.28-3.53,0,.21,22.27,21.53,34.12,38.96,43.04,4.59,2.35,9.23,4.61,13.82,6.96h7.61c-1.96-1.05-3.92-2.07-5.82-3.04-10.24-5.24-20.76-10.05-30.43-16.33Z"/>
      <path fill="#0a7351" d="m359.88,690.63c-8.35-5.42-16.37-12.47-19.41-22.27-.84-2.71-1.18-5.53-1.2-8.36-.02-2.27-3.55-2.28-3.53,0,.21,22.27,21.53,34.12,38.96,43.04,10.24,5.24,20.76,10.05,30.43,16.33.32.21.63.42.95.63h6c-6.75-5.19-14.59-9.37-21.77-13.04-10.24-5.24-20.76-10.05-30.43-16.33Z"/>
      <path fill="#0a7351" d="m405.31,696.96c-10.24-5.24-20.76-10.05-30.43-16.33-8.35-5.42-16.37-12.47-19.41-22.27-.84-2.71-1.18-5.53-1.2-8.36-.02-2.27-3.55-2.28-3.53,0,.21,22.27,21.53,34.12,38.96,43.04,10.24,5.24,20.76,10.05,30.43,16.33,4.6,2.98,9.09,6.47,12.72,10.63h4.41c-7.76-10.26-20.67-17.27-31.95-23.04Z"/>
      <path fill="#0a7351" d="m29.69,513.04c10.24,5.24,20.76,10.05,30.43,16.33,8.35,5.42,16.37,12.47,19.41,22.27.84,2.71,1.18,5.53,1.2,8.36.02,2.27,3.55,2.28,3.53,0-.21-22.27-21.53-34.12-38.96-43.04-10.24-5.24-20.76-10.05-30.43-16.33-5.57-3.61-10.98-7.96-14.88-13.36v5.46c7.86,8.79,19.45,15.06,29.69,20.3Z"/>
      <path fill="#0a7351" d="m5.74,430c.02,2.27,3.55,2.28,3.53,0-.09-9.17-3.76-16.58-9.26-22.74v5.46c1.95,2.7,3.52,5.65,4.53,8.91.84,2.71,1.18,5.53,1.2,8.36Z"/>
      <path fill="#0a7351" d="m524.88,700.63c-8.35-5.42-16.37-12.47-19.41-22.27-.84-2.71-1.18-5.53-1.2-8.36-.02-2.27-3.55-2.28-3.53,0,.21,22.27,21.53,34.12,38.96,43.04,4.59,2.35,9.23,4.61,13.82,6.96h7.61c-1.96-1.05-3.92-2.07-5.82-3.04-10.24-5.24-20.76-10.05-30.43-16.33Z"/>
      <path fill="#0a7351" d="m45.31,696.96c-10.24-5.24-20.76-10.05-30.43-16.33-5.57-3.61-10.98-7.96-14.88-13.36v5.46c7.86,8.79,19.45,15.06,29.69,20.3,10.24,5.24,20.76,10.05,30.43,16.33,4.6,2.98,9.09,6.47,12.72,10.63h4.41c-7.76-10.26-20.67-17.27-31.95-23.04Z"/>
      <path fill="#0a7351" d="m19.53,411.64c.84,2.71,1.18,5.53,1.2,8.36.02,2.27,3.55,2.28,3.53,0-.15-16.16-11.43-26.84-24.26-34.89v4.18s.08.05.12.08c8.35,5.42,16.37,12.47,19.41,22.27Z"/>
      <path fill="#0a7351" d="m45.12,359.37c8.35,5.42,16.37,12.47,19.41,22.27.84,2.71,1.18,5.53,1.2,8.36.02,2.27,3.55,2.28,3.53,0-.21-22.27-21.53-34.12-38.96-43.04-10.2-5.22-20.67-10.01-30.31-16.25v4.18c4.85,3.04,9.92,5.71,14.69,8.15,10.24,5.24,20.76,10.05,30.43,16.33Z"/>
      <path fill="#0a7351" d="m49.53,391.64c.84,2.71,1.18,5.53,1.2,8.36.02,2.27,3.55,2.28,3.53,0-.21-22.27-21.53-34.12-38.96-43.04-5.08-2.6-10.23-5.09-15.31-7.71v3.95c10.15,5.18,20.55,9.96,30.12,16.17,8.35,5.42,16.37,12.47,19.41,22.27Z"/>
      <path fill="#0a7351" d="m34.53,401.64c.84,2.71,1.18,5.53,1.2,8.36.02,2.27,3.55,2.28,3.53,0-.21-22.27-21.53-34.12-38.96-43.04-.1-.05-.2-.1-.31-.15v3.95c5.16,2.66,10.25,5.45,15.12,8.61,8.35,5.42,16.37,12.47,19.41,22.27Z"/>
      <path fill="#0a7351" d="m45.12,539.37c8.35,5.42,16.37,12.47,19.41,22.27.84,2.71,1.18,5.53,1.2,8.36.02,2.27,3.55,2.28,3.53,0-.21-22.27-21.53-34.12-38.96-43.04-10.2-5.22-20.67-10.01-30.31-16.25v4.18c4.85,3.04,9.92,5.71,14.69,8.15,10.24,5.24,20.76,10.05,30.43,16.33Z"/>
      <path fill="#0a7351" d="m49.53,571.64c.84,2.71,1.18,5.53,1.2,8.36.02,2.27,3.55,2.28,3.53,0-.21-22.27-21.53-34.12-38.96-43.04-5.08-2.6-10.23-5.09-15.31-7.71v3.95c10.15,5.18,20.55,9.96,30.12,16.17,8.35,5.42,16.37,12.47,19.41,22.27Z"/>
      <path fill="#0a7351" d="m0,690.71v4.18c4.85,3.04,9.92,5.71,14.69,8.15,10.24,5.24,20.76,10.05,30.43,16.33.32.21.63.42.95.63h6c-6.75-5.19-14.59-9.37-21.77-13.04-10.2-5.22-20.67-10.01-30.31-16.25Z"/>
      <path fill="#0a7351" d="m5.74,610c.02,2.27,3.55,2.28,3.53,0-.09-9.17-3.76-16.58-9.26-22.74v5.46c1.95,2.7,3.52,5.65,4.53,8.91.84,2.71,1.18,5.53,1.2,8.36Z"/>
      <path fill="#0a7351" d="m0,709.25v3.95c4.49,2.29,9.02,4.51,13.52,6.8h7.61c-1.96-1.05-3.92-2.07-5.82-3.04-5.08-2.6-10.23-5.09-15.31-7.71Z"/>
      <path fill="#0a7351" d="m19.53,591.64c.84,2.71,1.18,5.53,1.2,8.36.02,2.27,3.55,2.28,3.53,0-.15-16.16-11.43-26.84-24.26-34.89v4.18s.08.05.12.08c8.35,5.42,16.37,12.47,19.41,22.27Z"/>
      <path fill="#0a7351" d="m34.53,581.64c.84,2.71,1.18,5.53,1.2,8.36.02,2.27,3.55,2.28,3.53,0-.21-22.27-21.53-34.12-38.96-43.04-.1-.05-.2-.1-.31-.15v3.95c5.16,2.66,10.25,5.45,15.12,8.61,8.35,5.42,16.37,12.47,19.41,22.27Z"/>
      <path fill="#0a7351" d="m698.87,0c1.97,1.05,3.92,2.07,5.82,3.04,5.08,2.6,10.23,5.09,15.31,7.71v-3.95c-4.49-2.29-9.02-4.51-13.52-6.8h-7.61Z"/>
      <path fill="#0a7351" d="m714.26,290c-.02-2.27-3.55-2.28-3.53,0,.09,9.17,3.76,16.58,9.26,22.74v-5.46c-1.95-2.7-3.52-5.65-4.53-8.91-.84-2.71-1.18-5.53-1.2-8.36Z"/>
      <path fill="#0a7351" d="m670.47,148.36c-.84-2.71-1.18-5.53-1.2-8.36-.02-2.27-3.55-2.28-3.53,0,.21,22.27,21.53,34.12,38.96,43.04,5.08,2.6,10.23,5.09,15.31,7.71v-3.95c-10.15-5.18-20.55-9.96-30.12-16.17-8.35-5.42-16.37-12.47-19.41-22.27Z"/>
      <path fill="#0a7351" d="m674.88,180.63c-8.35-5.42-16.37-12.47-19.41-22.27-.84-2.71-1.18-5.53-1.2-8.36-.02-2.27-3.55-2.28-3.53,0,.21,22.27,21.53,34.12,38.96,43.04,10.2,5.22,20.67,10.01,30.31,16.25v-4.18c-4.85-3.04-9.92-5.71-14.69-8.15-10.24-5.24-20.76-10.05-30.43-16.33Z"/>
      <path fill="#0a7351" d="m690.31,206.96c-10.24-5.24-20.76-10.05-30.43-16.33-8.35-5.42-16.37-12.47-19.41-22.27-.84-2.71-1.18-5.53-1.2-8.36-.02-2.27-3.55-2.28-3.53,0,.21,22.27,21.53,34.12,38.96,43.04,10.24,5.24,20.76,10.05,30.43,16.33,5.57,3.61,10.98,7.96,14.88,13.36v-5.46c-7.86-8.79-19.45-15.06-29.69-20.3Z"/>
      <path fill="#0a7351" d="m700.47,308.36c-.84-2.71-1.18-5.53-1.2-8.36-.02-2.27-3.55-2.28-3.53,0,.15,16.16,11.43,26.84,24.26,34.89v-4.18s-.08-.05-.12-.08c-8.35-5.42-16.37-12.47-19.41-22.27Z"/>
      <path fill="#0a7351" d="m670.47,328.36c-.84-2.71-1.18-5.53-1.2-8.36-.02-2.27-3.55-2.28-3.53,0,.21,22.27,21.53,34.12,38.96,43.04,5.08,2.6,10.23,5.09,15.31,7.71v-3.95c-10.15-5.18-20.55-9.96-30.12-16.17-8.35-5.42-16.37-12.47-19.41-22.27Z"/>
      <path fill="#0a7351" d="m685.47,318.36c-.84-2.71-1.18-5.53-1.2-8.36-.02-2.27-3.55-2.28-3.53,0,.21,22.27,21.53,34.12,38.96,43.04.1.05.2.1.31.15v-3.95c-5.16-2.66-10.25-5.45-15.12-8.61-8.35-5.42-16.37-12.47-19.41-22.27Z"/>
      <path fill="#0a7351" d="m674.88.63c-.32-.21-.63-.42-.95-.63h-6c6.75,5.19,14.59,9.37,21.77,13.04,10.2,5.22,20.67,10.01,30.31,16.25v-4.18c-4.85-3.04-9.92-5.71-14.69-8.15-10.24-5.24-20.76-10.05-30.43-16.33Z"/>
      <path fill="#0a7351" d="m189.26,650c.21-22.73,24.86-33.82,42.23-42.53,17.4-8.72,41.18-18.5,46.75-39.28.71-2.66.99-5.45,1.02-8.19.02-2.28-3.51-2.27-3.53,0-.21,22.73-24.86,33.82-42.23,42.53-17.4,8.72-41.18,18.5-46.75,39.28-.71,2.66-.99,5.45-1.02,8.19-.02,2.28,3.51,2.27,3.53,0Z"/>
      <path fill="#0a7351" d="m29.69,333.04c10.24,5.24,20.76,10.05,30.43,16.33,8.35,5.42,16.37,12.47,19.41,22.27.84,2.71,1.18,5.53,1.2,8.36.02,2.27,3.55,2.28,3.53,0-.21-22.27-21.53-34.12-38.96-43.04-10.24-5.24-20.76-10.05-30.43-16.33-5.57-3.61-10.98-7.96-14.88-13.36v5.46c7.86,8.79,19.45,15.06,29.69,20.3Z"/>
      <path fill="#0a7351" d="m690.31,26.96c-10.24-5.24-20.76-10.05-30.43-16.33-4.6-2.98-9.09-6.47-12.72-10.63h-4.41c7.76,10.26,20.67,17.27,31.95,23.04,10.24,5.24,20.76,10.05,30.43,16.33,5.57,3.61,10.98,7.96,14.88,13.36v-5.46c-7.86-8.79-19.45-15.06-29.69-20.3Z"/>
      <path fill="#0a7351" d="m674.88,360.63c-8.35-5.42-16.37-12.47-19.41-22.27-.84-2.71-1.18-5.53-1.2-8.36-.02-2.27-3.55-2.28-3.53,0,.21,22.27,21.53,34.12,38.96,43.04,10.2,5.22,20.67,10.01,30.31,16.25v-4.18c-4.85-3.04-9.92-5.71-14.69-8.15-10.24-5.24-20.76-10.05-30.43-16.33Z"/>
      <path fill="#0a7351" d="m714.26,110c-.02-2.27-3.55-2.28-3.53,0,.09,9.17,3.76,16.58,9.26,22.74v-5.46c-1.95-2.7-3.52-5.65-4.53-8.91-.84-2.71-1.18-5.53-1.2-8.36Z"/>
      <path fill="#0a7351" d="m700.47,128.36c-.84-2.71-1.18-5.53-1.2-8.36-.02-2.27-3.55-2.28-3.53,0,.15,16.16,11.43,26.84,24.26,34.89v-4.18s-.08-.05-.12-.08c-8.35-5.42-16.37-12.47-19.41-22.27Z"/>
      <path fill="#0a7351" d="m670.47,508.36c-.84-2.71-1.18-5.53-1.2-8.36-.02-2.27-3.55-2.28-3.53,0,.21,22.27,21.53,34.12,38.96,43.04,5.08,2.6,10.23,5.09,15.31,7.71v-3.95c-10.15-5.18-20.55-9.96-30.12-16.17-8.35-5.42-16.37-12.47-19.41-22.27Z"/>
      <path fill="#0a7351" d="m670.47,688.36c-.84-2.71-1.18-5.53-1.2-8.36-.02-2.27-3.55-2.28-3.53,0,.19,19.83,17.12,31.4,33.14,40h7.61c-5.67-2.89-11.26-5.9-16.6-9.37-8.35-5.42-16.37-12.47-19.41-22.27Z"/>
      <path fill="#0a7351" d="m685.47,678.36c-.84-2.71-1.18-5.53-1.2-8.36-.02-2.27-3.55-2.28-3.53,0,.21,22.27,21.53,34.12,38.96,43.04.1.05.2.1.31.15v-3.95c-5.16-2.66-10.25-5.45-15.12-8.61-8.35-5.42-16.37-12.47-19.41-22.27Z"/>
      <path fill="#0a7351" d="m714.26,650c-.02-2.27-3.55-2.28-3.53,0,.09,9.17,3.76,16.58,9.26,22.74v-5.46c-1.95-2.7-3.52-5.65-4.53-8.91-.84-2.71-1.18-5.53-1.2-8.36Z"/>
      <path fill="#0a7351" d="m700.47,668.36c-.84-2.71-1.18-5.53-1.2-8.36-.02-2.27-3.55-2.28-3.53,0,.15,16.16,11.43,26.84,24.26,34.89v-4.18s-.08-.05-.12-.08c-8.35-5.42-16.37-12.47-19.41-22.27Z"/>
      <path fill="#0a7351" d="m655.47,698.36c-.84-2.71-1.18-5.53-1.2-8.36-.02-2.27-3.55-2.28-3.53,0,.12,13.09,7.55,22.59,17.19,30h6c-8-5.33-15.53-12.21-18.46-21.64Z"/>
      <path fill="#0a7351" d="m585.3,696.96c-10.24-5.24-20.76-10.05-30.43-16.33-8.35-5.42-16.37-12.47-19.41-22.27-.84-2.71-1.18-5.53-1.2-8.36-.02-2.27-3.55-2.28-3.53,0,.21,22.27,21.53,34.12,38.96,43.04,10.24,5.24,20.76,10.05,30.43,16.33,4.6,2.98,9.09,6.47,12.72,10.63h4.41c-7.76-10.26-20.67-17.27-31.95-23.04Z"/>
      <path fill="#0a7351" d="m639.26,700c-.02-2.27-3.55-2.28-3.53,0,.07,7.85,2.78,14.41,7.01,20h4.41c-2.95-3.39-5.33-7.24-6.7-11.64-.84-2.71-1.18-5.53-1.2-8.36Z"/>
      <path fill="#0a7351" d="m539.88,690.63c-8.35-5.42-16.37-12.47-19.41-22.27-.84-2.71-1.18-5.53-1.2-8.36-.02-2.27-3.55-2.28-3.53,0,.21,22.27,21.53,34.12,38.96,43.04,10.24,5.24,20.76,10.05,30.43,16.33.32.21.63.42.95.63h6c-6.75-5.19-14.59-9.37-21.77-13.04-10.24-5.24-20.76-10.05-30.43-16.33Z"/>
      <path fill="#0a7351" d="m690.31,566.96c-10.24-5.24-20.76-10.05-30.43-16.33-8.35-5.42-16.37-12.47-19.41-22.27-.84-2.71-1.18-5.53-1.2-8.36-.02-2.27-3.55-2.28-3.53,0,.21,22.27,21.53,34.12,38.96,43.04,10.24,5.24,20.76,10.05,30.43,16.33,5.57,3.61,10.98,7.96,14.88,13.36v-5.46c-7.86-8.79-19.45-15.06-29.69-20.3Z"/>
      <path fill="#0a7351" d="m700.47,488.36c-.84-2.71-1.18-5.53-1.2-8.36-.02-2.27-3.55-2.28-3.53,0,.15,16.16,11.43,26.84,24.26,34.89v-4.18s-.08-.05-.12-.08c-8.35-5.42-16.37-12.47-19.41-22.27Z"/>
      <path fill="#0a7351" d="m714.26,470c-.02-2.27-3.55-2.28-3.53,0,.09,9.17,3.76,16.58,9.26,22.74v-5.46c-1.95-2.7-3.52-5.65-4.53-8.91-.84-2.71-1.18-5.53-1.2-8.36Z"/>
      <path fill="#0a7351" d="m685.47,498.36c-.84-2.71-1.18-5.53-1.2-8.36-.02-2.27-3.55-2.28-3.53,0,.21,22.27,21.53,34.12,38.96,43.04.1.05.2.1.31.15v-3.95c-5.16-2.66-10.25-5.45-15.12-8.61-8.35-5.42-16.37-12.47-19.41-22.27Z"/>
      <path fill="#0a7351" d="m674.88,540.63c-8.35-5.42-16.37-12.47-19.41-22.27-.84-2.71-1.18-5.53-1.2-8.36-.02-2.27-3.55-2.28-3.53,0,.21,22.27,21.53,34.12,38.96,43.04,10.2,5.22,20.67,10.01,30.31,16.25v-4.18c-4.85-3.04-9.92-5.71-14.69-8.15-10.24-5.24-20.76-10.05-30.43-16.33Z"/>
      <path fill="#0a7351" d="m690.31,386.96c-10.24-5.24-20.76-10.05-30.43-16.33-8.35-5.42-16.37-12.47-19.41-22.27-.84-2.71-1.18-5.53-1.2-8.36-.02-2.27-3.55-2.28-3.53,0,.21,22.27,21.53,34.12,38.96,43.04,10.24,5.24,20.76,10.05,30.43,16.33,5.57,3.61,10.98,7.96,14.88,13.36v-5.46c-7.86-8.79-19.45-15.06-29.69-20.3Z"/>
      <path fill="#0a7351" d="m685.47,138.36c-.84-2.71-1.18-5.53-1.2-8.36-.02-2.27-3.55-2.28-3.53,0,.21,22.27,21.53,34.12,38.96,43.04.1.05.2.1.31.15v-3.95c-5.16-2.66-10.25-5.45-15.12-8.61-8.35-5.42-16.37-12.47-19.41-22.27Z"/>
      <path fill="#0a7351" d="m635.74,380c-.21,22.73-24.86,33.82-42.23,42.53-17.4,8.72-41.18,18.51-46.75,39.28-.71,2.66-.99,5.45-1.02,8.19-.02,2.28,3.51,2.27,3.53,0,.21-22.73,24.86-33.82,42.23-42.53,17.4-8.72,41.18-18.5,46.75-39.28.71-2.66.99-5.45,1.02-8.19.02-2.28-3.51-2.27-3.53,0Z"/>
      <path fill="#0a7351" d="m713.24,258.19c.71-2.66.99-5.45,1.02-8.19.02-2.28-3.51-2.27-3.53,0-.21,22.73-24.86,33.82-42.23,42.53-17.4,8.72-41.18,18.5-46.75,39.28-.71,2.66-.99,5.45-1.02,8.19-.02,2.28,3.51,2.27,3.53,0,.21-22.73,24.86-33.82,42.23-42.53,17.4-8.72,41.18-18.51,46.75-39.28Z"/>
      <path fill="#0a7351" d="m695.74,240c-.21,22.73-24.86,33.82-42.23,42.53-17.4,8.72-41.18,18.51-46.75,39.28-.71,2.66-.99,5.45-1.02,8.19-.02,2.28,3.51,2.27,3.53,0,.21-22.73,24.86-33.82,42.23-42.53,17.4-8.72,41.18-18.5,46.75-39.28.71-2.66.99-5.45,1.02-8.19.02-2.28-3.51-2.27-3.53,0Z"/>
      <path fill="#0a7351" d="m665.74,40c-.21,22.73-24.86,33.82-42.23,42.53-17.4,8.72-41.18,18.5-46.75,39.28-.71,2.66-.99,5.45-1.02,8.19-.02,2.28,3.51,2.27,3.53,0,.21-22.73,24.86-33.82,42.23-42.53,17.4-8.72,41.18-18.51,46.75-39.28.71-2.66.99-5.45,1.02-8.19.02-2.28-3.51-2.27-3.53,0Z"/>
      <path fill="#0a7351" d="m650.74,390c-.21,22.73-24.86,33.82-42.23,42.53-17.4,8.72-41.18,18.5-46.75,39.28-.71,2.66-.99,5.45-1.02,8.19-.02,2.28,3.51,2.27,3.53,0,.21-22.73,24.86-33.82,42.23-42.53,17.4-8.72,41.18-18.51,46.75-39.28.71-2.66.99-5.45,1.02-8.19.02-2.28-3.51-2.27-3.53,0Z"/>
      <path fill="#0a7351" d="m680.74,410c-.21,22.73-24.86,33.82-42.23,42.53-17.4,8.72-41.18,18.51-46.75,39.28-.71,2.66-.99,5.45-1.02,8.19-.02,2.28,3.51,2.27,3.53,0,.21-22.73,24.86-33.82,42.23-42.53,17.4-8.72,41.18-18.5,46.75-39.28.71-2.66.99-5.45,1.02-8.19.02-2.28-3.51-2.27-3.53,0Z"/>
      <path fill="#0a7351" d="m665.74,400c-.21,22.73-24.86,33.82-42.23,42.53-17.4,8.72-41.18,18.51-46.75,39.28-.71,2.66-.99,5.45-1.02,8.19-.02,2.28,3.51,2.27,3.53,0,.21-22.73,24.86-33.82,42.23-42.53,17.4-8.72,41.18-18.5,46.75-39.28.71-2.66.99-5.45,1.02-8.19.02-2.28-3.51-2.27-3.53,0Z"/>
      <path fill="#0a7351" d="m665.74,220c-.21,22.73-24.86,33.82-42.23,42.53-17.4,8.72-41.18,18.51-46.75,39.28-.71,2.66-.99,5.45-1.02,8.19-.02,2.28,3.51,2.27,3.53,0,.21-22.73,24.86-33.82,42.23-42.53,17.4-8.72,41.18-18.5,46.75-39.28.71-2.66.99-5.45,1.02-8.19.02-2.28-3.51-2.27-3.53,0Z"/>
      <path fill="#0a7351" d="m695.74,420c-.21,22.73-24.86,33.82-42.23,42.53-17.4,8.72-41.18,18.5-46.75,39.28-.71,2.66-.99,5.45-1.02,8.19-.02,2.28,3.51,2.27,3.53,0,.21-22.73,24.86-33.82,42.23-42.53,17.4-8.72,41.18-18.5,46.75-39.28.71-2.66.99-5.45,1.02-8.19.02-2.28-3.51-2.27-3.53,0Z"/>
      <path fill="#0a7351" d="m680.74,50c-.21,22.73-24.86,33.82-42.23,42.53-17.4,8.72-41.18,18.51-46.75,39.28-.71,2.66-.99,5.45-1.02,8.19-.02,2.28,3.51,2.27,3.53,0,.21-22.73,24.86-33.82,42.23-42.53,17.4-8.72,41.18-18.5,46.75-39.28.71-2.66.99-5.45,1.02-8.19.02-2.28-3.51-2.27-3.53,0Z"/>
      <path fill="#0a7351" d="m713.24,78.19c.71-2.66.99-5.45,1.02-8.19.02-2.28-3.51-2.27-3.53,0-.21,22.73-24.86,33.82-42.23,42.53-17.4,8.72-41.18,18.51-46.75,39.28-.71,2.66-.99,5.45-1.02,8.19-.02,2.28,3.51,2.27,3.53,0,.21-22.73,24.86-33.82,42.23-42.53,17.4-8.72,41.18-18.5,46.75-39.28Z"/>
      <path fill="#0a7351" d="m695.74,60c-.21,22.73-24.86,33.82-42.23,42.53-17.4,8.72-41.18,18.5-46.75,39.28-.71,2.66-.99,5.45-1.02,8.19-.02,2.28,3.51,2.27,3.53,0,.21-22.73,24.86-33.82,42.23-42.53,17.4-8.72,41.18-18.51,46.75-39.28.71-2.66.99-5.45,1.02-8.19.02-2.28-3.51-2.27-3.53,0Z"/>
      <path fill="#0a7351" d="m650.74,210c-.21,22.73-24.86,33.82-42.23,42.53-17.4,8.72-41.18,18.5-46.75,39.28-.71,2.66-.99,5.45-1.02,8.19-.02,2.28,3.51,2.27,3.53,0,.21-22.73,24.86-33.82,42.23-42.53,17.4-8.72,41.18-18.5,46.75-39.28.71-2.66.99-5.45,1.02-8.19.02-2.28-3.51-2.27-3.53,0Z"/>
      <path fill="#0a7351" d="m635.74,200c-.21,22.73-24.86,33.82-42.23,42.53-17.4,8.72-41.18,18.5-46.75,39.28-.71,2.66-.99,5.45-1.02,8.19-.02,2.28,3.51,2.27,3.53,0,.21-22.73,24.86-33.82,42.23-42.53,17.4-8.72,41.18-18.51,46.75-39.28.71-2.66.99-5.45,1.02-8.19.02-2.28-3.51-2.27-3.53,0Z"/>
      <path fill="#0a7351" d="m680.74,230c-.21,22.73-24.86,33.82-42.23,42.53-17.4,8.72-41.18,18.5-46.75,39.28-.71,2.66-.99,5.45-1.02,8.19-.02,2.28,3.51,2.27,3.53,0,.21-22.73,24.86-33.82,42.23-42.53,17.4-8.72,41.18-18.5,46.75-39.28.71-2.66.99-5.45,1.02-8.19.02-2.28-3.51-2.27-3.53,0Z"/>
      <path fill="#0a7351" d="m353.24,618.19c.71-2.66.99-5.45,1.02-8.19.02-2.28-3.51-2.27-3.53,0-.21,22.73-24.86,33.82-42.23,42.53-17.4,8.72-41.18,18.5-46.75,39.28-.71,2.66-.99,5.45-1.02,8.19-.02,2.28,3.51,2.27,3.53,0,.21-22.73,24.86-33.82,42.23-42.53,17.4-8.72,41.18-18.51,46.75-39.28Z"/>
      <path fill="#0a7351" d="m249.26,690c.21-22.73,24.86-33.82,42.23-42.53,17.4-8.72,41.18-18.51,46.75-39.28.71-2.66.99-5.45,1.02-8.19.02-2.28-3.51-2.27-3.53,0-.21,22.73-24.86,33.82-42.23,42.53-17.4,8.72-41.18,18.5-46.75,39.28-.71,2.66-.99,5.45-1.02,8.19-.02,2.28,3.51,2.27,3.53,0Z"/>
      <path fill="#0a7351" d="m369.26,650c.21-22.73,24.86-33.82,42.23-42.53,17.4-8.72,41.18-18.5,46.75-39.28.71-2.66.99-5.45,1.02-8.19.02-2.28-3.51-2.27-3.53,0-.21,22.73-24.86,33.82-42.23,42.53-17.4,8.72-41.18,18.5-46.75,39.28-.71,2.66-.99,5.45-1.02,8.19-.02,2.28,3.51,2.27,3.53,0Z"/>
      <path fill="#0a7351" d="m364.53,601.64c.84,2.71,1.18,5.53,1.2,8.36.02,2.27,3.55,2.28,3.53,0-.21-22.27-21.53-34.12-38.96-43.04-10.24-5.24-20.76-10.05-30.43-16.33-8.35-5.42-16.37-12.47-19.41-22.27-.84-2.71-1.18-5.53-1.2-8.36-.02-2.27-3.55-2.28-3.53,0,.21,22.27,21.53,34.12,38.96,43.04,10.24,5.24,20.76,10.05,30.43,16.33,8.35,5.42,16.37,12.47,19.41,22.27Z"/>
      <path fill="#0a7351" d="m234.26,680c.21-22.73,24.86-33.82,42.23-42.53,17.4-8.72,41.18-18.5,46.75-39.28.71-2.66.99-5.45,1.02-8.19.02-2.28-3.51-2.27-3.53,0-.21,22.73-24.86,33.82-42.23,42.53-17.4,8.72-41.18,18.51-46.75,39.28-.71,2.66-.99,5.45-1.02,8.19-.02,2.28,3.51,2.27,3.53,0Z"/>
      <path fill="#0a7351" d="m204.26,660c.21-22.73,24.86-33.82,42.23-42.53,17.4-8.72,41.18-18.5,46.75-39.28.71-2.66.99-5.45,1.02-8.19.02-2.28-3.51-2.27-3.53,0-.21,22.73-24.86,33.82-42.23,42.53-17.4,8.72-41.18,18.51-46.75,39.28-.71,2.66-.99,5.45-1.02,8.19-.02,2.28,3.51,2.27,3.53,0Z"/>
      <path fill="#0a7351" d="m219.26,670c.21-22.73,24.86-33.82,42.23-42.53,17.4-8.72,41.18-18.51,46.75-39.28.71-2.66.99-5.45,1.02-8.19.02-2.28-3.51-2.27-3.53,0-.21,22.73-24.86,33.82-42.23,42.53-17.4,8.72-41.18,18.5-46.75,39.28-.71,2.66-.99,5.45-1.02,8.19-.02,2.28,3.51,2.27,3.53,0Z"/>
      <path fill="#0a7351" d="m384.26,660c.21-22.73,24.86-33.82,42.23-42.53,17.4-8.72,41.18-18.5,46.75-39.28.71-2.66.99-5.45,1.02-8.19.02-2.28-3.51-2.27-3.53,0-.21,22.73-24.86,33.82-42.23,42.53-17.4,8.72-41.18,18.51-46.75,39.28-.71,2.66-.99,5.45-1.02,8.19-.02,2.28,3.51,2.27,3.53,0Z"/>
      <path fill="#0a7351" d="m533.24,618.19c.71-2.66.99-5.45,1.02-8.19.02-2.28-3.51-2.27-3.53,0-.21,22.73-24.86,33.82-42.23,42.53-17.4,8.72-41.18,18.5-46.75,39.28-.71,2.66-.99,5.45-1.02,8.19-.02,2.28,3.51,2.27,3.53,0,.21-22.73,24.86-33.82,42.23-42.53,17.4-8.72,41.18-18.51,46.75-39.28Z"/>
      <path fill="#0a7351" d="m713.24,438.19c.71-2.66.99-5.45,1.02-8.19.02-2.28-3.51-2.27-3.53,0-.21,22.73-24.86,33.82-42.23,42.53-17.4,8.72-41.18,18.51-46.75,39.28-.71,2.66-.99,5.45-1.02,8.19-.02,2.28,3.51,2.27,3.53,0,.21-22.73,24.86-33.82,42.23-42.53,17.4-8.72,41.18-18.5,46.75-39.28Z"/>
      <path fill="#0a7351" d="m544.53,601.64c.84,2.71,1.18,5.53,1.2,8.36.02,2.27,3.55,2.28,3.53,0-.21-22.27-21.53-34.12-38.96-43.04-10.24-5.24-20.76-10.05-30.43-16.33-8.35-5.42-16.37-12.47-19.41-22.27-.84-2.71-1.18-5.53-1.2-8.36-.02-2.27-3.55-2.28-3.53,0,.21,22.27,21.53,34.12,38.96,43.04,10.24,5.24,20.76,10.05,30.43,16.33,8.35,5.42,16.37,12.47,19.41,22.27Z"/>
      <path fill="#0a7351" d="m429.26,690c.21-22.73,24.86-33.82,42.23-42.53,17.4-8.72,41.18-18.51,46.75-39.28.71-2.66.99-5.45,1.02-8.19.02-2.28-3.51-2.27-3.53,0-.21,22.73-24.86,33.82-42.23,42.53-17.4,8.72-41.18,18.5-46.75,39.28-.71,2.66-.99,5.45-1.02,8.19-.02,2.28,3.51,2.27,3.53,0Z"/>
      <path fill="#0a7351" d="m414.26,680c.21-22.73,24.86-33.82,42.23-42.53,17.4-8.72,41.18-18.5,46.75-39.28.71-2.66.99-5.45,1.02-8.19.02-2.28-3.51-2.27-3.53,0-.21,22.73-24.86,33.82-42.23,42.53-17.4,8.72-41.18,18.51-46.75,39.28-.71,2.66-.99,5.45-1.02,8.19-.02,2.28,3.51,2.27,3.53,0Z"/>
      <path fill="#0a7351" d="m399.26,670c.21-22.73,24.86-33.82,42.23-42.53,17.4-8.72,41.18-18.51,46.75-39.28.71-2.66.99-5.45,1.02-8.19.02-2.28-3.51-2.27-3.53,0-.21,22.73-24.86,33.82-42.23,42.53-17.4,8.72-41.18,18.5-46.75,39.28-.71,2.66-.99,5.45-1.02,8.19-.02,2.28,3.51,2.27,3.53,0Z"/>
      <path fill="#0a7351" d="m229.53,31.64c.84,2.71,1.18,5.53,1.2,8.36.02,2.27,3.55,2.28,3.53,0-.19-19.83-17.12-31.4-33.14-40h-7.61c5.67,2.89,11.26,5.9,16.61,9.37,8.35,5.42,16.37,12.47,19.41,22.27Z"/>
      <path fill="#0a7351" d="m64.53,21.64c.84,2.71,1.18,5.53,1.2,8.36.02,2.27,3.55,2.28,3.53,0-.12-13.09-7.55-22.59-17.19-30h-6c8,5.33,15.53,12.21,18.46,21.64Z"/>
      <path fill="#0a7351" d="m19.53,51.64c.84,2.71,1.18,5.53,1.2,8.36.02,2.27,3.55,2.28,3.53,0-.15-16.16-11.43-26.84-24.26-34.89v4.18s.08.05.12.08c8.35,5.42,16.37,12.47,19.41,22.27Z"/>
      <path fill="#0a7351" d="m34.53,41.64c.84,2.71,1.18,5.53,1.2,8.36.02,2.27,3.55,2.28,3.53,0C39.06,27.73,17.74,15.88.31,6.96c-.1-.05-.2-.1-.31-.15v3.95c5.16,2.66,10.25,5.45,15.12,8.61,8.35,5.42,16.37,12.47,19.41,22.27Z"/>
      <path fill="#0a7351" d="m49.53,31.64c.84,2.71,1.18,5.53,1.2,8.36.02,2.27,3.55,2.28,3.53,0-.19-19.83-17.12-31.4-33.14-40h-7.61c5.67,2.89,11.26,5.9,16.61,9.37,8.35,5.42,16.37,12.47,19.41,22.27Z"/>
      <path fill="#0a7351" d="m180.12,29.37c8.35,5.42,16.37,12.47,19.41,22.27.84,2.71,1.18,5.53,1.2,8.36.02,2.27,3.55,2.28,3.53,0-.21-22.27-21.53-34.12-38.96-43.04-10.24-5.24-20.76-10.05-30.43-16.33-.32-.21-.63-.42-.95-.63h-6c6.75,5.19,14.59,9.37,21.77,13.04,10.24,5.24,20.76,10.05,30.43,16.33Z"/>
      <path fill="#0a7351" d="m134.69,23.04c10.24,5.24,20.76,10.05,30.43,16.33,8.35,5.42,16.37,12.47,19.41,22.27.84,2.71,1.18,5.53,1.2,8.36.02,2.27,3.55,2.28,3.53,0-.21-22.27-21.53-34.12-38.96-43.04-10.24-5.24-20.76-10.05-30.43-16.33-4.6-2.98-9.09-6.47-12.72-10.63h-4.41c7.76,10.26,20.67,17.27,31.95,23.04Z"/>
      <path fill="#0a7351" d="m195.12,19.37c8.35,5.42,16.37,12.47,19.41,22.27.84,2.71,1.18,5.53,1.2,8.36.02,2.27,3.55,2.28,3.53,0-.21-22.27-21.53-34.12-38.96-43.04-4.59-2.35-9.23-4.61-13.82-6.96h-7.61c1.97,1.05,3.92,2.07,5.82,3.04,10.24,5.24,20.76,10.05,30.43,16.33Z"/>
      <path fill="#0a7351" d="m80.74,20c.02,2.27,3.55,2.28,3.53,0-.07-7.85-2.78-14.41-7.01-20h-4.41c2.95,3.39,5.33,7.24,6.69,11.64.84,2.71,1.18,5.53,1.2,8.36Z"/>
      <path fill="#0a7351" d="m5.74,70c.02,2.27,3.55,2.28,3.53,0-.09-9.17-3.76-16.58-9.26-22.74v5.46c1.95,2.7,3.52,5.65,4.53,8.91.84,2.71,1.18,5.53,1.2,8.36Z"/>
      <path fill="#0a7351" d="m34.53,221.64c.84,2.71,1.18,5.53,1.2,8.36.02,2.27,3.55,2.28,3.53,0-.21-22.27-21.53-34.12-38.96-43.04-.1-.05-.2-.1-.31-.15v3.95c5.16,2.66,10.25,5.45,15.12,8.61,8.35,5.42,16.37,12.47,19.41,22.27Z"/>
      <path fill="#0a7351" d="m19.53,231.64c.84,2.71,1.18,5.53,1.2,8.36.02,2.27,3.55,2.28,3.53,0-.15-16.16-11.43-26.84-24.26-34.89v4.18s.08.05.12.08c8.35,5.42,16.37,12.47,19.41,22.27Z"/>
      <path fill="#0a7351" d="m650.74,30c-.21,22.73-24.86,33.82-42.23,42.53-17.4,8.72-41.18,18.5-46.75,39.28-.71,2.66-.99,5.45-1.02,8.19-.02,2.28,3.51,2.27,3.53,0,.21-22.73,24.86-33.82,42.23-42.53,17.4-8.72,41.18-18.51,46.75-39.28.71-2.66.99-5.45,1.02-8.19.02-2.28-3.51-2.27-3.53,0Z"/>
      <path fill="#0a7351" d="m45.12,179.37c8.35,5.42,16.37,12.47,19.41,22.27.84,2.71,1.18,5.53,1.2,8.36.02,2.27,3.55,2.28,3.53,0-.21-22.27-21.53-34.12-38.96-43.04-10.2-5.22-20.67-10.01-30.31-16.25v4.18c4.85,3.04,9.92,5.71,14.69,8.15,10.24,5.24,20.76,10.05,30.43,16.33Z"/>
      <path fill="#0a7351" d="m29.69,153.04c10.24,5.24,20.76,10.05,30.43,16.33,8.35,5.42,16.37,12.47,19.41,22.27.84,2.71,1.18,5.53,1.2,8.36.02,2.27,3.55,2.28,3.53,0-.21-22.27-21.53-34.12-38.96-43.04-10.24-5.24-20.76-10.05-30.43-16.33-5.57-3.61-10.98-7.96-14.88-13.36v5.46c7.86,8.79,19.45,15.06,29.69,20.3Z"/>
      <path fill="#0a7351" d="m49.53,211.64c.84,2.71,1.18,5.53,1.2,8.36.02,2.27,3.55,2.28,3.53,0-.21-22.27-21.53-34.12-38.96-43.04-5.08-2.6-10.23-5.09-15.31-7.71v3.95c10.15,5.18,20.55,9.96,30.12,16.17,8.35,5.42,16.37,12.47,19.41,22.27Z"/>
      <path fill="#0a7351" d="m424.53,21.64c.84,2.71,1.18,5.53,1.2,8.36.02,2.27,3.55,2.28,3.53,0-.12-13.09-7.55-22.59-17.19-30h-6c8,5.33,15.53,12.21,18.46,21.64Z"/>
      <path fill="#0a7351" d="m440.74,20c.02,2.27,3.55,2.28,3.53,0-.07-7.85-2.78-14.41-7.01-20h-4.41c2.95,3.39,5.33,7.24,6.7,11.64.84,2.71,1.18,5.53,1.2,8.36Z"/>
      <path fill="#0a7351" d="m540.12,29.37c8.35,5.42,16.37,12.47,19.41,22.27.84,2.71,1.18,5.53,1.2,8.36.02,2.27,3.55,2.28,3.53,0-.21-22.27-21.53-34.12-38.96-43.04-10.24-5.24-20.76-10.05-30.43-16.33-.32-.21-.63-.42-.95-.63h-6c6.75,5.19,14.59,9.37,21.77,13.04,10.24,5.24,20.76,10.05,30.43,16.33Z"/>
      <path fill="#0a7351" d="m494.69,23.04c10.24,5.24,20.76,10.05,30.43,16.33,8.35,5.42,16.37,12.47,19.41,22.27.84,2.71,1.18,5.53,1.2,8.36.02,2.27,3.55,2.28,3.53,0-.21-22.27-21.53-34.12-38.96-43.04-10.24-5.24-20.76-10.05-30.43-16.33-4.6-2.98-9.09-6.47-12.72-10.63h-4.41c7.76,10.26,20.67,17.27,31.95,23.04Z"/>
      <path fill="#0a7351" d="m555.12,19.37c8.35,5.42,16.37,12.47,19.41,22.27.84,2.71,1.18,5.53,1.2,8.36.02,2.27,3.55,2.28,3.53,0-.21-22.27-21.53-34.12-38.96-43.04-4.59-2.35-9.23-4.61-13.82-6.96h-7.61c1.97,1.05,3.92,2.07,5.82,3.04,10.24,5.24,20.76,10.05,30.43,16.33Z"/>
      <path fill="#0a7351" d="m604.53,21.64c.84,2.71,1.18,5.53,1.2,8.36.02,2.27,3.55,2.28,3.53,0-.12-13.09-7.55-22.59-17.19-30h-6c8,5.33,15.53,12.21,18.46,21.64Z"/>
      <path fill="#0a7351" d="m589.53,31.64c.84,2.71,1.18,5.53,1.2,8.36.02,2.27,3.55,2.28,3.53,0-.19-19.83-17.12-31.4-33.14-40h-7.61c5.67,2.89,11.26,5.9,16.61,9.37,8.35,5.42,16.37,12.47,19.41,22.27Z"/>
      <path fill="#0a7351" d="m314.69,23.04c10.24,5.24,20.76,10.05,30.43,16.33,8.35,5.42,16.37,12.47,19.41,22.27.84,2.71,1.18,5.53,1.2,8.36.02,2.27,3.55,2.28,3.53,0-.21-22.27-21.53-34.12-38.96-43.04-10.24-5.24-20.76-10.05-30.43-16.33-4.6-2.98-9.09-6.47-12.72-10.63h-4.41c7.76,10.26,20.67,17.27,31.95,23.04Z"/>
      <path fill="#0a7351" d="m409.53,31.64c.84,2.71,1.18,5.53,1.2,8.36.02,2.27,3.55,2.28,3.53,0-.19-19.83-17.12-31.4-33.14-40h-7.61c5.67,2.89,11.26,5.9,16.61,9.37,8.35,5.42,16.37,12.47,19.41,22.27Z"/>
      <path fill="#0a7351" d="m5.74,250c.02,2.27,3.55,2.28,3.53,0-.09-9.17-3.76-16.58-9.26-22.74v5.46c1.95,2.7,3.52,5.65,4.53,8.91.84,2.71,1.18,5.53,1.2,8.36Z"/>
      <path fill="#0a7351" d="m244.53,21.64c.84,2.71,1.18,5.53,1.2,8.36.02,2.27,3.55,2.28,3.53,0-.12-13.09-7.55-22.59-17.19-30h-6c8,5.33,15.53,12.21,18.46,21.64Z"/>
      <path fill="#0a7351" d="m260.74,20c.02,2.27,3.55,2.28,3.53,0-.07-7.85-2.78-14.41-7.01-20h-4.41c2.95,3.39,5.33,7.24,6.69,11.64.84,2.71,1.18,5.53,1.2,8.36Z"/>
      <path fill="#0a7351" d="m375.12,19.37c8.35,5.42,16.37,12.47,19.41,22.27.84,2.71,1.18,5.53,1.2,8.36.02,2.27,3.55,2.28,3.53,0-.21-22.27-21.53-34.12-38.96-43.04-4.59-2.35-9.23-4.61-13.82-6.96h-7.61c1.97,1.05,3.92,2.07,5.82,3.04,10.24,5.24,20.76,10.05,30.43,16.33Z"/>
      <path fill="#0a7351" d="m360.12,29.37c8.35,5.42,16.37,12.47,19.41,22.27.84,2.71,1.18,5.53,1.2,8.36.02,2.27,3.55,2.28,3.53,0-.21-22.27-21.53-34.12-38.96-43.04-10.24-5.24-20.76-10.05-30.43-16.33-.32-.21-.63-.42-.95-.63h-6c6.75,5.19,14.59,9.37,21.77,13.04,10.24,5.24,20.76,10.05,30.43,16.33Z"/>
    </g>
  </g>
</svg>